<?xml version="1.0" encoding="UTF-8" standalone="no"?>
<!DOCTYPE svg PUBLIC "-//W3C//DTD SVG 1.1//EN" "http://www.w3.org/Graphics/SVG/1.1/DTD/svg11.dtd">
<svg width="100%" height="100%" viewBox="0 0 2100 2100" version="1.1" xmlns="http://www.w3.org/2000/svg" xmlns:xlink="http://www.w3.org/1999/xlink" xml:space="preserve" xmlns:serif="http://www.serif.com/" style="fill-rule:evenodd;clip-rule:evenodd;stroke-linecap:round;stroke-linejoin:round;stroke-miterlimit:1.5;">
    <g style="fill: white" transform="matrix(1,0,0,1,2.27374e-13,-111.36)">
        <path d="M899.535,495.672C796.158,513.165 728.447,517.585 612.983,603.55C609.834,605.895 606.724,608.18 603.654,610.41C494.163,689.935 434.294,699.975 373.628,892.631C311.261,1090.69 316.318,1315.91 376.157,1478.57C435.995,1641.23 452.472,1869.28 971.231,1849.9C1489.99,1830.51 1489.15,1834.73 1579.33,1679.65C1669.51,1524.58 1841.19,1087.95 1740.06,824.153C1638.92,560.357 1560.54,564.571 1408,510.632C1255.45,456.692 1076.38,465.747 899.535,495.672ZM1083.37,556.709C951.603,561.835 871.826,556.709 747.935,621.604C624.043,686.5 468.968,737.911 437.784,944.397C406.601,1150.88 396.487,1209.88 427.671,1370.01C458.854,1530.14 512.793,1651.51 581.06,1707.13C649.327,1762.76 833.938,1764.39 967.943,1766.92C1101.95,1769.45 1297.48,1784.62 1411.26,1723.09C1525.03,1661.57 1558.75,1530.93 1594.14,1442.44C1629.54,1353.95 1679.27,1189.6 1692.75,1092.68C1706.24,995.756 1667.47,877.764 1615.21,790.113C1562.96,702.462 1491.32,619.867 1391.03,599.64C1290.74,579.413 1190.37,552.546 1083.37,556.709Z"/>
    </g>
    <g style="fill: white" transform="matrix(0.58634,0,0,0.58634,417.554,432.897)">
        <path d="M1050,945.686C994.464,957.655 973.785,992.679 967.598,1022.95C956.939,1075.1 959.801,1100.31 989.079,1127.95C1029.88,1166.46 1073.19,1169.24 1114.44,1154.41C1155.69,1139.59 1194.49,1099.79 1195.33,1050C1196.18,1000.21 1145.48,925.108 1050,945.686Z"/>
    </g>
    <g style="fill: white">
        <path d="M595.167,514.316C576.259,480.51 563.097,456.181 503.594,498.057C444.091,539.932 461.628,525.492 437.282,549.812C412.936,574.133 362.506,516.077 391.582,493.111C420.659,470.145 513.818,400.309 542.215,383.426C570.613,366.543 638.811,308.195 667.886,288.609C696.961,269.023 759.955,310.564 723.439,341.637C686.923,372.71 673.991,373.745 651.675,394.01C629.359,414.276 612.226,417.946 656.133,470.691"/>
    </g>
    <g style="fill: white" transform="matrix(0.531416,0.847111,-0.847111,0.531416,1666.75,-308.794)">
        <path d="M595.167,514.316C576.259,480.51 563.097,456.181 503.594,498.057C444.091,539.932 461.628,525.492 437.282,549.812C412.936,574.133 362.506,516.077 391.582,493.111C420.659,470.145 513.818,400.309 542.215,383.426C570.613,366.543 638.811,308.195 667.886,288.609C696.961,269.023 759.955,310.564 723.439,341.637C686.923,372.71 673.991,373.745 651.675,394.01C629.359,414.276 612.226,417.946 656.133,470.691"/>
    </g>
    <g style="fill: white">
        <path d="M925.512,283.556C890.411,299.8 885.88,345.941 942.333,332.492C998.785,319.042 1006.05,314.845 1070.66,312.346C1135.27,309.847 1173.68,303.131 1216.39,314.104C1259.11,325.077 1280.63,270.336 1216.39,255.976C1152.15,241.616 1123.96,239.915 1070.66,245.785C1017.36,251.654 958.379,268.346 925.512,283.556Z"/>
    </g>
</svg>
