<?xml version="1.0" encoding="UTF-8" standalone="no"?>
<svg width="100%" height="100%" viewBox="0 0 2100 2100" version="1.1" xmlns="http://www.w3.org/2000/svg" xmlns:xlink="http://www.w3.org/1999/xlink" xml:space="preserve" xmlns:serif="http://www.serif.com/" style="fill-rule:evenodd;clip-rule:evenodd;stroke-linejoin:round;stroke-miterlimit:2;">
    <g transform="matrix(-0.907499,0,0,0.938528,1081.51,142.374)">
        <path d="M589.336,829.216C691.349,827.891 722.169,797.336 726.42,692.132C730.67,586.928 669.036,581.615 614.84,572.051C560.644,562.487 482.006,602.868 486.257,685.756C490.508,768.644 507.51,830.279 589.336,829.216Z"/>
    </g>
    <g transform="matrix(1,0,0,1,822.612,97.5211)">
        <path d="M589.336,829.216C691.349,827.891 722.169,797.336 726.42,692.132C730.67,586.928 669.036,581.615 614.84,572.051C560.644,562.487 482.006,602.868 486.257,685.756C490.508,768.644 507.51,830.279 589.336,829.216Z"/>
    </g>
    <g transform="matrix(0.999983,0.00416799,-0.00833598,0.999983,-53.0305,-29.1379)">
        <path d="M523.897,1321.43C610.858,1377.43 796.494,1419.94 912.835,1318.03C1029.18,1216.13 1218.31,1240.3 1316.52,1334.79C1414.72,1429.28 1607.49,1405.5 1679.67,1320.58C1751.85,1235.66 1831.68,1325.68 1764.59,1368.99C1697.51,1412.3 1642.54,1449.41 1535.81,1453.79C1429.08,1458.16 1367.85,1449.85 1251.06,1375.06C1134.27,1300.26 1056.46,1294.35 962.395,1360.73C868.33,1427.11 837.052,1442.92 747.384,1447.29C657.716,1451.67 549.554,1418.68 473.07,1382.68C396.585,1346.69 462.251,1281.73 523.897,1321.43Z"/>
    </g>
</svg>
