<?xml version="1.0" encoding="UTF-8" standalone="no"?>
<!DOCTYPE svg PUBLIC "-//W3C//DTD SVG 1.1//EN" "http://www.w3.org/Graphics/SVG/1.1/DTD/svg11.dtd">
<svg width="100%" height="100%" viewBox="0 0 2100 2100" version="1.1" xmlns="http://www.w3.org/2000/svg" xmlns:xlink="http://www.w3.org/1999/xlink" xml:space="preserve" xmlns:serif="http://www.serif.com/" style="fill-rule:evenodd;clip-rule:evenodd;stroke-linecap:round;stroke-linejoin:round;stroke-miterlimit:1.5;">
    <g transform="matrix(1,0,0,1,-10.4712,0)">
        <path d="M898.281,1672.09C898.281,1672.09 1042.85,1407.42 1230.18,1646.44C1417.52,1885.46 725.416,1821.06 898.281,1672.09Z" style="fill:rgb(255,1,1);stroke:rgb(255,0,0);stroke-width:1px;"/>
    </g>
    <g transform="matrix(0.964188,-0.265218,0.265218,0.964188,-172.178,152.697)">
        <path d="M428.582,671.9C428.582,671.9 394.271,754.908 486.134,781.47C577.996,808.033 639.975,765.976 645.509,720.598C651.043,675.22 676.499,622.095 618.947,594.425C561.395,566.756 533.725,553.475 501.629,571.183C469.532,588.892 436.329,628.735 428.582,671.9Z" style="stroke:black;stroke-width:1px;"/>
    </g>
    <g transform="matrix(0.964188,-0.265218,0.265218,0.964188,821.811,152.697)">
        <path d="M428.582,671.9C428.582,671.9 394.271,754.908 486.134,781.47C577.996,808.033 639.975,765.976 645.509,720.598C651.043,675.22 676.499,622.095 618.947,594.425C561.395,566.756 533.725,553.475 501.629,571.183C469.532,588.892 436.329,628.735 428.582,671.9Z" style="stroke:black;stroke-width:1px;"/>
    </g>
    <g transform="matrix(1.09541,-0.00013354,-0.000121909,-1,-78.7776,1841.13)">
        <path d="M779.82,801.979C779.82,801.979 713.444,1677.96 1023.78,1675.02C1334.12,1672.08 1283.31,899.282 1285.31,759.184C1287.31,619.085 1195.61,685.733 1194.12,763.107C1192.62,840.993 1226.77,1568.71 1017,1561.18C932.714,1558.16 924.6,1449.25 906.409,1368.22C858.798,1156.16 872.243,871.774 871.351,791.029C870.017,670.278 775.752,728.716 779.82,801.979Z" style="stroke:black;stroke-width:0.95px;"/>
    </g>
    <g transform="matrix(-1.09541,6.17145e-05,5.63392e-05,1,2184.84,243.463)">
        <path d="M779.82,801.979C779.82,801.979 713.444,1677.96 1023.78,1675.02C1334.12,1672.08 1283.31,899.282 1285.31,759.184C1287.31,619.085 1195.61,685.733 1194.12,763.107C1192.62,840.993 1226.77,1568.71 1017,1561.18C932.714,1558.16 924.6,1449.25 906.409,1368.22C858.798,1156.16 872.243,871.774 871.351,791.029C870.017,670.278 775.752,728.716 779.82,801.979Z" style="stroke:black;stroke-width:0.95px;"/>
    </g>
</svg>
