<?xml version="1.0" encoding="UTF-8" standalone="no"?>
<!DOCTYPE svg PUBLIC "-//W3C//DTD SVG 1.1//EN" "http://www.w3.org/Graphics/SVG/1.1/DTD/svg11.dtd">
<svg width="100%" height="100%" viewBox="0 0 2100 2100" version="1.1" xmlns="http://www.w3.org/2000/svg" xmlns:xlink="http://www.w3.org/1999/xlink" xml:space="preserve" xmlns:serif="http://www.serif.com/" style="fill-rule:evenodd;clip-rule:evenodd;stroke-linecap:round;stroke-linejoin:round;stroke-miterlimit:1.5;">
    <g transform="matrix(0.964188,-0.265218,0.265218,0.964188,1066.54,195.803)">
        <path d="M428.582,671.9C428.582,671.9 394.271,754.908 486.134,781.47C577.996,808.033 639.975,765.976 645.509,720.598C651.043,675.22 676.499,622.095 618.947,594.425C561.395,566.756 533.725,553.475 501.629,571.183C469.532,588.892 436.329,628.735 428.582,671.9Z" style="stroke:black;stroke-width:1px;"/>
    </g>
    <g transform="matrix(1,0,0,1,20.0751,-71.2701)">
        <path d="M364.671,1208.67C364.671,1208.67 654.26,1398.55 846.933,1445.43C1051.42,1495.18 1217.23,1492.8 1355.7,1451.89C1494.18,1410.97 1593.48,1327.19 1673.21,1202.36C1752.93,1077.52 1892.46,1137.32 1805.39,1263.2C1718.32,1389.09 1448.72,1524.11 1326.16,1557.68C1203.61,1591.25 1053.6,1574.46 875.257,1541.94C696.92,1509.42 559.122,1440.49 339.872,1312.51C120.622,1184.52 271.693,1131.25 364.671,1208.67Z" style="stroke:black;stroke-width:1px;"/>
    </g>
    <g transform="matrix(-0.99989,0.0148112,-0.0148112,-0.99989,2097.71,2292.39)">
        <path d="M364.671,1208.67C364.671,1208.67 654.26,1398.55 846.933,1445.43C1051.42,1495.18 1217.23,1492.8 1355.7,1451.89C1494.18,1410.97 1593.48,1327.19 1673.21,1202.36C1752.93,1077.52 1892.46,1137.32 1805.39,1263.2C1718.32,1389.09 1448.72,1524.11 1326.16,1557.68C1203.61,1591.25 1053.6,1574.46 875.257,1541.94C696.92,1509.42 559.122,1440.49 339.872,1312.51C120.622,1184.52 271.693,1131.25 364.671,1208.67Z" style="stroke:black;stroke-width:1px;"/>
    </g>
    <g transform="matrix(0.964188,-0.265218,0.265218,0.964188,-343.693,195.803)">
        <path d="M428.582,671.9C428.582,671.9 394.271,754.908 486.134,781.47C577.996,808.033 639.975,765.976 645.509,720.598C651.043,675.22 676.499,622.095 618.947,594.425C561.395,566.756 533.725,553.475 501.629,571.183C469.532,588.892 436.329,628.735 428.582,671.9Z" style="stroke:black;stroke-width:1px;"/>
    </g>
</svg>
