<?xml version="1.0" encoding="UTF-8" standalone="no"?>
<!DOCTYPE svg PUBLIC "-//W3C//DTD SVG 1.1//EN" "http://www.w3.org/Graphics/SVG/1.1/DTD/svg11.dtd">
<svg width="100%" height="100%" viewBox="0 0 2100 2100" version="1.1" xmlns="http://www.w3.org/2000/svg" xmlns:xlink="http://www.w3.org/1999/xlink" xml:space="preserve" xmlns:serif="http://www.serif.com/" style="fill-rule:evenodd;clip-rule:evenodd;stroke-linejoin:round;stroke-miterlimit:2;">
    <g transform="matrix(-1,0.000595904,-0.00119181,-1,2041.25,2641.04)">
        <path d="M1050,1410.57C1217.86,1405.27 1566.39,1409.74 1665.22,1248.21C1764.05,1086.68 1861.81,1221.64 1783.17,1293.9C1704.54,1366.16 1612.79,1498.07 1050,1502.32C487.212,1506.57 285.306,1403.49 200.293,1271.72C115.279,1139.95 211.982,1116.57 304.434,1215.4C396.886,1314.23 573.845,1425.6 1050,1410.57Z"/>
    </g>
    <g transform="matrix(-0.907499,0,0,0.938528,1137.98,87.0651)">
        <path d="M589.336,829.216C691.349,827.891 722.169,797.336 726.42,692.132C730.67,586.928 669.036,581.615 614.84,572.051C560.644,562.487 482.006,602.868 486.257,685.756C490.508,768.644 507.51,830.279 589.336,829.216Z"/>
    </g>
    <g transform="matrix(1,0,0,1,879.083,42.2118)">
        <path d="M589.336,829.216C691.349,827.891 722.169,797.336 726.42,692.132C730.67,586.928 669.036,581.615 614.84,572.051C560.644,562.487 482.006,602.868 486.257,685.756C490.508,768.644 507.51,830.279 589.336,829.216Z"/>
    </g>
</svg>
