<?xml version="1.0" encoding="UTF-8" standalone="no"?>
<svg width="100%" height="100%" viewBox="0 0 2100 2100" version="1.1" xmlns="http://www.w3.org/2000/svg" xmlns:xlink="http://www.w3.org/1999/xlink" xml:space="preserve" xmlns:serif="http://www.serif.com/" style="fill-rule:evenodd;clip-rule:evenodd;stroke-linejoin:round;stroke-miterlimit:2;">
    <g transform="matrix(-0.907499,0,0,0.938528,1144.64,200.835)">
        <path d="M589.336,829.216C691.349,827.891 722.169,797.336 726.42,692.132C730.67,586.928 669.036,581.615 614.84,572.051C560.644,562.487 482.006,602.868 486.257,685.756C490.508,768.644 507.51,830.279 589.336,829.216Z"/>
    </g>
    <g transform="matrix(1,0,0,1,885.74,155.982)">
        <path d="M589.336,829.216C691.349,827.891 722.169,797.336 726.42,692.132C730.67,586.928 669.036,581.615 614.84,572.051C560.644,562.487 482.006,602.868 486.257,685.756C490.508,768.644 507.51,830.279 589.336,829.216Z"/>
    </g>
    <g transform="matrix(1,0,0,1,63.1277,58.4605)">
        <path d="M1309.44,900.743C1309.44,900.743 1404.58,1000.83 1550.78,899.749C1696.98,798.673 1583.87,919.002 1524.91,941.865C1465.95,964.727 1360.56,984.626 1278.49,905.187C1196.41,825.747 1288.9,879.476 1309.44,900.743Z"/>
    </g>
    <g transform="matrix(1,0,0,1,-830.705,50.9709)">
        <path d="M1309.44,900.743C1309.44,900.743 1404.58,1000.83 1550.78,899.749C1696.98,798.673 1583.87,919.002 1524.91,941.865C1465.95,964.727 1360.56,984.626 1278.49,905.187C1196.41,825.747 1288.9,879.476 1309.44,900.743Z"/>
    </g>
    <g transform="matrix(1,0,0,1,63.1277,58.4605)">
        <path d="M623.843,541.573C711.646,544.619 931.054,557.903 980.363,552.114C1029.67,546.326 1229.26,524.466 1311,524.466C1392.73,524.466 1383.47,500.803 1309.6,503.725C1235.72,506.646 1053.5,527.081 975.872,532.507C898.242,537.933 693.987,531.518 624.704,522.335C555.421,513.153 564.031,539.499 623.843,541.573Z"/>
    </g>
    <g transform="matrix(0.857929,0,0,0.764728,191.465,129.129)">
        <path d="M623.843,541.573C711.646,544.619 931.054,557.903 980.363,552.114C1029.67,546.326 1229.26,524.466 1311,524.466C1392.73,524.466 1383.47,500.803 1309.6,503.725C1235.72,506.646 1053.5,527.081 975.872,532.507C898.242,537.933 693.987,531.518 624.704,522.335C555.421,513.153 564.031,539.499 623.843,541.573Z"/>
    </g>
    <g transform="matrix(0.999823,-0.0132902,0.0265804,0.999823,26.3595,71.876)">
        <path d="M973.321,1454.18C1069.53,1456.62 1336.03,1464.36 1411.97,1387.66C1487.91,1310.97 1418.88,1311.5 1354.33,1348.14C1294.7,1382.01 1076.02,1392.25 971.505,1388.49C866.995,1384.73 675.813,1364.93 601.377,1370.94C526.942,1376.96 502.855,1430.52 604.358,1437.29C705.861,1444.06 905.862,1452.47 973.321,1454.18Z"/>
    </g>
    <g transform="matrix(1,0,0,1,84.3872,58.7819)">
        <path d="M617.138,1508.62C617.117,1488.6 612.38,1436.49 612.38,1436.49C612.38,1436.49 680.399,1428.97 683.958,1448.75C687.517,1468.52 688.308,1490.66 689.889,1504.51C691.471,1518.35 686.33,1527.05 657.858,1527.05C630.245,1527.05 617.137,1528.16 617.133,1514.16L634.458,1511.4C638.261,1510.72 642.07,1510.08 645.867,1509.37C659.863,1506.74 636.445,1507.95 635.481,1507.98L617.138,1508.62Z"/>
    </g>
</svg>
