<?xml version="1.0" encoding="UTF-8" standalone="no"?>
<!DOCTYPE svg PUBLIC "-//W3C//DTD SVG 1.1//EN" "http://www.w3.org/Graphics/SVG/1.1/DTD/svg11.dtd">
<svg width="100%" height="100%" viewBox="0 0 2100 2100" version="1.1" xmlns="http://www.w3.org/2000/svg" xmlns:xlink="http://www.w3.org/1999/xlink" xml:space="preserve" xmlns:serif="http://www.serif.com/" style="fill-rule:evenodd;clip-rule:evenodd;stroke-linecap:round;stroke-linejoin:round;stroke-miterlimit:1.5;">
    <g transform="matrix(0.964188,-0.265218,0.265218,0.964188,-61.2795,279.852)">
        <path d="M428.582,671.9C428.582,671.9 394.271,754.908 486.134,781.47C577.996,808.033 639.975,765.976 645.509,720.598C651.043,675.22 676.499,622.095 618.947,594.425C561.395,566.756 533.725,553.475 501.629,571.183C469.532,588.892 436.329,628.735 428.582,671.9Z" style="stroke:black;stroke-width:1px;"/>
    </g>
    <g transform="matrix(0.964188,-0.265218,0.265218,0.964188,756.205,279.852)">
        <path d="M428.582,671.9C428.582,671.9 394.271,754.908 486.134,781.47C577.996,808.033 639.975,765.976 645.509,720.598C651.043,675.22 676.499,622.095 618.947,594.425C561.395,566.756 533.725,553.475 501.629,571.183C469.532,588.892 436.329,628.735 428.582,671.9Z" style="stroke:black;stroke-width:1px;"/>
    </g>
    <g transform="matrix(1,-0.00054408,0.00054408,1,19.4245,10.6184)">
        <path d="M364.671,1208.67C364.671,1208.67 654.26,1398.55 846.933,1445.43C1051.42,1495.18 1217.23,1492.8 1355.7,1451.89C1494.18,1410.97 1593.48,1327.19 1673.21,1202.36C1752.93,1077.52 1892.46,1137.32 1805.39,1263.2C1718.32,1389.09 1448.72,1524.11 1326.16,1557.68C1203.61,1591.25 1053.6,1574.46 875.257,1541.94C696.92,1509.42 559.122,1440.49 339.872,1312.51C120.622,1184.52 271.693,1131.25 364.671,1208.67Z" style="stroke:black;stroke-width:1px;"/>
    </g>
    <g transform="matrix(0.933391,0,0,1,-47.6452,-595.326)">
        <path d="M752.839,1217.53C752.839,1217.53 1008.14,1228.12 1112.14,1226.2C1216.14,1224.27 1442.08,1206.94 1570.32,1212.72C1698.57,1218.49 1808.35,1215.61 1859.38,1210.79C1910.42,1205.98 1996.12,1309.01 1861.31,1316.71C1726.5,1324.42 1534.87,1306.12 1433.76,1320.57C1332.65,1335.01 943.627,1332.12 842.518,1330.19C741.409,1328.27 588.302,1341.75 482.379,1337.9C376.456,1334.05 377.419,1223.31 483.342,1223.31C589.265,1223.31 689.16,1220.42 752.839,1217.53Z" style="stroke:black;stroke-width:1.03px;"/>
    </g>
</svg>
