<?xml version="1.0" encoding="UTF-8" standalone="no"?>
<svg width="100%" height="100%" viewBox="0 0 2100 2100" version="1.1" xmlns="http://www.w3.org/2000/svg" xmlns:xlink="http://www.w3.org/1999/xlink" xml:space="preserve" xmlns:serif="http://www.serif.com/" style="fill-rule:evenodd;clip-rule:evenodd;stroke-linejoin:round;stroke-miterlimit:2;">
    <g transform="matrix(-0.907499,0,0,0.938528,1164.14,224.546)">
        <path d="M589.336,829.216C691.349,827.891 722.169,797.336 726.42,692.132C730.67,586.928 669.036,581.615 614.84,572.051C560.644,562.487 482.006,602.868 486.257,685.756C490.508,768.644 507.51,830.279 589.336,829.216Z"/>
    </g>
    <g transform="matrix(1,0,0,1,905.238,179.692)">
        <path d="M589.336,829.216C691.349,827.891 722.169,797.336 726.42,692.132C730.67,586.928 669.036,581.615 614.84,572.051C560.644,562.487 482.006,602.868 486.257,685.756C490.508,768.644 507.51,830.279 589.336,829.216Z"/>
    </g>
    <g transform="matrix(0.843989,0.594363,-1.21196,0.860486,973.873,-705.034)">
        <path d="M1309.11,655.199C1342.43,633.739 1486.96,530.331 1543.88,491.244C1600.8,452.156 1561.71,421.983 1517.14,452.842C1472.56,483.7 1329.69,582.308 1293.12,607.408C1256.55,632.508 1264.29,684.061 1309.11,655.199Z"/>
    </g>
    <g transform="matrix(-0.907936,0.599833,1.12739,0.85324,1263.88,-719.379)">
        <path d="M1309.11,655.199C1342.43,633.739 1486.96,530.331 1543.88,491.244C1600.8,452.156 1561.71,421.983 1517.14,452.842C1472.56,483.7 1329.69,582.308 1293.12,607.408C1256.55,632.508 1264.29,684.061 1309.11,655.199Z"/>
    </g>
    <g transform="matrix(-0.998595,0.0374701,-0.0749402,-0.998595,2154.78,2845.78)">
        <path d="M495.865,1611.41C548.558,1566.81 638.556,1467.95 797.725,1467.51C956.894,1467.08 1471.86,1490.6 1537.42,1492.4C1602.98,1494.2 1662.17,1389.02 1541.72,1380.87C1421.27,1372.71 881.897,1361.44 794.675,1363.51C707.453,1365.59 530.651,1420.89 455.443,1529.57C380.234,1638.25 448.336,1651.64 495.865,1611.41Z"/>
    </g>
</svg>
