<?xml version="1.0" encoding="UTF-8" standalone="no"?>
<!DOCTYPE svg PUBLIC "-//W3C//DTD SVG 1.1//EN" "http://www.w3.org/Graphics/SVG/1.1/DTD/svg11.dtd">
<svg width="100%" height="100%" viewBox="0 0 2100 2100" version="1.1" xmlns="http://www.w3.org/2000/svg" xmlns:xlink="http://www.w3.org/1999/xlink" xml:space="preserve" xmlns:serif="http://www.serif.com/" style="fill-rule:evenodd;clip-rule:evenodd;stroke-linejoin:round;stroke-miterlimit:2;">
    <g transform="matrix(-0.907499,0,0,0.938528,1164.14,224.546)">
        <path d="M589.336,829.216C691.349,827.891 722.169,797.336 726.42,692.132C730.67,586.928 669.036,581.615 614.84,572.051C560.644,562.487 482.006,602.868 486.257,685.756C490.508,768.644 507.51,830.279 589.336,829.216Z"/>
    </g>
    <g transform="matrix(1,0,0,1,905.238,179.692)">
        <path d="M589.336,829.216C691.349,827.891 722.169,797.336 726.42,692.132C730.67,586.928 669.036,581.615 614.84,572.051C560.644,562.487 482.006,602.868 486.257,685.756C490.508,768.644 507.51,830.279 589.336,829.216Z"/>
    </g>
    <g transform="matrix(0.843989,0.594363,-1.21196,0.860486,985.836,-541.878)">
        <path d="M1309.11,655.199C1342.43,633.739 1486.96,530.331 1543.88,491.244C1600.8,452.156 1561.71,421.983 1517.14,452.842C1472.56,483.7 1329.69,582.308 1293.12,607.408C1256.55,632.508 1264.29,684.061 1309.11,655.199Z"/>
    </g>
    <g transform="matrix(-0.907936,0.599833,1.12739,0.85324,1284.61,-538.8)">
        <path d="M1309.11,655.199C1342.43,633.739 1486.96,530.331 1543.88,491.244C1600.8,452.156 1561.71,421.983 1517.14,452.842C1472.56,483.7 1329.69,582.308 1293.12,607.408C1256.55,632.508 1264.29,684.061 1309.11,655.199Z"/>
    </g>
    <g transform="matrix(0.999719,0.0167533,-0.0335067,0.999719,88.9578,-4.51772)">
        <path d="M1590.82,1242.78C1677.66,1244.75 1733.46,1346.37 1601.18,1348.76C1468.91,1351.15 497.017,1358.69 406.177,1357.89C315.338,1357.1 295.417,1257.49 402.193,1254.3C508.969,1251.12 1572.17,1242.36 1590.82,1242.78Z"/>
    </g>
</svg>
