<?xml version="1.0" encoding="UTF-8" standalone="no"?>
<!DOCTYPE svg PUBLIC "-//W3C//DTD SVG 1.1//EN" "http://www.w3.org/Graphics/SVG/1.1/DTD/svg11.dtd">
<svg width="100%" height="100%" viewBox="0 0 2100 2100" version="1.1" xmlns="http://www.w3.org/2000/svg" xmlns:xlink="http://www.w3.org/1999/xlink" xml:space="preserve" xmlns:serif="http://www.serif.com/" style="fill-rule:evenodd;clip-rule:evenodd;stroke-linecap:round;stroke-linejoin:round;stroke-miterlimit:1.5;">
    <g transform="matrix(0.964188,-0.265218,0.265218,0.964188,-61.2795,279.852)">
        <path d="M428.582,671.9C428.582,671.9 394.271,754.908 486.134,781.47C577.996,808.033 639.975,765.976 645.509,720.598C651.043,675.22 676.499,622.095 618.947,594.425C561.395,566.756 533.725,553.475 501.629,571.183C469.532,588.892 436.329,628.735 428.582,671.9Z" style="stroke:black;stroke-width:1px;"/>
    </g>
    <g transform="matrix(0.964188,-0.265218,0.265218,0.964188,756.205,279.852)">
        <path d="M428.582,671.9C428.582,671.9 394.271,754.908 486.134,781.47C577.996,808.033 639.975,765.976 645.509,720.598C651.043,675.22 676.499,622.095 618.947,594.425C561.395,566.756 533.725,553.475 501.629,571.183C469.532,588.892 436.329,628.735 428.582,671.9Z" style="stroke:black;stroke-width:1px;"/>
    </g>
    <g transform="matrix(0.933391,0,0,1,-40.6604,78.0294)">
        <path d="M752.839,1217.53C752.839,1217.53 1008.14,1228.12 1112.14,1226.2C1216.14,1224.27 1442.08,1206.94 1570.32,1212.72C1698.57,1218.49 1808.35,1215.61 1859.38,1210.79C1910.42,1205.98 1996.12,1309.01 1861.31,1316.71C1726.5,1324.42 1534.87,1306.12 1433.76,1320.57C1332.65,1335.01 943.627,1332.12 842.518,1330.19C741.409,1328.27 588.302,1341.75 482.379,1337.9C376.456,1334.05 377.419,1223.31 483.342,1223.31C589.265,1223.31 689.16,1220.42 752.839,1217.53Z" style="stroke:black;stroke-width:1.03px;"/>
    </g>
    <g transform="matrix(0.674154,0.738591,-0.738591,0.674154,1020.23,-872.329)">
        <path d="M1364.2,630.122C1324.17,681.697 1314.38,696.314 1263.2,748.177C1212.03,800.039 1134.67,765.288 1181.76,704.555C1228.84,643.822 1248.63,636.811 1292.31,578.125C1335.98,519.439 1341.22,520.069 1376.17,480.74C1426.33,424.302 1441.15,456.851 1458.74,462.024C1482.29,468.947 1494.29,485.783 1458.74,527.573C1396.63,600.589 1389.77,597.176 1364.2,630.122Z" style="stroke:black;stroke-width:1px;"/>
    </g>
    <g transform="matrix(0.674154,0.738591,-0.738591,0.674154,202.745,-709.932)">
        <path d="M1364.2,630.122C1324.17,681.697 1314.38,696.314 1263.2,748.177C1212.03,800.039 1134.67,765.288 1181.76,704.555C1228.84,643.822 1248.63,636.811 1292.31,578.125C1335.98,519.439 1341.22,520.069 1376.17,480.74C1426.33,424.302 1441.15,456.851 1458.74,462.024C1482.29,468.947 1494.29,485.783 1458.74,527.573C1396.63,600.589 1389.77,597.176 1364.2,630.122Z" style="stroke:black;stroke-width:1px;"/>
    </g>
</svg>
