<?xml version="1.0" encoding="UTF-8" standalone="no"?>
<!DOCTYPE svg PUBLIC "-//W3C//DTD SVG 1.1//EN" "http://www.w3.org/Graphics/SVG/1.1/DTD/svg11.dtd">
<svg width="100%" height="100%" viewBox="0 0 2100 2100" version="1.1" xmlns="http://www.w3.org/2000/svg" xmlns:xlink="http://www.w3.org/1999/xlink" xml:space="preserve" xmlns:serif="http://www.serif.com/" style="fill-rule:evenodd;clip-rule:evenodd;stroke-linejoin:round;stroke-miterlimit:2;">
    <g transform="matrix(-0.907499,0,0,0.938528,1145.84,220.294)">
        <path d="M589.336,829.216C691.349,827.891 722.169,797.336 726.42,692.132C730.67,586.928 669.036,581.615 614.84,572.051C560.644,562.487 482.006,602.868 486.257,685.756C490.508,768.644 507.51,830.279 589.336,829.216Z"/>
    </g>
    <g transform="matrix(1,0,0,1,886.944,175.441)">
        <path d="M589.336,829.216C691.349,827.891 722.169,797.336 726.42,692.132C730.67,586.928 669.036,581.615 614.84,572.051C560.644,562.487 482.006,602.868 486.257,685.756C490.508,768.644 507.51,830.279 589.336,829.216Z"/>
    </g>
    <g transform="matrix(1,0,0,1,51.7245,-19.0464)">
        <path d="M914.938,1256.91C931.663,1284.58 1002.14,1407.62 1088.11,1266.89C1135.37,1189.52 1147.25,1253.1 1129.36,1278.54C1094.06,1328.76 1002.32,1466.23 878.073,1272.81C840.217,1213.88 889.064,1214.11 914.938,1256.91Z"/>
    </g>
</svg>
