<?xml version="1.0" encoding="UTF-8" standalone="no"?>
<!DOCTYPE svg PUBLIC "-//W3C//DTD SVG 1.1//EN" "http://www.w3.org/Graphics/SVG/1.1/DTD/svg11.dtd">
<svg width="100%" height="100%" viewBox="0 0 2100 2100" version="1.1" xmlns="http://www.w3.org/2000/svg" xmlns:xlink="http://www.w3.org/1999/xlink" xml:space="preserve" xmlns:serif="http://www.serif.com/" style="fill-rule:evenodd;clip-rule:evenodd;stroke-linejoin:round;stroke-miterlimit:2;">
    <g transform="matrix(-0.907499,0,0,0.938528,1159.5,130.344)">
        <path d="M589.336,829.216C691.349,827.891 722.169,797.336 726.42,692.132C730.67,586.928 669.036,581.615 614.84,572.051C560.644,562.487 482.006,602.868 486.257,685.756C490.508,768.644 507.51,830.279 589.336,829.216Z"/>
    </g>
    <g transform="matrix(1,0,0,1,900.603,85.4905)">
        <path d="M589.336,829.216C691.349,827.891 722.169,797.336 726.42,692.132C730.67,586.928 669.036,581.615 614.84,572.051C560.644,562.487 482.006,602.868 486.257,685.756C490.508,768.644 507.51,830.279 589.336,829.216Z"/>
    </g>
    <g transform="matrix(0.881267,0.566666,-1.15548,0.898493,931.362,-772.741)">
        <path d="M1309.11,655.199C1342.43,633.739 1486.96,530.331 1543.88,491.244C1600.8,452.156 1561.71,421.983 1517.14,452.842C1472.56,483.7 1329.69,582.308 1293.12,607.408C1256.55,632.508 1264.29,684.061 1309.11,655.199Z"/>
    </g>
    <g transform="matrix(-0.85613,0.636784,1.19685,0.804555,1110.88,-717.388)">
        <path d="M1309.11,655.199C1342.43,633.739 1486.96,530.331 1543.88,491.244C1600.8,452.156 1561.71,421.983 1517.14,452.842C1472.56,483.7 1329.69,582.308 1293.12,607.408C1256.55,632.508 1264.29,684.061 1309.11,655.199Z"/>
    </g>
    <g transform="matrix(0.944459,-0.232376,0.464751,0.944459,-515.027,219.548)">
        <path d="M734.595,1327.66C747.188,1269.54 814.237,1231.02 812.114,1319.69C809.99,1408.36 795.123,1463.05 858.837,1461.46C922.551,1459.86 1147.29,1465.63 1181.27,1466.7C1215.25,1467.76 1242.86,1521.77 1182.33,1520.71C1121.8,1519.65 933.394,1517.02 911.932,1517.74C890.647,1518.45 1007.3,1521.03 1044.69,1521.63C1082.08,1522.25 1103.62,1572.89 1048.2,1570.9C992.778,1568.9 927.895,1568.16 908.293,1568.53C881.017,1569.03 1012.73,1573.96 1039.85,1573.39C1066.97,1572.82 1095.71,1623.82 1041.28,1623.15C986.854,1622.49 940.723,1620.39 908.863,1619.73C877.004,1619.07 998.294,1628.28 1029.92,1628.7C1061.55,1629.12 1084.07,1672.84 1032.3,1673.84C980.525,1674.83 914.936,1673.25 861.837,1672.26C808.737,1671.26 733.403,1666.95 722.783,1552.12C712.163,1437.29 730.809,1345.13 734.595,1327.66Z"/>
    </g>
    <g transform="matrix(1,0,0,1,13.6594,-89.9504)">
        <path d="M864.582,1358.58C856.95,1359.85 885.201,1410.88 891.17,1421.46C898.907,1435.18 1086.1,1425.33 1127.74,1426.22C1169.39,1427.11 1169.09,1426.81 1184.75,1425.92C1200.4,1425.04 1238.12,1417.05 1263.52,1411.44C1288.92,1405.83 1299.49,1414.48 1312.93,1422.38C1325.87,1429.99 1344.24,1426.22 1413.35,1425.04C1482.46,1423.86 1477.24,1352.22 1409.82,1351.82C1342.4,1351.41 872.01,1357.35 864.582,1358.58Z"/>
    </g>
    <g transform="matrix(1,0,0,1,10.5196,-91.9924)">
        <path d="M770.568,1358.55C770.568,1358.55 769.528,1378.76 773.438,1392.99C777.488,1407.73 777.842,1411.52 781.857,1420.17C785.871,1428.83 663.798,1424.31 605.82,1425.08C547.842,1425.85 559.386,1366.08 601.716,1365.56C644.045,1365.05 762.397,1358.31 770.568,1358.55Z"/>
    </g>
</svg>
