<?xml version="1.0" encoding="UTF-8" standalone="no"?>
<!DOCTYPE svg PUBLIC "-//W3C//DTD SVG 1.1//EN" "http://www.w3.org/Graphics/SVG/1.1/DTD/svg11.dtd">
<svg width="100%" height="100%" viewBox="0 0 2100 2100" version="1.1" xmlns="http://www.w3.org/2000/svg" xmlns:xlink="http://www.w3.org/1999/xlink" xml:space="preserve" xmlns:serif="http://www.serif.com/" style="fill-rule:evenodd;clip-rule:evenodd;stroke-linecap:round;stroke-linejoin:round;stroke-miterlimit:1.5;">
    <g transform="matrix(1,0.000269741,-0.000269741,1,20.5269,9.78009)">
        <path d="M364.671,1208.67C364.671,1208.67 654.26,1398.55 846.933,1445.43C1051.42,1495.18 1217.23,1492.8 1355.7,1451.89C1494.18,1410.97 1593.48,1327.19 1673.21,1202.36C1752.93,1077.52 1892.46,1137.32 1805.39,1263.2C1718.32,1389.09 1448.72,1524.11 1326.16,1557.68C1203.61,1591.25 1053.6,1574.46 875.257,1541.94C696.92,1509.42 559.122,1440.49 339.872,1312.51C120.622,1184.52 271.693,1131.25 364.671,1208.67Z" style="stroke:black;stroke-width:1px;"/>
    </g>
    <g transform="matrix(-0.766052,0.642778,-0.642778,-0.766052,2857.74,296.489)">
        <path d="M1364.2,630.122C1324.17,681.697 1314.38,696.314 1263.2,748.177C1212.03,800.039 1134.67,765.288 1181.76,704.555C1228.84,643.822 1248.63,636.811 1292.31,578.125C1335.98,519.439 1341.22,520.069 1376.17,480.74C1426.33,424.302 1441.15,456.851 1458.74,462.024C1482.29,468.947 1494.29,485.783 1458.74,527.573C1396.63,600.589 1389.77,597.176 1364.2,630.122Z" style="stroke:black;stroke-width:1px;"/>
    </g>
    <g transform="matrix(-0.730989,0.682389,-0.682389,-0.730989,2029.02,222.625)">
        <path d="M1364.2,630.122C1324.17,681.697 1314.38,696.314 1263.2,748.177C1212.03,800.039 1134.67,765.288 1181.76,704.555C1228.84,643.822 1248.63,636.811 1292.31,578.125C1335.98,519.439 1341.22,520.069 1376.17,480.74C1426.33,424.302 1441.15,456.851 1458.74,462.024C1482.29,468.947 1494.29,485.783 1458.74,527.573C1396.63,600.589 1389.77,597.176 1364.2,630.122Z" style="stroke:black;stroke-width:1px;"/>
    </g>
</svg>
