<?xml version="1.0" encoding="UTF-8" standalone="no"?>
<svg width="100%" height="100%" viewBox="0 0 2100 2100" version="1.1" xmlns="http://www.w3.org/2000/svg" xmlns:xlink="http://www.w3.org/1999/xlink" xml:space="preserve" xmlns:serif="http://www.serif.com/" style="fill-rule:evenodd;clip-rule:evenodd;stroke-linejoin:round;stroke-miterlimit:2;">
    <g transform="matrix(-0.907499,0,0,0.938528,1145.84,166.892)">
        <path d="M589.336,829.216C691.349,827.891 722.169,797.336 726.42,692.132C730.67,586.928 669.036,581.615 614.84,572.051C560.644,562.487 482.006,602.868 486.257,685.756C490.508,768.644 507.51,830.279 589.336,829.216Z"/>
    </g>
    <g transform="matrix(1,0,0,1,886.944,122.039)">
        <path d="M589.336,829.216C691.349,827.891 722.169,797.336 726.42,692.132C730.67,586.928 669.036,581.615 614.84,572.051C560.644,562.487 482.006,602.868 486.257,685.756C490.508,768.644 507.51,830.279 589.336,829.216Z"/>
    </g>
    <g transform="matrix(1.00354,-0.709613,1.1891,0.840818,-341.843,-554.656)">
        <path d="M-582.749,1512.42C-496.895,1512.42 -427.192,1574.44 -427.192,1650.83C-427.192,1727.22 -496.895,1789.24 -582.749,1789.24C-668.603,1789.24 -738.306,1727.22 -738.306,1650.83C-738.306,1574.44 -668.603,1512.42 -582.749,1512.42ZM-582.749,1564.63C-529.277,1564.63 -485.865,1603.26 -485.865,1650.83C-485.865,1698.41 -529.277,1737.04 -582.749,1737.04C-636.221,1737.04 -679.633,1698.41 -679.633,1650.83C-679.633,1603.26 -636.221,1564.63 -582.749,1564.63Z"/>
    </g>
</svg>
