<?xml version="1.0" encoding="UTF-8" standalone="no"?>
<!DOCTYPE svg PUBLIC "-//W3C//DTD SVG 1.1//EN" "http://www.w3.org/Graphics/SVG/1.1/DTD/svg11.dtd">
<svg width="100%" height="100%" viewBox="0 0 2100 2100" version="1.1" xmlns="http://www.w3.org/2000/svg" xmlns:xlink="http://www.w3.org/1999/xlink" xml:space="preserve" xmlns:serif="http://www.serif.com/" style="fill-rule:evenodd;clip-rule:evenodd;stroke-linecap:round;stroke-linejoin:round;stroke-miterlimit:1.5;">
    <g transform="matrix(1,0,0,1,-27.6784,121.655)">
        <path d="M164.402,742.944C174.143,844.267 156.95,909.081 264.033,911.421C371.116,913.761 399.195,910.251 469.394,909.081C539.593,907.911 557.142,912.591 558.312,986.299C559.482,1060.01 573.093,1095.45 562.563,1169.16C552.033,1242.87 568.413,1310.72 568.413,1384.43C568.413,1458.14 667.861,1465.16 662.011,1361.03C656.161,1256.9 647.971,1189.05 651.481,1120.02C654.991,1050.99 660.841,809.973 646.801,673.086C632.762,536.199 644.461,516.309 643.291,482.38C642.121,448.451 553.203,366.552 549.693,488.23C546.183,609.907 547.353,633.307 549.693,678.936C552.033,724.565 568.413,816.993 456.095,818.163C343.777,819.333 337.928,819.333 286.449,820.503C234.97,821.673 256.029,731.585 250.179,692.976C244.329,654.366 252.519,538.539 247.839,477.7C243.159,416.861 148.391,385.272 149.561,482.38C150.731,579.488 158.183,678.255 164.402,742.944Z" style="fill:white;"/>
    </g>
    <g transform="matrix(1,0,0,1,1315.87,121.655)">
        <path d="M190.488,739.684C183.925,854.05 228.688,904.733 335.771,907.073C442.854,909.413 399.195,910.251 469.394,909.081C539.593,907.911 552.794,935.417 553.964,1009.12C555.134,1082.83 573.093,1095.45 562.563,1169.16C552.033,1242.87 568.413,1310.72 568.413,1384.43C568.413,1458.14 667.861,1465.16 662.011,1361.03C656.161,1256.9 647.971,1189.05 651.481,1120.02C654.991,1050.99 660.841,809.973 646.801,673.086C632.762,536.199 644.461,516.309 643.291,482.38C642.121,448.451 507.551,377.422 536.65,518.664C561.212,637.889 547.353,633.307 549.693,678.936C552.033,724.565 568.413,816.993 456.095,818.163C343.777,819.333 377.058,817.159 325.579,818.329C274.1,819.499 282.116,728.324 276.266,689.715C270.416,651.106 278.606,535.278 273.926,474.439C269.246,413.601 174.478,382.011 175.648,479.119C176.818,576.227 194.212,674.803 190.488,739.684Z" style="fill:white;"/>
        <g transform="matrix(0.247029,-0.0679499,0.0679499,0.247029,-559.779,769.956)">
            <path d="M428.582,671.9C428.582,671.9 394.271,754.908 486.134,781.47C577.996,808.033 639.975,765.976 645.509,720.598C651.043,675.22 676.499,622.095 618.947,594.425C561.395,566.756 533.725,553.475 501.629,571.183C469.532,588.892 436.329,628.735 428.582,671.9Z" style="fill:white;stroke:black;stroke-width:1px;"/>
        </g>
        <g transform="matrix(0.247029,-0.0679499,0.0679499,0.247029,-262.339,769.956)">
            <path d="M428.582,671.9C428.582,671.9 394.271,754.908 486.134,781.47C577.996,808.033 639.975,765.976 645.509,720.598C651.043,675.22 676.499,622.095 618.947,594.425C561.395,566.756 533.725,553.475 501.629,571.183C469.532,588.892 436.329,628.735 428.582,671.9Z" style="fill:white;stroke:black;stroke-width:1px;"/>
        </g>
        <g transform="matrix(0.280648,6.38217e-05,5.28409e-05,-0.232361,-520.106,1211.08)">
            <path d="M787.59,825.474C787.59,825.474 713.444,1677.96 1023.78,1675.02C1334.12,1672.08 1289.2,969.704 1291.2,829.605C1293.2,689.507 1201.5,756.155 1200.02,833.528C1198.52,911.415 1226.77,1568.71 1017,1561.18C932.714,1558.16 924.6,1449.25 906.409,1368.22C858.798,1156.16 880.014,895.269 879.121,814.524C877.787,693.772 783.522,752.211 787.59,825.474Z" style="fill:white;stroke:black;stroke-width:0.95px;"/>
        </g>
    </g>
    <g transform="matrix(1,0,0,1,-27.6784,121.655)">
        <path d="M1023.96,428.741C932.581,444.571 844.549,538.447 820.171,641.38C795.792,744.313 791.728,790.926 802.563,900.349C813.398,1009.77 797.146,1137.09 836.423,1225.12C875.7,1313.15 975.925,1432.34 1105.95,1439.11C1235.97,1445.88 1353.8,1375.46 1374.11,1276.59C1394.43,1177.72 1441.83,1043.63 1424.23,933.927C1406.62,824.222 1427.57,649.741 1339.54,550.871C1251.5,452.001 1197.32,398.71 1023.96,428.741ZM1008.12,520.024C939.506,544.974 888.729,630.972 885.111,737.096C881.493,843.219 901.994,861.309 905.612,983.11C909.23,1104.91 877.875,1188.12 981.587,1280.98C1085.3,1373.84 1203.48,1371.43 1267.4,1274.95C1331.31,1178.47 1337.34,1062.7 1346.99,993.963C1356.64,925.224 1295.13,773.274 1292.72,691.269C1290.31,609.265 1180.57,457.315 1008.12,520.024Z" style="fill:white;"/>
    </g>
</svg>
