<?xml version="1.0" encoding="UTF-8" standalone="no"?>
<!DOCTYPE svg PUBLIC "-//W3C//DTD SVG 1.1//EN" "http://www.w3.org/Graphics/SVG/1.1/DTD/svg11.dtd">
<svg width="100%" height="100%" viewBox="0 0 2100 2100" version="1.1" xmlns="http://www.w3.org/2000/svg" xmlns:xlink="http://www.w3.org/1999/xlink" xml:space="preserve" xmlns:serif="http://www.serif.com/" style="fill-rule:evenodd;clip-rule:evenodd;stroke-linecap:round;stroke-linejoin:round;stroke-miterlimit:1.5;">
    <g transform="matrix(1,0,0,1,2,26)">
        <path d="M1041.19,1387C1014.38,1389.22 1009.76,1391.13 980.337,1444C950.916,1496.87 881.022,1489.86 820,1490C758.978,1490.14 653.746,1508.91 577,1497C500.254,1485.09 513.858,1544.52 518,1606C522.142,1667.49 535.256,1801.99 520,1877.29C504.744,1952.59 509.218,1967.21 589.761,1970C670.305,1972.79 933.597,1933.17 1067,1939C1200.4,1944.83 1262.72,1942.25 1339.67,1927C1416.63,1911.75 1485.22,1910 1541,1912C1596.78,1914 1612.8,1902.41 1609,1833C1605.2,1763.59 1578.76,1728.87 1583,1641C1587.24,1553.13 1633.78,1473.64 1560,1464C1486.22,1454.36 1424.35,1454.66 1339.67,1459C1254.99,1463.34 1199.42,1471.91 1143.3,1439C1087.19,1406.09 1115.85,1380.82 1041.19,1387Z" style="fill:rgb(238,202,139);stroke:rgb(255,215,144);stroke-width:31.25px;"/>
    </g>
    <g transform="matrix(1,0,0,1,0,-59)">
        <g transform="matrix(0.43549,0,0,0.43549,595.788,-237.667)">
            <path d="M957.125,804.494C957.056,784.387 973.237,767.998 993.343,767.81C1022.38,767.539 1062.9,767.161 1092.08,766.888C1101.84,766.797 1111.23,770.608 1118.16,777.474C1125.09,784.34 1128.99,793.69 1128.99,803.446C1128.99,862.828 1128.99,973 1128.99,973C1128.99,973 1117.69,1039.78 1050,1050C982.307,1060.22 958,1058 958,1058C958,1058 957.394,882.306 957.125,804.494Z" style="fill:rgb(238,202,139);"/>
        </g>
        <g transform="matrix(0.43549,0,0,0.43549,595.788,-153.182)">
            <path d="M957,860C957,860 1011.3,857.922 1050,838C1088.7,818.078 1128.99,757.358 1128.99,757.358L1128.99,973C1128.99,973 1117.69,1039.78 1050,1050C982.307,1060.22 958,1058 958,1058L957,860Z" style="fill:rgb(255,215,144);"/>
        </g>
        <g transform="matrix(0.43549,0,0,0.43549,595.788,-68.697)">
            <path d="M957,860C957,860 1011.3,857.922 1050,838C1088.7,818.078 1128.99,757.358 1128.99,757.358L1128.99,973C1128.99,973 1117.69,1039.78 1050,1050C982.307,1060.22 958,1058 958,1058L957,860Z" style="fill:rgb(238,202,139);"/>
        </g>
        <g transform="matrix(0.43549,0,0,0.43549,595.788,15.788)">
            <path d="M957,860C957,860 1011.3,857.922 1050,838C1088.7,818.078 1128.99,757.358 1128.99,757.358L1128.99,973C1128.99,973 1117.69,1039.78 1050,1050C982.307,1060.22 958,1058 958,1058L957,860Z" style="fill:rgb(255,215,144);"/>
        </g>
        <g transform="matrix(0.43549,0,0,0.43549,595.788,100.708)">
            <path d="M957,860C957,860 1011.3,857.922 1050,838C1088.7,818.078 1128.99,757.358 1128.99,757.358L1128.99,973C1128.99,973 1117.69,1039.78 1050,1050C982.307,1060.22 958,1058 958,1058L957,860Z" style="fill:rgb(238,202,139);"/>
        </g>
        <g transform="matrix(0.43549,0,0,0.43549,595.788,185.193)">
            <path d="M957,860C957,860 1011.3,857.922 1050,838C1088.7,818.078 1128.99,757.358 1128.99,757.358L1128.99,973C1128.99,973 1117.69,1039.78 1050,1050C982.307,1060.22 958,1058 958,1058L957,860Z" style="fill:rgb(255,215,144);"/>
        </g>
        <g transform="matrix(0.43549,0,0,0.43549,595.788,269.678)">
            <path d="M957,860C957,860 1011.3,857.922 1050,838C1088.7,818.078 1128.99,757.358 1128.99,757.358L1128.99,973C1128.99,973 1117.69,1039.78 1050,1050C982.307,1060.22 958,1058 958,1058L957,860Z" style="fill:rgb(238,202,139);"/>
        </g>
        <g transform="matrix(0.43549,0,0,0.43549,595.788,354.163)">
            <path d="M957,860C957,860 1011.3,857.922 1050,838C1088.7,818.078 1128.99,757.358 1128.99,757.358L1128.99,973C1128.99,973 1117.69,1039.78 1050,1050C982.307,1060.22 958,1058 958,1058L957,860Z" style="fill:rgb(255,215,144);"/>
        </g>
        <g transform="matrix(0.43549,0,0,0.43549,595.788,439.333)">
            <path d="M957,860C957,860 1011.3,857.922 1050,838C1088.7,818.078 1128.99,757.358 1128.99,757.358L1128.99,973C1128.99,973 1117.69,1039.78 1050,1050C982.307,1060.22 958,1058 958,1058L957,860Z" style="fill:rgb(238,202,139);"/>
        </g>
        <g transform="matrix(0.43549,0,0,0.43549,595.788,523.818)">
            <path d="M957,860C957,860 1011.3,857.922 1050,838C1088.7,818.078 1128.99,757.358 1128.99,757.358L1128.99,973C1128.99,973 1117.69,1039.78 1050,1050C982.307,1060.22 958,1058 958,1058L957,860Z" style="fill:rgb(255,215,144);"/>
        </g>
        <g transform="matrix(0.43549,0,0,0.43549,595.788,608.303)">
            <path d="M957,860C957,860 1011.3,857.922 1050,838C1088.7,818.078 1128.99,757.358 1128.99,757.358L1128.99,973C1128.99,973 1117.69,1039.78 1050,1050C982.307,1060.22 958,1058 958,1058L957,860Z" style="fill:rgb(238,202,139);"/>
        </g>
        <g transform="matrix(0.43549,0,0,0.43549,595.788,692.788)">
            <path d="M957,860C957,860 1011.3,857.922 1050,838C1088.7,818.078 1128.99,757.358 1128.99,757.358L1128.99,973C1128.99,973 1117.69,1039.78 1050,1050C982.307,1060.22 958,1058 958,1058L957,860Z" style="fill:rgb(255,215,144);"/>
        </g>
        <g transform="matrix(0.43549,0,0,0.43549,595.788,777.708)">
            <path d="M957,860C957,860 1011.3,857.922 1050,838C1088.7,818.078 1128.99,757.358 1128.99,757.358L1128.99,973C1128.99,973 1117.69,1039.78 1050,1050C982.307,1060.22 958,1058 958,1058L957,860Z" style="fill:rgb(238,202,139);"/>
        </g>
        <g transform="matrix(0.43549,0,0,0.43549,595.788,862.193)">
            <path d="M957,860C957,860 1011.3,857.922 1050,838C1088.7,818.078 1128.99,757.358 1128.99,757.358L1128.99,973C1128.99,973 1117.69,1039.78 1050,1050C982.307,1060.22 958,1058 958,1058L957,860Z" style="fill:rgb(255,215,144);"/>
        </g>
        <g transform="matrix(0.43549,0,0,0.43549,595.788,946.678)">
            <path d="M957,860C957,860 1011.3,857.922 1050,838C1088.7,818.078 1128.99,757.358 1128.99,757.358L1128.99,973C1128.99,973 1117.69,1039.78 1050,1050C982.307,1060.22 958,1058 958,1058L957,860Z" style="fill:rgb(238,202,139);"/>
        </g>
        <g transform="matrix(0.43549,0,0,0.43549,595.788,1031.16)">
            <path d="M957,860C957,860 1011.3,857.922 1050,838C1088.7,818.078 1128.99,757.358 1128.99,757.358L1128.99,973C1128.99,973 1117.69,1039.78 1050,1050C982.307,1060.22 958,1058 958,1058L957,860Z" style="fill:rgb(255,215,144);"/>
        </g>
    </g>
    <g transform="matrix(1,0,0,1,35.2967,28)">
        <g transform="matrix(1,0,0,1,270,8)">
            <path d="M296,1595C296.351,1635 298.503,1670.81 298,1691C297.497,1711.19 315.281,1710.69 316,1694C316.719,1677.31 315.629,1663.25 316,1650C316.371,1636.75 319.846,1637.62 330,1638C340.154,1638.38 352.851,1635.9 361,1636C369.149,1636.1 372.29,1639.49 372,1651C371.71,1662.51 372.628,1676.62 373,1686C373.407,1696.25 389.281,1702.28 389,1688C388.719,1673.73 385.91,1656.79 386,1644C386.09,1631.21 383.842,1581.18 383,1562C382.158,1542.82 365.851,1545.9 367,1560C368.149,1574.1 367.131,1598.84 367,1609C366.869,1619.16 361.982,1614.14 354,1616C346.018,1617.86 337.023,1618.52 328,1619C318.977,1619.49 311.865,1620.39 312,1610C312.135,1599.61 311.145,1575.17 310,1566C308.855,1556.83 295.084,1557.76 295,1564C294.915,1570.29 295.972,1591.82 296,1595Z"/>
        </g>
        <g transform="matrix(1,0,0,1,270,8)">
            <path d="M456.203,1543.52C439.905,1542.44 422.08,1558.41 415.668,1574.28C409.257,1590.16 400.996,1605.94 407.135,1625.86C413.274,1645.78 417.951,1670.98 432.736,1680.71C447.52,1690.45 462.025,1688.99 473.27,1681.76C484.515,1674.53 496.949,1652.79 498.871,1635.85C500.792,1618.9 501.831,1599.73 499.937,1583.67C498.044,1567.62 488.774,1545.68 456.203,1543.52ZM452.958,1673.51C467.335,1675.12 475.427,1662.23 481.229,1647.85C487.031,1633.45 486.47,1624.16 487.189,1604C487.864,1585.09 486.306,1571.37 472.946,1562.92C461.929,1555.95 450.071,1557.17 440.057,1563.66C430.042,1570.15 427.86,1578.83 422.025,1594.22C416.531,1608.72 418.544,1626.81 425.673,1639.66C433.224,1653.28 433.13,1671.3 452.958,1673.51Z"/>
        </g>
        <g transform="matrix(-0.99982,0.0189847,-0.0189847,-0.99982,1439.5,3219.38)">
            <path d="M456.203,1543.52C439.905,1542.44 422.08,1558.41 415.668,1574.28C409.257,1590.16 400.996,1605.94 407.135,1625.86C413.274,1645.78 417.951,1670.98 432.736,1680.71C447.52,1690.45 462.025,1688.99 473.27,1681.76C484.515,1674.53 496.949,1652.79 498.871,1635.85C500.792,1618.9 501.831,1599.73 499.937,1583.67C498.044,1567.62 488.774,1545.68 456.203,1543.52ZM452.958,1673.51C467.335,1675.12 475.427,1662.23 481.229,1647.85C487.031,1633.45 486.47,1624.16 487.189,1604C487.864,1585.09 486.306,1571.37 472.946,1562.92C461.929,1555.95 450.071,1557.17 440.057,1563.66C430.042,1570.15 427.86,1578.83 422.025,1594.22C416.531,1608.72 418.544,1626.81 425.673,1639.66C433.224,1653.28 433.13,1671.3 452.958,1673.51Z"/>
        </g>
        <g transform="matrix(-0.99982,0.0189847,-0.0189847,-0.99982,1669.5,3393.2)">
            <path d="M456.203,1543.52C439.905,1542.44 422.08,1558.41 415.668,1574.28C409.257,1590.16 400.996,1605.94 407.135,1625.86C413.274,1645.78 417.951,1670.98 432.736,1680.71C447.52,1690.45 462.025,1688.99 473.27,1681.76C484.515,1674.53 496.949,1652.79 498.871,1635.85C500.792,1618.9 501.831,1599.73 499.937,1583.67C498.044,1567.62 488.774,1545.68 456.203,1543.52ZM452.958,1673.51C467.335,1675.12 475.427,1662.23 481.229,1647.85C487.031,1633.45 486.47,1624.16 487.189,1604C487.864,1585.09 486.306,1571.37 472.946,1562.92C461.929,1555.95 450.071,1557.17 440.057,1563.66C430.042,1570.15 427.86,1578.83 422.025,1594.22C416.531,1608.72 418.544,1626.81 425.673,1639.66C433.224,1653.28 433.13,1671.3 452.958,1673.51Z"/>
        </g>
        <g transform="matrix(1,0,0,1,270,8)">
            <path d="M518,1560C518.584,1569.94 517.37,1583.46 518,1596C518.63,1608.54 523.376,1634.28 524,1647C524.624,1659.72 524.761,1662.45 525,1670C525.239,1677.55 542.927,1680.13 542,1671C541.073,1661.87 539.078,1653.8 539,1644C538.922,1634.2 535.843,1614.67 535,1601C534.157,1587.33 533.997,1584.66 534,1579C534.003,1573.34 531.028,1568.69 546,1587C560.972,1605.31 557.365,1612.18 571,1624C584.635,1635.82 585.077,1640.67 595,1651C604.923,1661.33 601.396,1658.68 609,1665C616.604,1671.32 623.557,1671.74 624,1663C624.443,1654.26 625.863,1639.34 624,1628.43C622.137,1617.53 620.631,1602.75 621,1593C621.369,1583.26 621.09,1574.26 620,1565C618.91,1555.74 619.859,1559.33 619,1553C618.141,1546.67 605.693,1543.19 606,1553C606.307,1562.81 605.695,1570.76 607,1584C608.305,1597.24 608.005,1606.01 609,1616.53C609.995,1627.06 609.081,1635.88 609,1640C608.919,1644.12 589.662,1619.23 582,1612C574.338,1604.77 571.639,1590.35 564,1583C556.361,1575.65 556.458,1568.79 545,1561C533.542,1553.21 517.063,1544.05 518,1560Z"/>
        </g>
        <g transform="matrix(1,0,0,1.04617,304,117.382)">
            <path d="M518,1560C518.584,1569.94 517.37,1583.46 518,1596C518.63,1608.54 523.376,1634.28 524,1647C524.624,1659.72 524.761,1662.45 525,1670C525.239,1677.55 542.927,1680.13 542,1671C541.073,1661.87 539.078,1653.8 539,1644C538.922,1634.2 535.843,1614.67 535,1601C534.157,1587.33 533.997,1584.66 534,1579C534.003,1573.34 531.028,1568.69 546,1587C560.972,1605.31 557.365,1612.18 571,1624C584.635,1635.82 585.077,1640.67 595,1651C604.923,1661.33 601.396,1658.68 609,1665C616.604,1671.32 623.557,1671.74 624,1663C624.443,1654.26 625.863,1639.34 624,1628.43C622.137,1617.53 620.631,1602.75 621,1593C621.369,1583.26 621.09,1574.26 620,1565C618.91,1555.74 619.859,1559.33 619,1553C618.141,1546.67 605.693,1543.19 606,1553C606.307,1562.81 605.695,1570.76 607,1584C608.305,1597.24 608.005,1606.01 609,1616.53C609.995,1627.06 609.081,1635.88 609,1640C608.919,1644.12 589.662,1619.23 582,1612C574.338,1604.77 571.639,1590.35 564,1583C556.361,1575.65 556.458,1568.79 545,1561C533.542,1553.21 517.063,1544.05 518,1560Z"/>
        </g>
        <g transform="matrix(1,0,0,1.04617,735,96.2177)">
            <path d="M518,1560C518.584,1569.94 517.37,1583.46 518,1596C518.63,1608.54 523.376,1634.28 524,1647C524.624,1659.72 524.761,1662.45 525,1670C525.239,1677.55 542.927,1680.13 542,1671C541.073,1661.87 539.078,1653.8 539,1644C538.922,1634.2 535.843,1614.67 535,1601C534.157,1587.33 533.997,1584.66 534,1579C534.003,1573.34 531.028,1568.69 546,1587C560.972,1605.31 557.365,1612.18 571,1624C584.635,1635.82 585.077,1640.67 595,1651C604.923,1661.33 601.396,1658.68 609,1665C616.604,1671.32 623.557,1671.74 624,1663C624.443,1654.26 625.863,1639.34 624,1628.43C622.137,1617.53 620.631,1602.75 621,1593C621.369,1583.26 621.09,1574.26 620,1565C618.91,1555.74 619.859,1559.33 619,1553C618.141,1546.67 605.693,1543.19 606,1553C606.307,1562.81 605.695,1570.76 607,1584C608.305,1597.24 608.005,1606.01 609,1616.53C609.995,1627.06 609.081,1635.88 609,1640C608.919,1644.12 589.662,1619.23 582,1612C574.338,1604.77 571.639,1590.35 564,1583C556.361,1575.65 556.458,1568.79 545,1561C533.542,1553.21 517.063,1544.05 518,1560Z"/>
        </g>
        <g transform="matrix(1,0,0,1,270,8)">
            <path d="M758.618,1668.02C762.972,1677.75 773.56,1674.76 772.478,1664.84C771.395,1654.9 771.052,1645.21 769.835,1636.52C768.617,1627.82 769.567,1629.98 768.177,1620.27C766.786,1610.55 773.058,1609.62 784.186,1624.48C795.315,1639.35 801.063,1639.75 808.032,1647.61C815.001,1655.48 817.211,1653.88 824.448,1660.3C831.684,1666.72 841.268,1660.47 834.452,1651.03C827.637,1641.58 827.624,1641.13 818.284,1633.92C808.945,1626.71 802.661,1622.91 796.196,1615.75C789.732,1608.6 787.238,1606.07 782.318,1600.97C777.397,1595.87 796.409,1596.32 807.416,1590.22C818.424,1584.13 823.989,1574.66 823.271,1563.71C822.553,1552.77 821.97,1548.58 809.088,1541.09C796.206,1533.59 787.713,1531.38 773.36,1533.42C759.007,1535.46 746.13,1531.8 748.079,1548.99C750.028,1566.18 748.881,1583.84 751.077,1597.37C753.273,1610.91 753.458,1628.32 754.741,1637.99C756.024,1647.65 755.861,1661.86 758.618,1668.02ZM772,1546.88C777.732,1546.93 786.275,1546.01 792.334,1548.52C798.393,1551.03 803.688,1552.88 806,1557C808.312,1561.12 811.227,1566.09 809,1571C806.773,1575.91 803.508,1578.7 798,1580C792.492,1581.3 783.636,1584.43 779,1585C774.364,1585.57 764.41,1588.66 764,1581C763.59,1573.34 763.034,1569.77 763,1566C762.966,1562.23 756.605,1546.75 772,1546.88Z"/>
        </g>
        <g transform="matrix(0.861666,0,0,1,373.225,9.64025)">
            <path d="M861.839,1648C867.342,1633.82 869.05,1630.54 874.839,1615.53C880.629,1600.53 884.82,1595.88 888.839,1581C892.859,1566.12 899.178,1549.48 902.839,1538C905.54,1529.53 917.098,1527.87 921.321,1534.7C928.167,1545.77 928.832,1546.46 934.321,1556C939.81,1565.54 940.31,1572.26 950.321,1586C960.332,1599.74 966.276,1603.42 972.321,1614.53C978.366,1625.65 982.461,1635.74 986.321,1645C990.182,1654.26 976.124,1662.29 968,1651C959.876,1639.71 953.939,1621.21 951,1615.53C949.492,1612.62 941.805,1602.45 932.373,1603.34C923.236,1604.2 912.79,1604.3 908,1604.76C898.166,1605.71 897.846,1606.7 895,1615.53C892.154,1624.37 887.112,1638.67 883,1648C878.888,1657.33 855.487,1664.38 861.839,1648ZM909,1565C908.139,1569.98 905.154,1579.22 904,1583C902.846,1586.78 903.968,1588.68 912,1588C920.032,1587.32 920.116,1588.15 922.312,1588C924.509,1587.85 931.053,1588.19 928,1583C924.947,1577.81 924.338,1573.45 922.312,1569C920.287,1564.55 919.742,1561.37 918,1558C916.258,1554.63 911.019,1554.02 910,1558C908.981,1561.98 909.474,1562.25 909,1565Z"/>
        </g>
        <g transform="matrix(1,0,0,1,270,8)">
            <path d="M967,1537.1C968.351,1546.46 967.149,1549.83 968,1560C968.851,1570.17 966.848,1577.42 967,1590C967.152,1602.58 967.279,1607.22 968,1623C968.721,1638.78 968.626,1635.98 969,1643C969.374,1650.02 970.751,1654.88 983,1655C995.249,1655.12 1009.79,1650.27 1015,1644C1020.21,1637.74 1034.03,1625.74 1033,1615.53C1031.97,1605.33 1028.86,1594.07 1018,1588C1007.14,1581.93 999.005,1588.02 996,1583C993.152,1578.24 1010.93,1582.58 1014,1572C1017.07,1561.42 1018.77,1551.13 1014,1543.47C1009.23,1535.8 1002.13,1530.73 990,1530C977.868,1529.27 965.586,1527.31 967,1537.1ZM981,1601.78C981.445,1605.5 981.484,1610.38 982,1615.53C982.516,1620.69 981.755,1627.8 982,1633C982.245,1638.2 986.303,1643.24 997,1638C1006.03,1633.58 1009.15,1632.31 1013,1626C1016.74,1619.86 1018.98,1615.36 1017,1610C1014.36,1602.85 1012.67,1600.23 1003,1599C993.334,1597.77 980.228,1595.33 981,1601.78ZM984,1570C987.99,1570.17 994.111,1570.64 996.851,1569C999.591,1567.36 1003.27,1565.44 1004,1560C1004.73,1554.56 1003.61,1547.72 1000,1545C996.389,1542.29 991.812,1541.42 986,1542C980.188,1542.58 977.99,1543.22 978.967,1551C979.945,1558.78 978.855,1560.2 978.967,1563C979.12,1566.8 979.786,1569.82 984,1570Z"/>
        </g>
        <g transform="matrix(1,0,0,1,270,8)">
            <path d="M1050,1532.7C1050.72,1541.83 1049.36,1550.03 1050,1561C1050.64,1571.97 1050.02,1582.78 1050,1595.78C1049.98,1608.78 1049.19,1612.28 1050,1624C1050.81,1635.72 1049.07,1645.41 1065,1645C1080.93,1644.59 1096.93,1643.57 1110,1645C1123.07,1646.43 1130.03,1629.29 1114,1629C1097.97,1628.71 1084.11,1628.13 1077,1628C1069.89,1627.87 1066.96,1627.81 1066,1611.85C1065.04,1595.9 1065.12,1591.55 1066,1579C1066.88,1566.45 1064.91,1560.92 1065,1546.88C1065.06,1537.8 1065.3,1535.58 1065,1529.34C1064.7,1523.1 1049.19,1522.38 1050,1532.7Z"/>
        </g>
        <g transform="matrix(1,0,0,1,-10,-0.0435034)">
            <path d="M1422,1540.7C1422.6,1550.12 1420.54,1555.79 1421,1569C1421.43,1581.29 1421.04,1589.87 1421,1603.78C1420.96,1617.69 1420.88,1620.61 1421,1633C1421.12,1645.39 1421.18,1653.81 1436,1653.09C1450.82,1652.36 1468.87,1652.32 1480,1653.09C1491.13,1653.85 1487.44,1636.75 1479,1638C1470.56,1639.25 1452.46,1637.4 1446,1637C1439.54,1636.6 1437.78,1631.97 1437,1619.85C1436.22,1607.74 1437.12,1607.04 1437,1600.17C1436.88,1593.3 1436.72,1586.49 1448,1586C1459.28,1585.51 1460.46,1585.5 1468,1586C1475.54,1586.5 1477.53,1569.59 1466,1570C1454.47,1570.41 1450.8,1570.42 1445,1570C1439.2,1569.58 1437.95,1563.4 1437,1554.88C1436.05,1546.36 1438.97,1544.12 1445,1544C1451.03,1543.88 1467.37,1543.99 1475,1544C1482.63,1544.01 1484.48,1529.82 1473,1530C1461.52,1530.18 1450.75,1528.04 1442,1528C1433.25,1527.96 1421.06,1525.82 1422,1540.7Z"/>
        </g>
        <g transform="matrix(1,0,0,1,-678,216.158)">
            <path d="M1422,1540.7C1422.6,1550.12 1420.54,1555.79 1421,1569C1421.43,1581.29 1421.04,1589.87 1421,1603.78C1420.96,1617.69 1420.88,1620.61 1421,1633C1421.12,1645.39 1421.18,1653.81 1436,1653.09C1450.82,1652.36 1468.87,1652.32 1480,1653.09C1491.13,1653.85 1487.44,1636.75 1479,1638C1470.56,1639.25 1452.46,1637.4 1446,1637C1439.54,1636.6 1437.78,1631.97 1437,1619.85C1436.22,1607.74 1437.12,1607.04 1437,1600.17C1436.88,1593.3 1436.72,1586.49 1448,1586C1459.28,1585.51 1460.46,1585.5 1468,1586C1475.54,1586.5 1477.53,1569.59 1466,1570C1454.47,1570.41 1450.8,1570.42 1445,1570C1439.2,1569.58 1437.95,1563.4 1437,1554.88C1436.05,1546.36 1438.97,1544.12 1445,1544C1451.03,1543.88 1467.37,1543.99 1475,1544C1482.63,1544.01 1484.48,1529.82 1473,1530C1461.52,1530.18 1450.75,1528.04 1442,1528C1433.25,1527.96 1421.06,1525.82 1422,1540.7Z"/>
        </g>
        <g transform="matrix(1,0,0,1,-966,225)">
            <path d="M1523,1637C1519.31,1649.96 1535.75,1656.62 1540,1642C1544.05,1628.08 1543.9,1626.41 1547,1611.34C1550.05,1596.53 1559.72,1556.61 1564,1546.7C1568.28,1536.79 1573.43,1554.54 1581,1564.7C1588.57,1574.86 1590.25,1577.64 1595,1584.87C1599.75,1592.1 1605.85,1594.18 1612,1584.87C1618.15,1575.56 1622.11,1570.1 1627,1562.7C1631.89,1555.3 1639.64,1533.63 1645,1543.7C1650.36,1553.77 1657.71,1588.68 1662,1603.78C1666.35,1619.07 1665.58,1631.81 1672,1639C1678.42,1646.19 1694.46,1649.66 1689,1635C1683.54,1620.34 1686.17,1619.86 1678,1600.17C1669.98,1580.84 1661.18,1540.79 1654,1529.7C1649.06,1522.08 1638.73,1521.04 1629.84,1527.68C1622.83,1532.91 1617.1,1544.06 1613,1552.7C1603.71,1572.3 1597.52,1557.38 1592,1549.7C1589.51,1546.24 1582.29,1532.65 1575.24,1526.34C1566.66,1518.65 1557.84,1519.33 1552,1531.7C1541.36,1554.23 1536.14,1592.62 1532,1603.78C1527.76,1615.22 1525.94,1626.67 1523,1637Z"/>
        </g>
        <g transform="matrix(1,0,0,1.14878,-25,-267.278)">
            <path d="M982,1742.3C969.142,1744.8 968.652,1756.5 981,1756C993.348,1755.5 998.398,1755.36 1012,1755C1025.6,1754.64 1028.18,1760.57 1028,1769C1027.82,1777.43 1029.39,1788.23 1030,1801C1030.61,1813.77 1026.89,1834.51 1028,1845C1029.11,1855.49 1045.89,1860.76 1046,1846C1046.11,1831.25 1046.38,1809.13 1047,1799C1047.62,1788.87 1045.88,1774.91 1046,1768C1046.12,1761.09 1044.96,1751.96 1059,1752C1073.04,1752.04 1081.86,1751.36 1088,1751C1094.14,1750.64 1097.81,1737.22 1086,1737.61C1074.19,1738.01 1058.3,1737.43 1046,1737.61C1033.7,1737.79 999.218,1738.94 982,1742.3Z"/>
        </g>
        <g transform="matrix(1,0,0,1.16403,5,-304.865)">
            <path d="M1086,1754C1084.96,1742.65 1100.1,1736.31 1101,1753C1101.9,1769.69 1103.24,1772.53 1104,1796C1104.76,1819.47 1104.67,1826.48 1105,1843C1105.33,1859.52 1091.07,1864.7 1090,1850C1088.93,1835.3 1090.31,1827.7 1088,1810.81C1085.69,1793.91 1086.88,1763.67 1086,1754Z"/>
        </g>
        <g transform="matrix(1,0,0,1,-21,1)">
            <path d="M1473,1719.81C1480.75,1726.82 1474.11,1736.93 1466,1732.68C1457.89,1728.43 1452.13,1722.84 1439,1723.81C1425.87,1724.79 1421.28,1733.5 1421,1742C1420.73,1750.5 1422.39,1762.08 1434,1765C1445.61,1767.92 1467.56,1766.94 1475,1772C1482.44,1777.06 1492.75,1788.27 1491,1803.66C1489.25,1819.05 1486.49,1829.37 1477,1834C1467.51,1838.63 1454.99,1840.7 1442,1839C1429.01,1837.3 1416.7,1831.13 1409,1826C1401.3,1820.87 1404.83,1804.79 1418,1812C1431.17,1819.21 1459.55,1829.22 1470,1817C1480.45,1804.78 1473.77,1787.62 1465,1787.23C1456.23,1786.84 1443.77,1785.96 1431,1782.58C1418.23,1779.21 1403.87,1764.23 1404,1746C1404.13,1727.77 1411.52,1714.52 1425,1711.52C1438.48,1708.52 1457.23,1705.55 1473,1719.81Z"/>
        </g>
    </g>
</svg>
