<?xml version="1.0" encoding="UTF-8" standalone="no"?>
<!DOCTYPE svg PUBLIC "-//W3C//DTD SVG 1.1//EN" "http://www.w3.org/Graphics/SVG/1.1/DTD/svg11.dtd">
<svg width="100%" height="100%" viewBox="0 0 8100 2100" version="1.1" xmlns="http://www.w3.org/2000/svg" xmlns:xlink="http://www.w3.org/1999/xlink" xml:space="preserve" xmlns:serif="http://www.serif.com/" style="fill-rule:evenodd;clip-rule:evenodd;stroke-linecap:round;stroke-linejoin:round;stroke-miterlimit:1.5;">
    <g style="fill: white;" transform="matrix(1,0,0,1,-125.731,-2.40216)">
        <path d="M701,730C748.694,794.071 889.748,950.982 971,1011C1052.25,1071.02 1153.13,1259.35 1150,1451C1146.87,1642.65 1041.97,1869.18 918,1921C794.031,1972.82 524.593,1995.92 412,1857C299.407,1718.08 263.843,1605.81 256,1453C248.157,1300.19 261,1281 261,1281L620,1283C620,1283 620.454,1476.39 626,1545C631.546,1613.61 761.776,1660.57 776,1575C790.224,1489.43 807.771,1371.71 628,1196C448.229,1020.29 275.288,931.583 279,616C282.712,300.417 367.634,196.843 542,155C716.366,113.157 884.187,146.189 990,244C1095.81,341.811 1110.59,400.521 1117,485C1123.41,569.479 1129,673 1129,673L763,670C763,670 762.124,597.223 756,539C749.876,480.777 600.451,453.992 618,562C635.549,670.008 654.096,686.506 701,730"/>
    </g>
    <g style="fill: white;" transform="matrix(1,0,0,1,-125.731,-2.40216)">
        <path d="M1602,959C1597.74,1132.07 1602.62,1452.58 1605,1532C1607.38,1611.42 1741.38,1678.5 1751,1543C1760.62,1407.5 1758,1181 1758,1181L2126,1180C2126,1180 2125.68,1457.72 2119,1604C2112.32,1750.28 1985.17,1979.12 1722,1961.37C1458.83,1943.63 1296.59,1894.73 1251,1641C1205.41,1387.27 1229.69,1123.37 1237,996C1244.31,868.634 1238.75,635.399 1247,529C1255.25,422.601 1361.68,140.247 1670,152C1978.32,163.753 2107.6,360.806 2114,504C2120.4,647.194 2115,871 2115,871L1763,868C1763,868 1758.17,615.727 1756,550C1753.83,484.273 1602.76,445.474 1599,555C1595.24,664.526 1606.26,785.934 1602,959Z"/>
    </g>
    <g style="fill: white;" transform="matrix(1,0,0,1,-125.731,-2.40216)">
        <path d="M2237,1961.37L2605,1961.37L2604,1145C2604,1145 2720.37,1106.73 2723,1229C2725.63,1351.27 2709.49,1409.24 2722,1582C2734.51,1754.76 2741.04,1813.05 2732,1875C2722.96,1936.95 2724,1961.37 2724,1961.37L3086,1961.37C3086,1961.37 3076.87,1786.8 3085,1669C3093.13,1551.2 3108.64,1526.54 3100,1438C3091.36,1349.46 3073.09,1246.73 3072,1191C3070.91,1135.27 3046.84,1069.99 2990,1049.3C2933.16,1028.62 2918,1022 2918,1022C2918,1022 2918.19,1022.26 2979,997C3039.81,971.741 3097.76,918.216 3103,817C3108.24,715.784 3095.24,616.047 3104,541C3112.76,465.953 3090.5,197.996 2883,176C2675.5,154.004 2651.8,166.222 2553,173C2475.66,178.306 2328.21,175.699 2267.81,174.317C2260.92,174.163 2254.28,176.885 2249.49,181.83C2244.69,186.775 2242.17,193.496 2242.53,200.376C2246.57,274.414 2256.12,482.504 2242,571C2224.66,679.609 2237.78,961.296 2245,1049.3C2252.22,1137.31 2250.67,1297.85 2247,1382C2243.33,1466.15 2237,1961.37 2237,1961.37Z"/>
    </g>
    <g style="fill: white;" transform="matrix(1,0,0,1,-125.731,-2.40216)">
        <path d="M3184,1961.37C3184,1961.37 3214.53,1532.29 3234,1397C3253.47,1261.71 3273.43,985.147 3284,784C3294.57,582.853 3333.59,317.425 3343,234C3352.41,150.575 3350,163.451 3350,163.451C3350,163.451 3430.7,168.729 3591,163.451C3751.3,158.173 3822.1,160.568 3881,163.451C3939.9,166.333 3956,163.451 3956,163.451C3956,163.451 3963.55,400.025 3987,536C4010.45,671.975 4000.27,778.032 4004,900C4007.73,1021.97 4039.01,1242.23 4061,1346C4082.99,1449.77 4094.69,1609.49 4097,1701C4099.31,1792.51 4128,1961.37 4128,1961.37C4128,1961.37 4001.05,1959.77 3945,1961.37C3888.95,1962.98 3785,1961.37 3785,1961.37C3785,1961.37 3759.3,1881.33 3767,1807C3774.7,1732.67 3748.13,1663.61 3746,1578C3743.87,1492.39 3739,1517 3739,1517L3565,1516C3565,1516 3543.98,1580.21 3546,1651C3548.02,1721.79 3543.74,1745.91 3535,1815C3526.26,1884.09 3527,1961.37 3527,1961.37L3184,1961.37Z"/>
    </g>
    <g style="fill: white;" transform="matrix(1,0,0,1,-125.731,-2.40216)">
        <path d="M4228,1961.37L4562,1961.37C4562,1961.37 4561.4,1788.95 4573,1711C4584.6,1633.05 4574.32,1511.09 4569,1437C4563.68,1362.91 4571.04,1310.06 4576,1276C4580.96,1241.94 4582,1246 4582,1246C4582,1246 4736.89,1244.42 4802,1237C4867.11,1229.58 5122.1,1088.12 5086,736C5049.9,383.875 5041.3,162.393 4718,160.327C4394.7,158.261 4406.37,171.802 4346,163.451C4285.63,155.1 4237,163.451 4237,163.451C4237,163.451 4213.97,325.867 4238,485C4262.03,644.133 4232.05,763.657 4234,892C4235.95,1020.34 4213.02,1198.71 4226,1351C4238.98,1503.29 4240.83,1585.45 4232,1706C4223.17,1826.55 4228,1961.37 4228,1961.37Z"/>
    </g>
    <g style="fill: white;" transform="matrix(1,0,0,1,-125.731,-2.40216)">
        <path d="M5198,163.451C5198,163.451 5176.67,334.079 5191,495C5205.33,655.921 5209.39,835.061 5196,998C5182.61,1160.94 5211.49,1172.89 5203,1254C5194.51,1335.11 5216.54,1493.39 5192,1596C5167.46,1698.61 5202,1961.37 5202,1961.37C5202,1961.37 5409.38,1953.47 5471,1961.37C5532.62,1969.28 5698.52,1969.98 5751,1961.37C5803.48,1952.76 5956.87,1918.13 5999,1795C6041.13,1671.87 6079.48,1578.67 6072,1397C6064.52,1215.33 6066.57,1117.59 6016,1062.41C5965.43,1007.23 5903,960 5903,960C5903,960 5994.64,920.536 6018,848C6041.36,775.464 6057.91,649.394 6052,522C6046.09,394.606 6021.32,283.461 5928,233C5834.68,182.539 5782.6,163.768 5513,163.451C5243.4,163.134 5198,163.451 5198,163.451Z"/>
    </g>
    <g style="fill: white;" transform="matrix(1,0,0,1,-125.731,-2.40216)">
        <path d="M6618,159.739C6543.79,160.666 6416.78,159.005 6319,246C6221.22,332.995 6197.76,401.316 6179,509C6160.24,616.684 6168.6,783.023 6179,847C6189.4,910.977 6189.35,1076.87 6177,1172C6164.65,1267.13 6171.1,1469.3 6184,1557C6196.9,1644.7 6203.97,1787.66 6314,1862C6424.03,1936.34 6519.77,1963.43 6627,1961.37C6734.23,1959.32 6871.9,1937.11 6929,1851C6986.1,1764.89 7046.82,1643.83 7058,1479C7069.18,1314.17 7052.64,1191.38 7064,1060.56C7075.36,929.732 7078.31,768.891 7068,654C7057.69,539.109 7050.32,357.325 6959,294C6867.68,230.675 6832.98,157.053 6618,159.739Z"/>
    </g>
    <g style="fill: white;" transform="matrix(1,0,0,1,-125.731,-2.40216)">
        <path d="M7150,1946L7511,1944C7511,1944 7531.82,1842.51 7551,1739C7570.18,1635.49 7596.25,1576.64 7590,1494C7583.75,1411.36 7608.73,1339.7 7614,1309C7619.27,1278.3 7655,1471 7655,1471C7655,1471 7690.6,1599.52 7684,1685C7677.4,1770.48 7711.32,1821.19 7716,1853C7720.68,1884.81 7726,1944 7726,1944L8098,1947C8098,1947 8057.83,1810 8050,1707C8042.17,1604.01 8009.69,1446.77 7978,1354C7946.31,1261.23 7945.98,1194.67 7932,1125C7918.02,1055.33 7906,1013 7906,1013C7906,1013 7910.63,926.253 7947,850C7983.37,773.747 7965.19,711.413 7983,605C8000.81,498.587 8012.04,456.058 8030,394C8047.96,331.942 8052,263 8052,263L8058,163.31L7702,159.668C7702,159.668 7684.09,237.088 7681,328C7677.91,418.912 7675.4,447.639 7664,514C7652.6,580.361 7634.73,678.556 7630,695C7625.27,711.444 7597.77,601.131 7589,496C7580.23,390.869 7565.61,341.494 7559,289C7552.39,236.506 7544,163.31 7544,163.31L7175,159.668C7175,159.668 7190.9,313.914 7224,432C7257.1,550.086 7274.02,590.894 7281,737C7287.98,883.106 7318.95,908.653 7317,958C7314.69,1016.34 7298.7,1176.13 7275,1278C7248.8,1390.62 7243.56,1468.66 7217,1610C7190.44,1751.34 7192.83,1789.93 7160,1863C7127.17,1936.07 7150,1946 7150,1946Z"/>
    </g>
</svg>
