<?xml version="1.0" encoding="UTF-8" standalone="no"?>
<!DOCTYPE svg PUBLIC "-//W3C//DTD SVG 1.1//EN" "http://www.w3.org/Graphics/SVG/1.1/DTD/svg11.dtd">
<svg width="100%" height="100%" viewBox="0 0 2100 2100" version="1.1" xmlns="http://www.w3.org/2000/svg" xmlns:xlink="http://www.w3.org/1999/xlink" xml:space="preserve" xmlns:serif="http://www.serif.com/" style="fill-rule:evenodd;clip-rule:evenodd;stroke-linejoin:round;stroke-miterlimit:2;">
    <g transform="matrix(14.4122,0,0,14.4122,-8579.25,-1276.98)">
        <path d="M612.495,174.805C612.47,174.787 612.455,174.758 612.455,174.727C612.455,173.056 612.455,129.678 612.455,128.003C612.455,127.971 612.47,127.942 612.495,127.924C614.156,126.75 666.139,89.992 668.077,88.622C668.11,88.598 668.155,88.598 668.188,88.622C670.126,89.992 722.109,126.75 723.769,127.924C723.795,127.942 723.81,127.971 723.81,128.003C723.81,129.678 723.81,173.058 723.81,174.729C723.81,174.76 723.795,174.789 723.77,174.807C722.37,175.806 684.986,202.49 684.986,202.49C684.806,202.618 684.658,202.786 684.552,202.98C684.552,202.98 668.772,231.992 668.152,233.133C668.148,233.139 668.143,233.143 668.136,233.144C668.129,233.145 668.122,233.143 668.117,233.139C667.55,232.094 651.727,202.982 651.727,202.982C651.727,202.982 651.633,202.836 651.611,202.802C651.608,202.798 651.605,202.793 651.601,202.789C651.573,202.759 651.452,202.628 651.426,202.6C651.423,202.596 651.42,202.593 651.416,202.59C651.393,202.572 651.31,202.505 651.295,202.493C651.294,202.492 651.293,202.491 651.291,202.49C650.961,202.255 613.889,175.8 612.495,174.805Z"/>
        <g transform="matrix(1,0,0,1,222.711,6.30607e-14)">
            <path d="M515.539,168.055C515.552,168.046 515.57,168.047 515.582,168.057C515.594,168.068 515.597,168.085 515.59,168.099C514.575,170.113 501.697,195.665 501.119,196.811C501.106,196.837 501.087,196.859 501.063,196.876C499.54,197.953 450.628,232.539 448.212,234.248C448.202,234.255 448.188,234.254 448.179,234.246C448.17,234.238 448.167,234.224 448.173,234.213C449.176,232.369 463.783,205.514 464.232,204.688C464.239,204.675 464.249,204.664 464.261,204.656C465.323,203.898 512.894,169.943 515.539,168.055Z"/>
        </g>
        <g transform="matrix(-1,0,0,1,1113.55,1.08802e-14)">
            <path d="M515.591,168.099C515.598,168.084 515.594,168.067 515.582,168.057C515.57,168.046 515.552,168.045 515.539,168.055C512.894,169.942 465.309,203.9 464.247,204.658C464.235,204.666 464.225,204.677 464.218,204.69C463.769,205.517 449.174,232.371 448.172,234.215C448.166,234.225 448.168,234.239 448.177,234.247C448.186,234.255 448.2,234.256 448.21,234.249C450.625,232.541 499.54,197.953 501.063,196.876C501.087,196.859 501.106,196.837 501.119,196.811C501.697,195.665 514.576,170.112 515.591,168.099Z"/>
        </g>
        <g transform="matrix(0.483573,-0.341938,0.483573,0.341938,430.155,214.042)">
            <path d="M347.328,130.731L359.224,129.574C359.94,133.567 361.392,136.5 363.582,138.372C365.771,140.245 368.724,141.181 372.442,141.181C376.38,141.181 379.347,140.348 381.343,138.682C383.34,137.016 384.338,135.068 384.338,132.837C384.338,131.405 383.918,130.187 383.078,129.182C382.238,128.176 380.772,127.302 378.679,126.559C377.247,126.063 373.984,125.182 368.889,123.915C362.335,122.29 357.737,120.294 355.093,117.926C351.376,114.594 349.517,110.532 349.517,105.74C349.517,102.656 350.391,99.771 352.14,97.087C353.888,94.402 356.408,92.357 359.699,90.953C362.99,89.548 366.962,88.846 371.616,88.846C379.216,88.846 384.937,90.512 388.778,93.844C392.62,97.176 394.637,101.623 394.83,107.186L382.603,107.723C382.08,104.611 380.958,102.374 379.237,101.011C377.516,99.648 374.934,98.966 371.492,98.966C367.939,98.966 365.158,99.696 363.148,101.155C361.854,102.091 361.206,103.344 361.206,104.914C361.206,106.346 361.812,107.571 363.024,108.59C364.566,109.885 368.311,111.234 374.259,112.638C380.207,114.043 384.607,115.495 387.457,116.996C390.307,118.497 392.537,120.549 394.148,123.151C395.759,125.753 396.565,128.968 396.565,132.796C396.565,136.266 395.601,139.515 393.673,142.544C391.746,145.573 389.019,147.825 385.495,149.298C381.97,150.771 377.578,151.508 372.318,151.508C364.662,151.508 358.783,149.738 354.68,146.2C350.577,142.661 348.126,137.505 347.328,130.731Z" style="fill:white;fill-rule:nonzero;"/>
        </g>
    </g>
</svg>
