<?xml version="1.0" encoding="UTF-8" standalone="no"?>
<!DOCTYPE svg PUBLIC "-//W3C//DTD SVG 1.1//EN" "http://www.w3.org/Graphics/SVG/1.1/DTD/svg11.dtd">
<svg width="100%" height="100%" viewBox="0 0 8100 2100" version="1.1" xmlns="http://www.w3.org/2000/svg" xmlns:xlink="http://www.w3.org/1999/xlink" xml:space="preserve" xmlns:serif="http://www.serif.com/" style="fill-rule:evenodd;clip-rule:evenodd;stroke-linecap:round;stroke-linejoin:round;stroke-miterlimit:1.5;">
    <g transform="matrix(0.955196,0,0,0.955196,181.458,47.0445)">
        <path d="M487.761,155.228C526.782,117.226 577.022,94.372 638.87,79.531C807.9,38.968 970.586,70.989 1073.16,165.807C1175.74,260.625 1196.64,404.247 1196.82,406.68C1202.25,400.689 1452.89,178.082 1455.91,175.532C1519.6,115.481 1609.42,71.936 1732.35,76.622C1928.48,84.099 2049.88,168.923 2111.91,265.568C2113.88,263.988 2306.8,94.122 2313.68,94.275C2372.73,95.619 2513.7,102.1 2588.33,96.98C2684.11,90.409 2707.08,78.565 2908.23,99.888C3050.11,114.927 3122.81,299.321 3122.86,296.7C3122.68,296.689 3122.59,296.684 3122.59,296.684C3122.59,296.684 3376.24,78.091 3376.21,79.682C3381.3,79.999 3444.41,92.667 3594.57,87.723C3749.96,82.606 3818.6,84.928 3875.69,87.723C3932.79,90.517 3948.4,87.723 3948.4,87.723L3973.45,310.684L4236.8,79.682C4236.8,79.682 4267.94,79.627 4326.47,87.723C4384.99,95.818 4373.67,82.692 4687.08,84.695C4850.74,85.741 4931.21,144.789 4975.73,249.578L5166.39,79.682C5166.39,79.682 5196.4,87.415 5457.75,87.723C5719.1,88.03 5769.59,106.227 5860.06,155.144C5941.52,199.194 5969.09,290.946 5977.96,398.963L5978.85,398.084L5979.33,397.616C5988.23,388.552 6235.73,170.74 6239.09,167.746C6333.88,83.413 6457,85.023 6528.94,84.125C6737.34,81.521 6770.98,152.89 6859.51,214.277C6871.8,222.804 6882.53,233.546 6891.91,246.022L6894.18,238.73L7083.9,76.221L7426.6,87.586C7426.6,87.586 7434.74,158.542 7441.15,209.43L7441.18,209.732C7441.78,206.967 7442.11,205.5 7442.11,205.5L7594.77,76.151L7924.88,87.586L7919.06,184.226C7919.06,184.226 7915.15,251.058 7897.73,311.217C7880.32,371.376 7869.44,412.604 7852.17,515.76C7834.9,618.917 7852.53,679.343 7817.27,753.263C7782.01,827.183 7777.53,911.275 7777.53,911.275C7777.53,911.275 7789.18,952.307 7802.73,1019.85C7816.28,1087.39 7816.6,1151.91 7847.32,1241.84C7878.04,1331.77 7909.53,1484.19 7917.12,1584.04C7924.71,1683.88 7978.19,1808.79 7978.19,1808.79L7726.3,2025.65L7365.68,2022.75C7365.68,2022.75 7360.52,1965.37 7355.99,1934.53C7353.41,1917.06 7341.75,1893.71 7333.28,1861.68C7332.44,1865.83 7157.26,2022.75 7157.26,2022.75L6807.31,2024.69C6807.31,2024.69 6785.18,2015.06 6817,1944.23C6848.82,1873.39 6846.51,1835.98 6872.26,1698.97C6876.95,1674 6880.95,1651.08 6884.52,1629.61C6867.34,1664.85 6852.69,1703.09 6834.42,1730.63C6827.64,1740.86 6577.28,1953.64 6573.07,1956.99C6509.88,2020.39 6393.29,2037.81 6300.31,2039.59C6196.36,2041.58 6103.55,2015.32 5996.89,1943.26C5923.99,1894 5897.71,1813.67 5884.38,1740.59C5882.74,1742.27 5881.07,1743.91 5879.39,1745.53C5872.9,1752.3 5647.63,1949.66 5643.78,1952.8C5582.33,2012.9 5489.25,2033.33 5451.12,2039.59C5400.24,2047.94 5239.42,2047.25 5179.69,2039.59C5119.95,2031.92 4918.92,2039.59 4918.92,2039.59C4918.92,2039.59 4885.44,1784.87 4909.22,1685.4C4933.01,1585.93 4911.65,1432.49 4919.89,1353.86C4928.12,1275.23 4900.12,1263.65 4913.1,1105.69C4914.92,1083.6 4916.4,1061.19 4917.57,1038.58C4916.52,1039.63 4673.45,1254.41 4670.72,1256.73C4622.36,1302.08 4572.94,1327.01 4543.56,1334.9C4548.86,1407.35 4557.13,1516.62 4546.52,1587.92C4535.28,1663.49 4550.86,1822.72 4550.86,1822.72L4298.5,2039.59L3974.72,2039.59C3974.72,2039.59 3973.43,2003.37 3973.45,1952.02L3877.78,2039.59C3877.78,2039.59 3754.72,2038.03 3700.38,2039.59C3646.04,2041.14 3545.28,2039.59 3545.28,2039.59C3545.28,2039.59 3520.36,1962 3527.83,1889.94C3529.9,1869.92 3529.41,1850.3 3527.58,1830.63L3295.17,2039.59L2962.67,2039.59C2962.67,2039.59 2965.37,2001.63 2969.66,1945.02L2867.67,2039.59L2516.74,2039.59C2516.74,2039.59 2515.74,2015.92 2524.5,1955.86C2525.98,1945.72 2527.03,1935.68 2527.69,1925.2L2401.39,2039.59L2044.65,2039.59C2044.65,2039.59 2046.62,1885.63 2048.97,1737.3C2041.34,1745.02 1812.97,1945.22 1809.82,1947.88C1747.13,2007.21 1659.44,2047.28 1545.41,2039.59C1290.29,2022.38 1133.02,1974.98 1088.82,1729.02C1088.63,1727.96 788.351,1991.11 766.01,2000.45C645.834,2050.69 384.642,2073.08 275.494,1938.41C166.346,1803.74 131.871,1694.9 124.268,1546.77C116.664,1398.64 129.115,1380.04 129.115,1380.04C129.115,1380.04 358.069,1182.24 358.358,1181.28C237.693,1070.79 143.862,965.074 146.564,735.385C148.859,540.265 183.178,428.749 251.586,363.048C258.275,356.084 483.946,158.346 487.761,155.228ZM2041.28,881.221L1926.38,982.581L1664.9,980.353C1664.58,1053.88 1665.06,1135.11 1665.84,1208.18L1831.66,1066.13L2047.22,1073.51C2044.37,1018.04 2041.82,948.161 2041.28,881.221ZM3062.07,857.537C3056.57,863.202 2978.15,931.375 2976.11,933.236C2985.53,936.776 3043.8,963.599 3055.2,977.033C3056.81,949.85 3061.14,871.357 3062.07,857.537ZM970.553,790.64L1082.75,689.258C1080.02,754.271 1080.02,844.794 1079.34,930.921C1071.03,922.514 971.967,837.812 926.52,790.279L970.553,790.64Z" style="fill:none;stroke:black;stroke-width:187.57px;"/>
        <path d="M487.761,155.228C526.782,117.226 577.022,94.372 638.87,79.531C807.9,38.968 970.586,70.989 1073.16,165.807C1175.74,260.625 1196.64,404.247 1196.82,406.68C1202.25,400.689 1452.89,178.082 1455.91,175.532C1519.6,115.481 1609.42,71.936 1732.35,76.622C1928.48,84.099 2049.88,168.923 2111.91,265.568C2113.88,263.988 2306.8,94.122 2313.68,94.275C2372.73,95.619 2513.7,102.1 2588.33,96.98C2684.11,90.409 2707.08,78.565 2908.23,99.888C3050.11,114.927 3122.81,299.321 3122.86,296.7C3122.68,296.689 3122.59,296.684 3122.59,296.684C3122.59,296.684 3376.24,78.091 3376.21,79.682C3381.3,79.999 3444.41,92.667 3594.57,87.723C3749.96,82.606 3818.6,84.928 3875.69,87.723C3932.79,90.517 3948.4,87.723 3948.4,87.723L3973.45,310.684L4236.8,79.682C4236.8,79.682 4267.94,79.627 4326.47,87.723C4384.99,95.818 4373.67,82.692 4687.08,84.695C4850.74,85.741 4931.21,144.789 4975.73,249.578L5166.39,79.682C5166.39,79.682 5196.4,87.415 5457.75,87.723C5719.1,88.03 5769.59,106.227 5860.06,155.144C5941.52,199.194 5969.09,290.946 5977.96,398.963L5978.85,398.084L5979.33,397.616C5988.23,388.552 6235.73,170.74 6239.09,167.746C6333.88,83.413 6457,85.023 6528.94,84.125C6737.34,81.521 6770.98,152.89 6859.51,214.277C6871.8,222.804 6882.53,233.546 6891.91,246.022L6894.18,238.73L7083.9,76.221L7426.6,87.586C7426.6,87.586 7434.74,158.542 7441.15,209.43L7441.18,209.732C7441.78,206.967 7442.11,205.5 7442.11,205.5L7594.77,76.151L7924.88,87.586L7919.06,184.226C7919.06,184.226 7915.15,251.058 7897.73,311.217C7880.32,371.376 7869.44,412.604 7852.17,515.76C7834.9,618.917 7852.53,679.343 7817.27,753.263C7782.01,827.183 7777.53,911.275 7777.53,911.275C7777.53,911.275 7789.18,952.307 7802.73,1019.85C7816.28,1087.39 7816.6,1151.91 7847.32,1241.84C7878.04,1331.77 7909.53,1484.19 7917.12,1584.04C7924.71,1683.88 7978.19,1808.79 7978.19,1808.79L7726.3,2025.65L7365.68,2022.75C7365.68,2022.75 7360.52,1965.37 7355.99,1934.53C7353.41,1917.06 7341.75,1893.71 7333.28,1861.68C7332.44,1865.83 7157.26,2022.75 7157.26,2022.75L6807.31,2024.69C6807.31,2024.69 6785.18,2015.06 6817,1944.23C6848.82,1873.39 6846.51,1835.98 6872.26,1698.97C6876.95,1674 6880.95,1651.08 6884.52,1629.61C6867.34,1664.85 6852.69,1703.09 6834.42,1730.63C6827.64,1740.86 6577.28,1953.64 6573.07,1956.99C6509.88,2020.39 6393.29,2037.81 6300.31,2039.59C6196.36,2041.58 6103.55,2015.32 5996.89,1943.26C5923.99,1894 5897.71,1813.67 5884.38,1740.59C5882.74,1742.27 5881.07,1743.91 5879.39,1745.53C5872.9,1752.3 5647.63,1949.66 5643.78,1952.8C5582.33,2012.9 5489.25,2033.33 5451.12,2039.59C5400.24,2047.94 5239.42,2047.25 5179.69,2039.59C5119.95,2031.92 4918.92,2039.59 4918.92,2039.59C4918.92,2039.59 4885.44,1784.87 4909.22,1685.4C4933.01,1585.93 4911.65,1432.49 4919.89,1353.86C4928.12,1275.23 4900.12,1263.65 4913.1,1105.69C4914.92,1083.6 4916.4,1061.19 4917.57,1038.58C4916.52,1039.63 4673.45,1254.41 4670.72,1256.73C4622.36,1302.08 4572.94,1327.01 4543.56,1334.9C4548.86,1407.35 4557.13,1516.62 4546.52,1587.92C4535.28,1663.49 4550.86,1822.72 4550.86,1822.72L4298.5,2039.59L3974.72,2039.59C3974.72,2039.59 3973.43,2003.37 3973.45,1952.02L3877.78,2039.59C3877.78,2039.59 3754.72,2038.03 3700.38,2039.59C3646.04,2041.14 3545.28,2039.59 3545.28,2039.59C3545.28,2039.59 3520.36,1962 3527.83,1889.94C3529.9,1869.92 3529.41,1850.3 3527.58,1830.63L3295.17,2039.59L2962.67,2039.59C2962.67,2039.59 2965.37,2001.63 2969.66,1945.02L2867.67,2039.59L2516.74,2039.59C2516.74,2039.59 2515.74,2015.92 2524.5,1955.86C2525.98,1945.72 2527.03,1935.68 2527.69,1925.2L2401.39,2039.59L2044.65,2039.59C2044.65,2039.59 2046.62,1885.63 2048.97,1737.3C2041.34,1745.02 1812.97,1945.22 1809.82,1947.88C1747.13,2007.21 1659.44,2047.28 1545.41,2039.59C1290.29,2022.38 1133.02,1974.98 1088.82,1729.02C1088.63,1727.96 788.351,1991.11 766.01,2000.45C645.834,2050.69 384.642,2073.08 275.494,1938.41C166.346,1803.74 131.871,1694.9 124.268,1546.77C116.664,1398.64 129.115,1380.04 129.115,1380.04C129.115,1380.04 358.069,1182.24 358.358,1181.28C237.693,1070.79 143.862,965.074 146.564,735.385C148.859,540.265 183.178,428.749 251.586,363.048C258.275,356.084 483.946,158.346 487.761,155.228ZM2041.28,881.221L1926.38,982.581L1664.9,980.353C1664.58,1053.88 1665.06,1135.11 1665.84,1208.18L1831.66,1066.13L2047.22,1073.51C2044.37,1018.04 2041.82,948.161 2041.28,881.221ZM3062.07,857.537C3056.57,863.202 2978.15,931.375 2976.11,933.236C2985.53,936.776 3043.8,963.599 3055.2,977.033C3056.81,949.85 3061.14,871.357 3062.07,857.537ZM970.553,790.64L1082.75,689.258C1080.02,754.271 1080.02,844.794 1079.34,930.921C1071.03,922.514 971.967,837.812 926.52,790.279L970.553,790.64Z" style="fill:#d64d4d;"/>
    </g>
    <g transform="matrix(0.925966,0,0,0.925966,480.33,99.0128)">
        <g transform="matrix(1,0,0,1,-190.731,-137.236)">
            <path d="M701,730C748.694,794.071 889.748,950.982 971,1011C1052.25,1071.02 1153.13,1259.35 1150,1451C1146.87,1642.65 1041.97,1869.18 918,1921C794.031,1972.82 524.593,1995.92 412,1857C299.407,1718.08 263.843,1605.81 256,1453C248.157,1300.19 261,1281 261,1281L620,1283C620,1283 620.454,1476.39 626,1545C631.546,1613.61 761.776,1660.57 776,1575C790.224,1489.43 807.771,1371.71 628,1196C448.229,1020.29 275.288,931.583 279,616C282.712,300.417 367.634,196.843 542,155C716.366,113.157 884.187,146.189 990,244C1095.81,341.811 1110.59,400.521 1117,485C1123.41,569.479 1129,673 1129,673L763,670C763,670 762.124,597.223 756,539C749.876,480.777 600.451,453.992 618,562C635.549,670.008 654.096,686.506 701,730" style="fill:#FF6B6B;"/>
        </g>
        <g transform="matrix(1,0,0,1,-190.731,-137.236)">
            <path d="M1602,959C1597.74,1132.07 1602.62,1452.58 1605,1532C1607.38,1611.42 1741.38,1678.5 1751,1543C1760.62,1407.5 1758,1181 1758,1181L2126,1180C2126,1180 2125.68,1457.72 2119,1604C2112.32,1750.28 1985.17,1979.12 1722,1961.37C1458.83,1943.63 1296.59,1894.73 1251,1641C1205.41,1387.27 1229.69,1123.37 1237,996C1244.31,868.634 1238.75,635.399 1247,529C1255.25,422.601 1361.68,140.247 1670,152C1978.32,163.753 2107.6,360.806 2114,504C2120.4,647.194 2115,871 2115,871L1763,868C1763,868 1758.17,615.727 1756,550C1753.83,484.273 1602.76,445.474 1599,555C1595.24,664.526 1606.26,785.934 1602,959Z" style="fill:#FF6B6B;"/>
        </g>
        <g transform="matrix(1,0,0,1,-190.731,-137.236)">
            <path d="M2237,1961.37L2605,1961.37L2604,1145C2604,1145 2720.37,1106.73 2723,1229C2725.63,1351.27 2709.49,1409.24 2722,1582C2734.51,1754.76 2741.04,1813.05 2732,1875C2722.96,1936.95 2724,1961.37 2724,1961.37L3086,1961.37C3086,1961.37 3076.87,1786.8 3085,1669C3093.13,1551.2 3108.64,1526.54 3100,1438C3091.36,1349.46 3073.09,1246.73 3072,1191C3070.91,1135.27 3046.84,1069.99 2990,1049.3C2933.16,1028.62 2918,1022 2918,1022C2918,1022 2918.19,1022.26 2979,997C3039.81,971.741 3097.76,918.216 3103,817C3108.24,715.784 3095.24,616.047 3104,541C3112.76,465.953 3090.5,197.996 2883,176C2675.5,154.004 2651.8,166.222 2553,173C2476.55,178.245 2331.6,175.758 2269.93,174.365C2262.5,174.202 2255.34,177.141 2250.16,182.476C2244.98,187.811 2242.26,195.06 2242.64,202.484C2246.74,278.289 2255.99,483.331 2242,571C2224.66,679.609 2237.78,961.296 2245,1049.3C2252.22,1137.31 2250.67,1297.85 2247,1382C2243.33,1466.15 2237,1961.37 2237,1961.37Z" style="fill:#FF6B6B;"/>
        </g>
        <g transform="matrix(1,0,0,1,-190.731,-137.236)">
            <path d="M3184,1961.37C3184,1961.37 3214.53,1532.29 3234,1397C3253.47,1261.71 3273.43,985.147 3284,784C3294.57,582.853 3333.59,317.425 3343,234C3352.41,150.575 3350,163.451 3350,163.451C3350,163.451 3430.7,168.729 3591,163.451C3751.3,158.173 3822.1,160.568 3881,163.451C3939.9,166.333 3956,163.451 3956,163.451C3956,163.451 3963.55,400.025 3987,536C4010.45,671.975 4000.27,778.032 4004,900C4007.73,1021.97 4039.01,1242.23 4061,1346C4082.99,1449.77 4094.69,1609.49 4097,1701C4099.31,1792.51 4128,1961.37 4128,1961.37C4128,1961.37 4001.05,1959.77 3945,1961.37C3888.95,1962.98 3785,1961.37 3785,1961.37C3785,1961.37 3759.3,1881.33 3767,1807C3774.7,1732.67 3748.13,1663.61 3746,1578C3743.87,1492.39 3739,1517 3739,1517L3565,1516C3565,1516 3543.98,1580.21 3546,1651C3548.02,1721.79 3543.74,1745.91 3535,1815C3526.26,1884.09 3527,1961.37 3527,1961.37L3184,1961.37Z" style="fill:#FF6B6B;"/>
        </g>
        <g transform="matrix(1,0,0,1,-190.731,-137.236)">
            <path d="M4228,1961.37L4562,1961.37C4562,1961.37 4561.4,1788.95 4573,1711C4584.6,1633.05 4574.32,1511.09 4569,1437C4563.68,1362.91 4571.04,1310.06 4576,1276C4580.96,1241.94 4582,1246 4582,1246C4582,1246 4736.89,1244.42 4802,1237C4867.11,1229.58 5122.1,1088.12 5086,736C5049.9,383.875 5041.3,162.393 4718,160.327C4394.7,158.261 4406.37,171.802 4346,163.451C4285.63,155.1 4237,163.451 4237,163.451C4237,163.451 4213.97,325.867 4238,485C4262.03,644.133 4232.05,763.657 4234,892C4235.95,1020.34 4213.02,1198.71 4226,1351C4238.98,1503.29 4240.83,1585.45 4232,1706C4223.17,1826.55 4228,1961.37 4228,1961.37Z" style="fill:#FF6B6B;"/>
        </g>
        <g transform="matrix(1,0,0,1,-190.731,-137.236)">
            <path d="M5198,163.451C5198,163.451 5176.67,334.079 5191,495C5205.33,655.921 5209.39,835.061 5196,998C5182.61,1160.94 5211.49,1172.89 5203,1254C5194.51,1335.11 5216.54,1493.39 5192,1596C5167.46,1698.61 5202,1961.37 5202,1961.37C5202,1961.37 5409.38,1953.47 5471,1961.37C5532.62,1969.28 5698.52,1969.98 5751,1961.37C5803.48,1952.76 5956.87,1918.13 5999,1795C6041.13,1671.87 6079.48,1578.67 6072,1397C6064.52,1215.33 6066.57,1117.59 6016,1062.41C5965.43,1007.23 5903,960 5903,960C5903,960 5994.64,920.536 6018,848C6041.36,775.464 6057.91,649.394 6052,522C6046.09,394.606 6021.32,283.461 5928,233C5834.68,182.539 5782.6,163.768 5513,163.451C5243.4,163.134 5198,163.451 5198,163.451Z" style="fill:#FF6B6B;"/>
        </g>
        <g transform="matrix(1,0,0,1,-190.731,-137.236)">
            <path d="M6618,159.739C6543.79,160.666 6416.78,159.005 6319,246C6221.22,332.995 6197.76,401.316 6179,509C6160.24,616.684 6168.6,783.023 6179,847C6189.4,910.977 6189.35,1076.87 6177,1172C6164.65,1267.13 6171.1,1469.3 6184,1557C6196.9,1644.7 6203.97,1787.66 6314,1862C6424.03,1936.34 6519.77,1963.43 6627,1961.37C6734.23,1959.32 6871.9,1937.11 6929,1851C6986.1,1764.89 7046.82,1643.83 7058,1479C7069.18,1314.17 7052.64,1191.38 7064,1060.56C7075.36,929.732 7078.31,768.891 7068,654C7057.69,539.109 7050.32,357.325 6959,294C6867.68,230.675 6832.98,157.053 6618,159.739Z" style="fill:#FF6B6B;"/>
        </g>
        <g transform="matrix(1,0,0,1,-190.731,-137.236)">
            <path d="M7150,1946L7511,1944C7511,1944 7531.82,1842.51 7551,1739C7570.18,1635.49 7596.25,1576.64 7590,1494C7583.75,1411.36 7608.73,1339.7 7614,1309C7619.27,1278.3 7655,1471 7655,1471C7655,1471 7690.6,1599.52 7684,1685C7677.4,1770.48 7711.32,1821.19 7716,1853C7720.68,1884.81 7726,1944 7726,1944L8098,1947C8098,1947 8057.83,1810 8050,1707C8042.17,1604.01 8009.69,1446.77 7978,1354C7946.31,1261.23 7945.98,1194.67 7932,1125C7918.02,1055.33 7906,1013 7906,1013C7906,1013 7910.63,926.253 7947,850C7983.37,773.747 7965.19,711.413 7983,605C8000.81,498.587 8012.04,456.058 8030,394C8047.96,331.942 8052,263 8052,263L8058,163.31L7702,159.668C7702,159.668 7684.09,237.088 7681,328C7677.91,418.912 7675.4,447.639 7664,514C7652.6,580.361 7634.73,678.556 7630,695C7625.27,711.444 7597.77,601.131 7589,496C7580.23,390.869 7565.61,341.494 7559,289C7552.39,236.506 7544,163.31 7544,163.31L7175,159.668C7175,159.668 7190.9,313.914 7224,432C7257.1,550.086 7274.02,590.894 7281,737C7287.98,883.106 7318.95,908.653 7317,958C7314.69,1016.34 7298.7,1176.13 7275,1278C7248.8,1390.62 7243.56,1468.66 7217,1610C7190.44,1751.34 7192.83,1789.93 7160,1863C7127.17,1936.07 7150,1946 7150,1946Z" style="fill:#FF6B6B;"/>
        </g>
    </g>
    <g transform="matrix(1,0,0,1,-79.9428,-205.049)">
        <path d="M6463.62,1481C6398.81,1506.92 6395.89,1509.64 6406,1572C6413.51,1618.3 6449.15,1639.38 6496.34,1631C6544.18,1622.5 6566.52,1616.45 6562,1548C6557.49,1479.55 6524.86,1456.51 6463.62,1481Z" style="fill:#d64d4d;"/>
    </g>
    <g transform="matrix(1,0,0,1,-31,-136.049)">
        <path d="M6368.59,1227C6374.67,1294.91 6415.02,1313.16 6446,1312C6482.96,1310.61 6506.12,1247.94 6502,1210C6497.88,1172.06 6501.31,1200.72 6497,1138C6492.69,1075.28 6518.52,1056.83 6554,1057C6589.48,1057.17 6673.4,1010.13 6701,956C6731.43,896.32 6735.6,779.209 6704,712C6672.4,644.791 6621.09,623.416 6523.59,611C6426.1,598.584 6412.85,600.497 6329.59,602C6246.33,603.503 6225.98,732.576 6329.59,724C6433.2,715.424 6418.88,718.751 6496.66,729C6574.43,739.249 6591.03,748.479 6602,786C6612.97,823.521 6572.34,932.859 6486,936C6423.04,938.291 6367.59,970.787 6370.59,1080C6373.6,1189.21 6362.32,1156.89 6368.59,1227Z" style="fill:#d64d4d;"/>
    </g>
</svg>
