<?xml version="1.0" encoding="UTF-8" standalone="no"?>
<svg width="100%" height="100%" viewBox="0 0 2100 2100" version="1.1" xmlns="http://www.w3.org/2000/svg" xmlns:xlink="http://www.w3.org/1999/xlink" xml:space="preserve" xmlns:serif="http://www.serif.com/" style="fill-rule:evenodd;clip-rule:evenodd;stroke-linejoin:round;stroke-miterlimit:2;">
    <path d="M1058.84,887.102C1058.36,891.622 1054.55,895.05 1050,895.05C1045.45,895.05 1041.64,891.622 1041.16,887.102C1016.26,653.006 947.351,5.03 947.351,5.03C1015.62,-1.677 1084.38,-1.677 1152.65,5.03C1152.65,5.03 1083.74,653.006 1058.84,887.102ZM969.366,908.184C971.405,912.245 970.051,917.191 966.228,919.648C962.405,922.105 957.343,921.282 954.496,917.74C806.989,734.266 398.693,226.411 398.693,226.411C452.498,183.861 510.343,146.686 571.4,115.419C571.4,115.419 863.748,697.789 969.366,908.184ZM905.495,974.29C909.406,976.605 910.941,981.497 909.053,985.632C907.165,989.766 902.462,991.809 898.152,990.369C674.868,915.769 56.82,709.276 56.82,709.276C79.079,644.391 107.644,581.844 142.103,522.531C142.103,522.531 702.896,854.397 905.495,974.29ZM887.503,1064.43C892.044,1064.27 895.981,1067.55 896.627,1072.05C897.274,1076.55 894.423,1080.81 890.018,1081.93C661.848,1139.89 30.274,1300.32 30.274,1300.32C13.921,1233.7 4.135,1165.64 1.057,1097.11C1.057,1097.11 652.246,1073.11 887.503,1064.43ZM921.102,1150C924.833,1147.4 929.921,1148.04 932.897,1151.47C935.873,1154.9 935.779,1160.03 932.678,1163.36C772.064,1335.47 327.485,1811.89 327.485,1811.89C277.71,1764.68 232.681,1712.72 193.044,1656.73C193.044,1656.73 727.88,1284.48 921.102,1150ZM995.626,1203.81C997.361,1199.61 1001.99,1197.39 1006.35,1198.67C1010.71,1199.95 1013.4,1204.32 1012.59,1208.79C970.522,1440.42 854.088,2081.56 854.088,2081.56C786.696,2068.76 720.721,2049.39 657.107,2023.72C657.107,2023.72 905.786,1421.41 995.626,1203.81ZM1087.41,1208.79C1086.6,1204.32 1089.29,1199.95 1093.65,1198.67C1098.02,1197.39 1102.64,1199.61 1104.37,1203.81C1194.21,1421.41 1442.89,2023.72 1442.89,2023.72C1379.28,2049.39 1313.3,2068.76 1245.91,2081.56C1245.91,2081.56 1129.48,1440.42 1087.41,1208.79ZM1167.32,1163.36C1164.22,1160.03 1164.13,1154.9 1167.1,1151.47C1170.08,1148.04 1175.17,1147.4 1178.9,1150C1372.12,1284.48 1906.96,1656.73 1906.96,1656.73C1867.32,1712.72 1822.29,1764.68 1772.52,1811.89C1772.52,1811.89 1327.94,1335.47 1167.32,1163.36ZM1209.98,1081.93C1205.58,1080.81 1202.73,1076.55 1203.37,1072.05C1204.02,1067.55 1207.96,1064.27 1212.5,1064.43C1447.75,1073.11 2098.94,1097.11 2098.94,1097.11C2095.87,1165.64 2086.08,1233.7 2069.73,1300.32C2069.73,1300.32 1438.15,1139.89 1209.98,1081.93ZM1201.85,990.369C1197.54,991.809 1192.84,989.766 1190.95,985.632C1189.06,981.497 1190.59,976.605 1194.51,974.29C1397.1,854.397 1957.9,522.531 1957.9,522.531C1992.36,581.844 2020.92,644.391 2043.18,709.276C2043.18,709.276 1425.13,915.769 1201.85,990.369ZM1145.5,917.74C1142.66,921.282 1137.6,922.105 1133.77,919.648C1129.95,917.191 1128.6,912.245 1130.63,908.184C1236.25,697.789 1528.6,115.419 1528.6,115.419C1589.66,146.686 1647.5,183.861 1701.31,226.411C1701.31,226.411 1293.01,734.266 1145.5,917.74Z" style="fill:url(#_Radial1);"/>
    <defs>
        <radialGradient id="_Radial1" cx="0" cy="0" r="1" gradientUnits="userSpaceOnUse" gradientTransform="matrix(1050,0,0,1050,1050,1050)"><stop offset="0" style="stop-color:rgb(219,255,0);stop-opacity:1"/><stop offset="0.99" style="stop-color:white;stop-opacity:0"/><stop offset="0.8" style="stop-color:rgb(255,185,0);stop-opacity:0"/></radialGradient>
    </defs>
</svg>
