<?xml version="1.0" encoding="UTF-8" standalone="no"?>
<!DOCTYPE svg PUBLIC "-//W3C//DTD SVG 1.1//EN" "http://www.w3.org/Graphics/SVG/1.1/DTD/svg11.dtd">
<svg width="100%" height="100%" viewBox="0 0 2100 2100" version="1.1" xmlns="http://www.w3.org/2000/svg" xmlns:xlink="http://www.w3.org/1999/xlink" xml:space="preserve" xmlns:serif="http://www.serif.com/" style="fill-rule:evenodd;clip-rule:evenodd;stroke-linejoin:round;stroke-miterlimit:2;">
    <g transform="matrix(1,0,0.105522,1,-147.53,5.2414)">
        <path d="M652,125C579.984,106.447 548.869,87.126 480,82C411.131,76.874 353.923,135.27 352,263C350.077,390.73 401.447,429.973 433,428C464.553,426.027 548.402,424.191 620,417C691.598,409.809 724.016,143.553 652,125Z" style="fill:url(#_Linear1);"/>
    </g>
    <g transform="matrix(1,0,0.105522,1,-167.111,-0.270508)">
        <path d="M475,204.658C436.798,201.894 411.767,236.119 422,292C428.62,328.152 430.566,274.961 634,291C890.272,311.205 714,254.88 714,254.88C714,254.88 630.685,215.923 475,204.658Z" style="fill:url(#_Linear2);"/>
    </g>
    <g transform="matrix(1.45835,0,0.105522,1,-402.983,-1.61257)">
        <path d="M634,214L486,206C486,206 529.437,215.116 520.156,321C515.75,371.271 494.703,410.399 467,428.07C439.297,445.742 602,428.07 602,428.07L634,214Z" style="fill:url(#_Linear3);"/>
    </g>
    <path d="M1715.96,273.973C1734.69,374.317 1716,1717 1716,1717C1716,1717 1843.11,1902.95 1792.26,1938C1741.4,1973.05 1500.94,1910.53 1256.18,1918C1011.43,1925.47 735.461,2010.3 625,2012.7C514.539,2015.11 469.35,1902.1 463,1830C461.344,1811.2 462.086,312.507 462.01,281.886C461.534,90.585 331.506,85.475 374.248,90.932C516.489,109.091 806.638,150.648 952,159C1097.36,167.352 1333.39,141.378 1531,132C1666.84,125.554 1705.23,216.496 1715.96,273.973Z" style="fill:url(#_Linear4);"/>
    <g transform="matrix(1,0,0,1,66.0904,3.97127)">
        <path d="M587.7,1677.67C549.342,1673.64 517.542,1686.59 500,1731C487.129,1763.59 468.881,1815.7 527,1867C571.328,1906.13 721.153,1870.17 769,1858C816.847,1845.83 778,1734 778,1734C778,1734 626.058,1681.7 587.7,1677.67Z" style="fill:url(#_Linear5);"/>
    </g>
    <g transform="matrix(1,0,0,1,66.0904,3.97127)">
        <path d="M577.934,1884.55C551.738,1881.58 601.625,1867.23 610,1840C616.917,1817.51 606.656,1798.81 600,1792C573.356,1764.75 548.304,1767.1 683,1771C779.901,1773.8 735.459,1825.07 726,1851C716.541,1876.93 720.913,1877.24 703,1880C685.087,1882.76 595.275,1886.52 577.934,1884.55Z" style="fill:url(#_Linear6);"/>
    </g>
    <g transform="matrix(1,0,0,1,66.0904,3.97127)">
        <path d="M592,1678C592,1678 1049.39,1702.98 1180,1702C1317.62,1700.97 1577.16,1684.75 1660,1676.38C1711.71,1671.15 1787.75,1673.69 1802,1807C1816.25,1940.31 1712.24,1957.16 1646,1953C1579.76,1948.84 1282.17,1922.79 1163,1931C1043.83,1939.22 728.093,1984.55 657.097,1998C620.802,2004.88 597.062,2006.54 586.181,2006.69C556.055,2007.13 608.618,1995 608.618,1995C639.77,1983.93 675.591,1939.32 684.479,1835C697.731,1679.45 530.452,1672.77 592,1678Z" style="fill:url(#_Linear7);"/>
    </g>
    <g transform="matrix(1,0,0,1,0.042023,-15)">
        <g transform="matrix(1,0,0,1,-51,-7)">
            <path d="M668,419C624.908,424.305 619.071,457.16 663,459C706.929,460.84 768.167,450.405 829,452C889.833,453.595 934.633,470.221 1007,468C1079.37,465.779 1118.7,459.082 1207,456C1295.3,452.918 1256.6,405.574 1191,413C1125.4,420.426 1052.94,425.543 990,424C927.063,422.457 887.272,422.343 830,418C772.728,413.657 691.94,416.053 668,419Z" style="fill-opacity:0.22;"/>
        </g>
        <g transform="matrix(1,0,0,1,97.8939,165.222)">
            <path d="M681,428C637.908,433.305 632.071,466.16 676,468C719.929,469.84 766.167,460.463 827,462.058C834.318,462.249 841.404,462.659 848.333,463.227C899.01,467.38 943.338,469.954 1007,468C1079.37,465.779 1130.7,477.14 1219,474.058C1307.3,470.975 1268.6,423.632 1203,431.058C1137.4,438.484 1052.94,425.543 990,424C927.063,422.457 885.272,432.401 828,428.058C770.728,423.715 704.94,425.053 681,428Z" style="fill-opacity:0.22;"/>
        </g>
        <g transform="matrix(1,0,0,1,165.128,355.222)">
            <path d="M681,428C637.908,433.305 632.071,466.16 676,468C719.929,469.84 766.167,460.463 827,462.058C834.318,462.249 841.404,462.659 848.333,463.227C899.01,467.38 943.338,469.954 1007,468C1079.37,465.779 1130.7,477.14 1219,474.058C1307.3,470.975 1268.6,423.632 1203,431.058C1137.4,438.484 1052.94,425.543 990,424C927.063,422.457 885.272,432.401 828,428.058C770.728,423.715 704.94,425.053 681,428Z" style="fill-opacity:0.22;"/>
        </g>
        <g transform="matrix(1,0,0,1,340.207,83)">
            <path d="M815,425C771.908,430.305 766.071,463.16 810,465C853.929,466.84 934.633,470.221 1007,468C1079.37,465.779 1118.7,459.082 1207,456C1295.3,452.918 1256.6,405.574 1191,413C1125.4,420.426 1052.94,425.543 990,424C927.063,422.457 838.94,422.053 815,425Z" style="fill-opacity:0.22;"/>
        </g>
        <g transform="matrix(1,0,0,-1,-185,963.941)">
            <path d="M815,425C771.908,430.305 766.071,463.16 810,465C853.929,466.84 934.633,470.221 1007,468C1079.37,465.779 1118.7,459.082 1207,456C1295.3,452.918 1256.6,405.574 1191,413C1125.4,420.426 1052.94,425.543 990,424C927.063,422.457 838.94,422.053 815,425Z" style="fill-opacity:0.22;"/>
        </g>
        <g transform="matrix(1,0,0,1,623,-21)">
            <path d="M690,426.211C646.908,431.516 632.071,466.16 676,468C719.929,469.84 880.167,463.613 941,465.207C1001.83,466.802 975.272,424.55 918,420.207C860.728,415.864 713.94,423.264 690,426.211Z" style="fill-opacity:0.22;"/>
        </g>
        <g transform="matrix(0.99731,0.0732981,-0.0732981,0.99731,-39.7864,110.111)">
            <path d="M681,428C637.908,433.305 632.071,466.16 676,468C699.949,469.003 725.025,462.69 753.03,458.895C797.268,452.9 786.918,415.44 746.697,419.91C718.045,423.093 693.51,426.46 681,428Z" style="fill-opacity:0.22;"/>
        </g>
        <g transform="matrix(0.99731,0.0732981,-0.0732981,0.99731,-39.4147,305.59)">
            <path d="M681,428C637.908,433.305 632.071,466.16 676,468C699.949,469.003 774.671,456.033 802.676,452.238C846.913,446.243 836.563,408.784 796.343,413.253C767.691,416.437 693.51,426.46 681,428Z" style="fill-opacity:0.22;"/>
        </g>
        <g transform="matrix(1,0,0,1,316.969,265)">
            <path d="M815,425C771.908,430.305 766.071,463.16 810,465C838.308,466.186 899.888,459.012 946.667,459.566C972.48,459.871 1090.27,469.52 1116,468.731C1188.37,466.509 1161.94,426.274 1099,424.731C1078.72,424.233 964.816,414.124 942.292,413.937C894.927,413.545 831.224,423.003 815,425Z" style="fill-opacity:0.22;"/>
        </g>
        <g transform="matrix(1,0,0,-1,-208.238,1145.94)">
            <path d="M815,425C771.908,430.305 766.071,463.16 810,465C853.929,466.84 934.633,470.221 1007,468C1079.37,465.779 1118.7,459.082 1207,456C1295.3,452.918 1256.6,405.574 1191,413C1125.4,420.426 1052.94,425.543 990,424C927.063,422.457 838.94,422.053 815,425Z" style="fill-opacity:0.22;"/>
        </g>
    </g>
    <defs>
        <linearGradient id="_Linear1" x1="0" y1="0" x2="1" y2="0" gradientUnits="userSpaceOnUse" gradientTransform="matrix(208.938,-369,351.061,170,413.236,419.759)"><stop offset="0" style="stop-color:rgb(236,210,149);stop-opacity:1"/><stop offset="1" style="stop-color:rgb(217,183,105);stop-opacity:1"/></linearGradient>
        <linearGradient id="_Linear2" x1="0" y1="0" x2="1" y2="0" gradientUnits="userSpaceOnUse" gradientTransform="matrix(214.294,-78.599,56.8615,206,421.941,304.87)"><stop offset="0" style="stop-color:rgb(228,201,136);stop-opacity:1"/><stop offset="1" style="stop-color:rgb(197,155,58);stop-opacity:1"/></linearGradient>
        <linearGradient id="_Linear3" x1="0" y1="0" x2="1" y2="0" gradientUnits="userSpaceOnUse" gradientTransform="matrix(144.037,-294.312,188.859,179,475.868,435.924)"><stop offset="0" style="stop-color:rgb(242,217,157);stop-opacity:1"/><stop offset="1" style="stop-color:rgb(221,189,112);stop-opacity:1"/></linearGradient>
        <linearGradient id="_Linear4" x1="0" y1="0" x2="1" y2="0" gradientUnits="userSpaceOnUse" gradientTransform="matrix(117,1787,-1787,117,992,159)"><stop offset="0" style="stop-color:rgb(247,224,166);stop-opacity:1"/><stop offset="1" style="stop-color:rgb(227,200,138);stop-opacity:1"/></linearGradient>
        <linearGradient id="_Linear5" x1="0" y1="0" x2="1" y2="0" gradientUnits="userSpaceOnUse" gradientTransform="matrix(306.104,0,0,306.104,486.775,1780.87)"><stop offset="0" style="stop-color:rgb(239,210,142);stop-opacity:1"/><stop offset="1" style="stop-color:rgb(208,180,114);stop-opacity:1"/></linearGradient>
        <linearGradient id="_Linear6" x1="0" y1="0" x2="1" y2="0" gradientUnits="userSpaceOnUse" gradientTransform="matrix(8.69499e-15,142,-142,8.69499e-15,639.827,1759.03)"><stop offset="0" style="stop-color:rgb(253,227,160);stop-opacity:1"/><stop offset="1" style="stop-color:rgb(218,193,135);stop-opacity:1"/></linearGradient>
        <linearGradient id="_Linear7" x1="0" y1="0" x2="1" y2="0" gradientUnits="userSpaceOnUse" gradientTransform="matrix(1.61041e-14,263,-263,1.61041e-14,1161.91,1702.03)"><stop offset="0" style="stop-color:rgb(255,232,173);stop-opacity:1"/><stop offset="1" style="stop-color:rgb(232,209,155);stop-opacity:1"/></linearGradient>
    </defs>
</svg>
