<?xml version="1.0" encoding="UTF-8" standalone="no"?>
<!DOCTYPE svg PUBLIC "-//W3C//DTD SVG 1.1//EN" "http://www.w3.org/Graphics/SVG/1.1/DTD/svg11.dtd">
<svg width="100%" height="100%" viewBox="0 0 2100 2100" version="1.1" xmlns="http://www.w3.org/2000/svg" xmlns:xlink="http://www.w3.org/1999/xlink" xml:space="preserve" xmlns:serif="http://www.serif.com/" style="fill-rule:evenodd;clip-rule:evenodd;stroke-linejoin:round;stroke-miterlimit:2;">
    <g style="fill: #202b35" transform="matrix(0.816497,-0.57735,0.866025,0.612372,0,0)">
        <path d="M-420.888,1223.39C-420.888,1203.65 -434.887,1190.45 -455.825,1190.45L-666.681,1190.45C-682.72,1190.45 -700.515,1198.24 -714.405,1211.33C-728.296,1224.43 -736.555,1241.21 -736.555,1256.33L-736.555,1256.72C-736.555,1276.46 -722.556,1289.66 -701.618,1289.66L-490.762,1289.66C-474.723,1289.66 -456.928,1281.87 -443.038,1268.77C-429.147,1255.68 -420.888,1238.9 -420.888,1223.78L-420.888,1223.39Z"/>
    </g>
    <g style="fill: #202b35" transform="matrix(0.979796,-0.69282,0.866025,0.612372,-17.1827,12.15)">
        <path d="M105.222,1653.37C105.222,1613.75 81.813,1587.27 46.798,1587.27C-37.554,1587.27 -195.244,1587.27 -304.039,1587.27C-330.862,1587.27 -360.619,1602.89 -383.849,1629.17C-407.078,1655.46 -420.888,1689.12 -420.888,1719.47L-420.888,1719.58C-420.888,1759.19 -397.479,1785.68 -362.464,1785.68C-278.112,1785.68 -120.422,1785.68 -11.627,1785.68C15.196,1785.68 44.953,1770.05 68.182,1743.77C91.412,1717.49 105.222,1683.83 105.222,1653.48L105.222,1653.37Z"/>
    </g>
    <g style="fill: #202b35" transform="matrix(0.816497,-0.57735,0.866025,0.612372,0,0)">
        <path d="M315.666,1322.6C315.666,1302.85 301.668,1289.66 280.729,1289.66L-140.57,1289.66C-156.61,1289.66 -174.404,1297.44 -188.295,1310.54C-202.186,1323.63 -210.444,1340.41 -210.444,1355.53L-210.444,1355.92C-210.444,1375.66 -196.446,1388.86 -175.507,1388.86L245.792,1388.86C261.832,1388.86 279.626,1381.08 293.517,1367.98C307.408,1354.88 315.666,1338.11 315.666,1322.98L315.666,1322.6Z"/>
    </g>
    <g style="fill: #202b35" transform="matrix(0.816497,-0.57735,0.866025,0.612372,0,0)">
        <path d="M-105.222,760.454C-105.222,720.885 -133.281,694.43 -175.251,694.43L-386.053,694.43C-418.204,694.43 -453.871,710.037 -481.714,736.288C-509.557,762.538 -526.11,796.166 -526.11,826.477C-526.11,826.59 -526.11,826.703 -526.11,826.815C-526.11,866.385 -498.051,892.839 -456.082,892.839L-245.279,892.839C-213.129,892.839 -177.461,877.232 -149.618,850.982C-121.775,824.731 -105.222,791.103 -105.222,760.792C-105.222,760.679 -105.222,760.567 -105.222,760.454Z"/>
    </g>
    <g style="fill: #202b35" transform="matrix(0.816497,-0.57735,0.866025,0.612372,0,0)">
        <path d="M736.555,925.778C736.555,906.037 722.556,892.839 701.618,892.839L280.318,892.839C264.278,892.839 246.484,900.625 232.593,913.721C218.703,926.818 210.444,943.594 210.444,958.717L210.444,959.104C210.444,978.845 224.443,992.043 245.381,992.043L666.681,992.043C682.72,992.043 700.515,984.257 714.405,971.161C728.296,958.065 736.555,941.288 736.555,926.166L736.555,925.778Z"/>
    </g>
    <g style="fill: #202b35" transform="matrix(0.816497,-0.57735,0.866025,0.612372,0,0)">
        <path d="M1157.44,1157.17C1157.44,1117.66 1129.43,1091.25 1087.52,1091.25L876.395,1091.25C844.294,1091.25 808.682,1106.83 780.882,1133.04C753.082,1159.25 736.555,1192.83 736.555,1223.09L736.555,1223.74C736.555,1263.24 764.57,1289.66 806.475,1289.66L1017.6,1289.66C1049.7,1289.66 1085.32,1274.07 1113.12,1247.86C1140.91,1221.65 1157.44,1188.08 1157.44,1157.81L1157.44,1157.17Z"/>
    </g>
    <g style="fill: #202b35" transform="matrix(0.816497,-0.57735,0.866025,0.612372,0,0)">
        <path d="M526.11,1818.62C526.11,1798.88 512.112,1785.68 491.173,1785.68L385.54,1785.68C369.501,1785.68 351.706,1793.46 337.815,1806.56C323.925,1819.66 315.666,1836.43 315.666,1851.56C315.666,1851.68 315.666,1851.81 315.666,1851.94C315.666,1871.68 329.665,1884.88 350.603,1884.88L456.236,1884.88C472.276,1884.88 490.07,1877.1 503.961,1864C517.852,1850.9 526.11,1834.13 526.11,1819.01C526.11,1818.88 526.11,1818.75 526.11,1818.62Z"/>
    </g>
    <g style="fill: #202b35" transform="matrix(0.816497,-0.57735,0.866025,0.612372,0,0)">
        <path d="M-105.222,2314.64C-105.222,2294.9 -119.221,2281.7 -140.159,2281.7C-209.393,2281.7 -365.169,2281.7 -456.236,2281.7C-472.276,2281.7 -490.07,2289.49 -503.961,2302.58C-517.852,2315.68 -526.11,2332.45 -526.11,2347.58L-526.11,2347.97C-526.11,2367.71 -512.112,2380.9 -491.173,2380.9L-175.096,2380.9C-159.056,2380.9 -141.262,2373.12 -127.371,2360.02C-113.48,2346.93 -105.222,2330.15 -105.222,2315.03L-105.222,2314.64Z"/>
    </g>
    <g style="fill: #202b35" transform="matrix(0.816497,-0.57735,0.866025,0.612372,0,0)">
        <path d="M-841.777,2017.03C-841.777,1997.29 -855.775,1984.09 -876.714,1984.09L-1087.57,1984.09C-1103.61,1984.09 -1121.4,1991.87 -1135.29,2004.97C-1149.18,2018.07 -1157.44,2034.84 -1157.44,2049.97L-1157.44,2050.35C-1157.44,2070.09 -1143.44,2083.29 -1122.51,2083.29L-911.651,2083.29C-895.611,2083.29 -877.817,2075.51 -863.926,2062.41C-850.035,2049.31 -841.777,2032.54 -841.777,2017.41L-841.777,2017.03Z"/>
    </g>
    <g style="fill: #202b35" transform="matrix(0.816497,-0.57735,0.866025,0.612372,0,0)">
        <path d="M-1262.66,1719.41C-1262.66,1699.67 -1276.66,1686.47 -1297.6,1686.47L-1613.68,1686.47C-1629.72,1686.47 -1647.51,1694.26 -1661.4,1707.36C-1675.3,1720.45 -1683.55,1737.23 -1683.55,1752.35L-1683.55,1752.74C-1683.55,1772.48 -1669.56,1785.68 -1648.62,1785.68L-1332.54,1785.68C-1316.5,1785.68 -1298.7,1777.89 -1284.81,1764.8C-1270.92,1751.7 -1262.66,1734.92 -1262.66,1719.8L-1262.66,1719.41Z"/>
    </g>
    <g style="fill: #202b35" transform="matrix(0.816497,-0.57735,0.866025,0.612372,0,0)">
        <path d="M-736.555,2413.84C-736.555,2394.1 -750.553,2380.9 -771.492,2380.9L-877.125,2380.9C-893.164,2380.9 -910.959,2388.69 -924.85,2401.79C-938.74,2414.88 -946.999,2431.66 -946.999,2446.78C-946.999,2446.91 -946.999,2447.04 -946.999,2447.17C-946.999,2466.91 -933,2480.11 -912.062,2480.11L-806.429,2480.11C-790.389,2480.11 -772.595,2472.32 -758.704,2459.23C-744.813,2446.13 -736.555,2429.35 -736.555,2414.23C-736.555,2414.1 -736.555,2413.97 -736.555,2413.84Z"/>
    </g>
    <g style="fill: #202b35" transform="matrix(0.816497,-0.57735,0.866025,0.612372,0,0)">
        <path d="M-315.666,2612.25C-315.666,2592.51 -329.665,2579.31 -350.603,2579.31L-561.459,2579.31C-577.498,2579.31 -595.293,2587.1 -609.183,2600.2C-623.074,2613.29 -631.333,2630.07 -631.333,2645.19L-631.333,2645.58C-631.333,2665.32 -617.334,2678.52 -596.396,2678.52L-385.54,2678.52C-369.501,2678.52 -351.706,2670.73 -337.815,2657.64C-323.925,2644.54 -315.666,2627.76 -315.666,2612.64L-315.666,2612.25Z"/>
    </g>
    <g style="fill: #202b35" transform="matrix(0.816497,-0.57735,0.866025,0.612372,0,0)">
        <path d="M-631.333,1521C-631.333,1501.26 -645.331,1488.07 -666.27,1488.07C-735.503,1488.07 -891.28,1488.07 -982.347,1488.07C-998.387,1488.07 -1016.18,1495.85 -1030.07,1508.95C-1043.96,1522.04 -1052.22,1538.82 -1052.22,1553.94L-1052.22,1554.33C-1052.22,1574.07 -1038.22,1587.27 -1017.28,1587.27L-701.207,1587.27C-685.167,1587.27 -667.372,1579.48 -653.482,1566.39C-639.591,1553.29 -631.333,1536.51 -631.333,1521.39L-631.333,1521Z"/>
    </g>
    <g style="fill: #202b35" transform="matrix(0.816497,-0.57735,0.866025,0.612372,0,0)">
        <path d="M-841.777,1223.39C-841.777,1203.65 -855.775,1190.45 -876.714,1190.45C-945.947,1190.45 -1101.72,1190.45 -1192.79,1190.45C-1208.83,1190.45 -1226.62,1198.24 -1240.52,1211.33C-1254.41,1224.43 -1262.66,1241.21 -1262.66,1256.33L-1262.66,1256.72C-1262.66,1276.46 -1248.67,1289.66 -1227.73,1289.66L-911.651,1289.66C-895.611,1289.66 -877.817,1281.87 -863.926,1268.77C-850.035,1255.68 -841.777,1238.9 -841.777,1223.78L-841.777,1223.39Z"/>
    </g>
    <g style="fill: #202b35" transform="matrix(0.816497,-0.57735,0.866025,0.612372,-85.9135,-182.25)">
        <path d="M-0,429.756C0,410.015 -13.999,396.817 -34.937,396.817L-245.792,396.817C-261.832,396.817 -279.626,404.603 -293.517,417.7C-307.408,430.796 -315.666,447.573 -315.666,462.695L-315.666,463.083C-315.666,482.824 -301.668,496.022 -280.729,496.022L-69.874,496.022C-53.834,496.022 -36.04,488.236 -22.149,475.139C-8.258,462.043 -0,445.266 0,430.144L-0,429.756Z"/>
    </g>
    <g style="fill: #202b35" transform="matrix(0.816497,-0.57735,0.866025,0.612372,0,0)">
        <path d="M526.11,628.165C526.11,608.424 512.112,595.226 491.173,595.226C421.94,595.226 266.163,595.226 175.096,595.226C159.056,595.226 141.262,603.012 127.371,616.108C113.48,629.205 105.222,645.981 105.222,661.104L105.222,661.491C105.222,681.232 119.221,694.43 140.159,694.43L456.236,694.43C472.276,694.43 490.07,686.644 503.961,673.548C517.852,660.452 526.11,643.675 526.11,628.553L526.11,628.165Z"/>
    </g>
    <g style="fill: #202b35" transform="matrix(0.816497,-0.57735,0.866025,0.612372,0,0)">
        <path d="M-315.666,2017.03C-315.666,1997.29 -329.665,1984.09 -350.603,1984.09L-456.236,1984.09C-472.276,1984.09 -490.07,1991.87 -503.961,2004.97C-517.852,2018.07 -526.11,2034.84 -526.11,2049.97C-526.11,2050.09 -526.11,2050.22 -526.11,2050.35C-526.11,2070.09 -512.112,2083.29 -491.173,2083.29L-385.54,2083.29C-369.501,2083.29 -351.706,2075.51 -337.815,2062.41C-323.925,2049.31 -315.666,2032.54 -315.666,2017.41C-315.666,2017.28 -315.666,2017.15 -315.666,2017.03Z"/>
    </g>
    <g style="fill: #202b35" transform="matrix(0.816497,-0.57735,0.866025,0.612372,515.481,-243)">
        <path d="M-315.666,2017.03C-315.666,1997.29 -329.665,1984.09 -350.603,1984.09L-456.236,1984.09C-472.276,1984.09 -490.07,1991.87 -503.961,2004.97C-517.852,2018.07 -526.11,2034.84 -526.11,2049.97C-526.11,2050.09 -526.11,2050.22 -526.11,2050.35C-526.11,2070.09 -512.112,2083.29 -491.173,2083.29L-385.54,2083.29C-369.501,2083.29 -351.706,2075.51 -337.815,2062.41C-323.925,2049.31 -315.666,2032.54 -315.666,2017.41C-315.666,2017.28 -315.666,2017.15 -315.666,2017.03Z"/>
    </g>
    <g style="fill: #202b35" transform="matrix(0.816497,-0.57735,0.866025,0.612372,-1270.14,-438.375)">
        <path d="M-315.666,2017.03C-315.666,1997.29 -329.665,1984.09 -350.603,1984.09L-456.236,1984.09C-472.276,1984.09 -490.07,1991.87 -503.961,2004.97C-517.852,2018.07 -526.11,2034.84 -526.11,2049.97C-526.11,2050.09 -526.11,2050.22 -526.11,2050.35C-526.11,2070.09 -512.112,2083.29 -491.173,2083.29L-385.54,2083.29C-369.501,2083.29 -351.706,2075.51 -337.815,2062.41C-323.925,2049.31 -315.666,2032.54 -315.666,2017.41C-315.666,2017.28 -315.666,2017.15 -315.666,2017.03Z"/>
    </g>
    <g style="fill: #202b35" transform="matrix(0.816497,-0.57735,0.866025,0.612372,0,0)">
        <path d="M841.777,1521C841.777,1501.26 827.778,1488.07 806.84,1488.07L385.54,1488.07C369.501,1488.07 351.706,1495.85 337.815,1508.95C323.925,1522.04 315.666,1538.82 315.666,1553.94L315.666,1554.33C315.666,1574.07 329.665,1587.27 350.603,1587.27L771.903,1587.27C787.942,1587.27 805.737,1579.48 819.628,1566.39C833.518,1553.29 841.777,1536.51 841.777,1521.39L841.777,1521Z"/>
    </g>
</svg>
