<?xml version="1.0" encoding="UTF-8" standalone="no"?>
<!DOCTYPE svg PUBLIC "-//W3C//DTD SVG 1.1//EN" "http://www.w3.org/Graphics/SVG/1.1/DTD/svg11.dtd">
<svg width="100%" height="100%" viewBox="0 0 2100 2100" version="1.1" xmlns="http://www.w3.org/2000/svg" xmlns:xlink="http://www.w3.org/1999/xlink" xml:space="preserve" xmlns:serif="http://www.serif.com/" style="fill-rule:evenodd;clip-rule:evenodd;stroke-linecap:round;stroke-linejoin:round;stroke-miterlimit:1.5;">
    <path d="M0,900L300,1050L150,1500L0,1350L0,900Z" style="fill:rgb(101,147,200);"/>
    <path d="M2100,900L1800,750L1650,900L1800,1200L1650,1350L1800,1500L2100,1350L2100,900Z" style="fill:rgb(101,147,200);"/>
    <path d="M300,600L450,900L600,1050L900,750L750,600L1050,450L900,300L450,150L300,600Z" style="fill:rgb(58,125,201);"/>
    <path d="M300,900L150,600L300,300L150,150L0,225L0,750L300,900Z" style="fill:rgb(77,135,200);"/>
    <path d="M2100,750L1800,600L1650,750L1500,600L1650,300L1800,450L2100,225L2100,750Z" style="fill:rgb(77,135,200);"/>
    <g transform="matrix(1,0,0,1,0,75)">
        <path d="M450,975L300,1425L600,1650L750,1425L675,1275L750,1125L675,1050L600,1125L450,975Z" style="fill:rgb(32,123,225);"/>
    </g>
    <path d="M750,1050L900,1200L825,1350L975,1650L1650,1500L1500,1350L1650,1200L1500,900L1200,1200L900,900L750,1050Z" style="fill:rgb(58,126,202);"/>
    <path d="M1200,1050L975,825L1050,750L900,600L1200,450L1350,300L1425,450L1350,600L1500,750L1200,1050Z" style="fill:rgb(55,96,141);"/>
    <path d="M1200,300L1125,375L900,150L450,0L1350,0L1200,300Z" style="fill:rgb(88,126,168);"/>
    <path d="M450,2100L600,1875L825,1575L900,1800L1500,1650L1650,1800L1350,2100L450,2100Z" style="fill:rgb(88,126,168);"/>
    <path d="M1500,2100L1800,1800L1650,1650L1800,1650L2100,1500L2100,2100L1500,2100Z" style="fill:rgb(128,161,199);"/>
    <path d="M1500,0L1425,150L1500,300L1650,150L1800,300L2100,150L2100,0L1500,0Z" style="fill:rgb(128,161,199);"/>
    <path d="M0,150L150,75L300,150L300,0L0,0L0,150Z" style="fill:rgb(128,161,199);"/>
    <path d="M0,1500L150,1650L300,1650L450,1800L300,2100L0,2100L0,1500Z" style="fill:rgb(128,161,199);"/>
</svg>
