<?xml version="1.0" encoding="UTF-8" standalone="no"?>
<!DOCTYPE svg PUBLIC "-//W3C//DTD SVG 1.1//EN" "http://www.w3.org/Graphics/SVG/1.1/DTD/svg11.dtd">
<svg width="100%" height="100%" viewBox="0 0 2100 2100" version="1.1" xmlns="http://www.w3.org/2000/svg" xmlns:xlink="http://www.w3.org/1999/xlink" xml:space="preserve" xmlns:serif="http://www.serif.com/" style="fill-rule:evenodd;clip-rule:evenodd;stroke-linejoin:round;stroke-miterlimit:2;">
    <circle cx="675" cy="675" r="75" style="fill:#232935;"/>
    <g transform="matrix(1,0,0,1,-450,300)">
        <circle cx="675" cy="675" r="75" style="fill:#232935;"/>
    </g>
    <g transform="matrix(1,0,0,1,300,150)">
        <circle cx="675" cy="675" r="75" style="fill:#232935;"/>
    </g>
    <g transform="matrix(1,0,0,1,450,900)">
        <circle cx="675" cy="675" r="75" style="fill:#232935;"/>
    </g>
    <g transform="matrix(1,0,0,1,150,975)">
        <circle cx="675" cy="675" r="75" style="fill:#232935;"/>
    </g>
    <g transform="matrix(2,0,0,2,750,-600)">
        <circle cx="675" cy="675" r="75" style="fill:#232935;"/>
    </g>
    <g transform="matrix(2,0,0,2,-1350,-600)">
        <circle cx="675" cy="675" r="75" style="fill:#232935;"/>
    </g>
    <g transform="matrix(1,0,0,1,1200,1050)">
        <circle cx="675" cy="675" r="75" style="fill:#232935;"/>
    </g>
    <g transform="matrix(1,0,0,1,975,525)">
        <circle cx="675" cy="675" r="75" style="fill:#232935;"/>
    </g>
    <g transform="matrix(1,0,0,1,-600,1125)">
        <circle cx="675" cy="675" r="75" style="fill:#232935;"/>
    </g>
    <g transform="matrix(3,0,0,3,-2.27374e-13,-750)">
        <circle cx="675" cy="675" r="75" style="fill:#232935;"/>
    </g>
    <g transform="matrix(3,0,0,3,-2100,-750)">
        <circle cx="675" cy="675" r="75" style="fill:#232935;"/>
    </g>
    <g transform="matrix(1,0,0,1,1050,-300)">
        <circle cx="675" cy="675" r="75" style="fill:#232935;"/>
    </g>
    <g transform="matrix(1,0,0,1,-75,-375)">
        <circle cx="675" cy="675" r="75" style="fill:#232935;"/>
    </g>
    <g transform="matrix(2,0,0,2,-300,-900)">
        <circle cx="675" cy="675" r="75" style="fill:#232935;"/>
    </g>
    <g transform="matrix(2,0,0,2,7.95808e-13,-1200)">
        <circle cx="675" cy="710" r="75" style="fill:#232935;"/>
    </g>
    <g transform="matrix(1,0,0,1,1125,-675)">
        <circle cx="675" cy="675" r="75" style="fill:#232935;"/>
    </g>
    <g transform="matrix(1,0,0,1,1125,1425)">
        <circle cx="675" cy="675" r="75" style="fill:#232935;"/>
    </g>
    <g transform="matrix(4,0,0,4,-2550,-2550)">
        <circle cx="675" cy="675" r="75" style="fill:#232935;"/>
    </g>
    <g transform="matrix(4,0,0,4,-2550,-450)">
        <circle cx="675" cy="675" r="75" style="fill:#232935;"/>
    </g>
    <g transform="matrix(4,0,0,4,-450,-450)">
        <circle cx="675" cy="675" r="75" style="fill:#232935;"/>
    </g>
    <g transform="matrix(4,0,0,4,-450,-2550)">
        <circle cx="675" cy="675" r="75" style="fill:#232935;"/>
    </g>
    <g transform="matrix(4,0,0,4,-1200,-1950)">
        <circle cx="675" cy="675" r="75" style="fill:#232935;"/>
    </g>
    <g transform="matrix(2,0,0,2,-900,300)">
        <circle cx="675" cy="675" r="75" style="fill:#232935;"/>
    </g>
    <g transform="matrix(4,0,0,4,-1950,-1500)">
        <circle cx="675" cy="675" r="75" style="fill:#232935;"/>
    </g>
    <g transform="matrix(3,0,0,3,-600,-150)">
        <circle cx="675" cy="675" r="75" style="fill:#232935;"/>
    </g>
    <g transform="matrix(3,0,0,3,-1200,75)">
        <circle cx="675" cy="675" r="75" style="fill:#232935;"/>
    </g>
    <g transform="matrix(3,0,0,3,-1200,-2025)">
        <circle cx="675" cy="675" r="75" style="fill:#232935;"/>
    </g>
    <g transform="matrix(2,0,0,2,5.11591e-13,-2.55795e-12)">
        <circle cx="675" cy="675" r="75" style="fill:#232935;"/>
    </g>
    <g transform="matrix(2,0,0,2,-975,-750)">
        <circle cx="675" cy="675" r="75" style="fill:#232935;"/>
    </g>
</svg>
