<?xml version="1.0" encoding="UTF-8" standalone="no"?>
<!DOCTYPE svg PUBLIC "-//W3C//DTD SVG 1.1//EN" "http://www.w3.org/Graphics/SVG/1.1/DTD/svg11.dtd">
<svg width="100%" height="100%" viewBox="0 0 2100 2100" version="1.1" xmlns="http://www.w3.org/2000/svg" xmlns:xlink="http://www.w3.org/1999/xlink" xml:space="preserve" xmlns:serif="http://www.serif.com/" style="fill-rule:evenodd;clip-rule:evenodd;stroke-linecap:round;stroke-linejoin:round;stroke-miterlimit:1.5;">
    <path d="M981.017,1050C984.629,1116.03 972.933,1139.43 976.526,1240.92C980.119,1342.42 992.693,1439.42 981.915,1529.24C971.137,1619.06 986.406,1736.63 969.34,1800C952.275,1863.37 950.479,1852.59 809.463,1843.61C668.447,1834.62 946.886,2022.35 1031.32,2076.24C1115.75,2130.13 1259.35,1909.3 1303.36,1837.44C1347.37,1765.59 1195.58,1826.67 1133.6,1830.26C1071.62,1833.85 1079.71,1831.85 1077.01,1535.45C1074.32,1239.05 1065.2,1269.57 1085.86,1117.77C1106.52,965.977 976.769,972.349 981.017,1050Z" style="stroke:black;stroke-width:1px;"/>
</svg>
