<?xml version="1.0" encoding="UTF-8" standalone="no"?>
<!DOCTYPE svg PUBLIC "-//W3C//DTD SVG 1.1//EN" "http://www.w3.org/Graphics/SVG/1.1/DTD/svg11.dtd">
<svg width="100%" height="100%" viewBox="0 0 3600 3600" version="1.1" xmlns="http://www.w3.org/2000/svg" xmlns:xlink="http://www.w3.org/1999/xlink" xml:space="preserve" xmlns:serif="http://www.serif.com/" style="fill-rule:evenodd;clip-rule:evenodd;stroke-linejoin:round;stroke-miterlimit:2;">
    <g transform="matrix(4.0638,0,0,4.0638,-5453.37,-6764)">
        <path d="M1824.69,1475.43C1798.17,1473.76 1771.58,1473.76 1745.06,1475.43L1783.23,2085.74C1784.33,2085.66 1785.42,2085.66 1786.52,2085.74L1824.69,1475.43ZM1666.06,1485.41C1639.97,1490.38 1614.21,1497 1588.94,1505.21L1777.69,2086.86C1778.73,2086.51 1779.79,2086.23 1780.87,2086.04L1666.06,1485.41ZM1514.91,1534.52C1490.87,1545.83 1467.56,1558.64 1445.13,1572.88L1772.6,2089.31C1773.52,2088.72 1774.48,2088.19 1775.48,2087.73L1514.91,1534.52ZM1380.71,1619.68C1360.24,1636.62 1340.86,1654.82 1322.67,1674.19L1768.28,2092.96C1769.03,2092.15 1769.83,2091.4 1770.68,2090.71L1380.71,1619.68ZM1271.91,1735.54C1256.3,1757.04 1242.05,1779.49 1229.25,1802.77L1765.01,2097.57C1765.52,2096.6 1766.11,2095.67 1766.77,2094.79L1271.91,1735.54ZM1195.35,1874.82C1185.57,1899.52 1177.35,1924.81 1170.74,1950.55L1762.98,2102.84C1763.24,2101.78 1763.58,2100.73 1763.99,2099.72L1195.35,1874.82ZM1155.82,2028.76C1152.49,2055.12 1150.82,2081.66 1150.82,2108.23L1762.33,2108.46C1762.32,2107.36 1762.38,2106.26 1762.53,2105.18L1155.82,2028.76ZM1155.82,2187.7C1159.15,2214.06 1164.13,2240.18 1170.74,2265.91L1763.09,2114.06C1762.81,2113 1762.6,2111.92 1762.48,2110.83L1155.82,2187.7ZM1195.35,2341.64C1205.13,2366.34 1216.45,2390.41 1229.25,2413.69L1765.22,2119.29C1764.69,2118.34 1764.22,2117.34 1763.83,2116.32L1195.35,2341.64ZM1271.91,2480.92C1287.53,2502.41 1304.48,2522.9 1322.67,2542.27L1768.59,2123.83C1767.83,2123.04 1767.13,2122.19 1766.5,2121.3L1271.91,2480.92ZM1380.71,2596.78C1401.18,2613.71 1422.7,2629.34 1445.13,2643.58L1772.98,2127.39C1772.05,2126.81 1771.16,2126.16 1770.33,2125.46L1380.71,2596.78ZM1514.91,2681.94C1538.95,2693.25 1563.67,2703.04 1588.94,2711.25L1778.12,2129.74C1777.08,2129.41 1776.06,2129.01 1775.07,2128.53L1514.91,2681.94ZM1666.06,2731.05C1692.16,2736.03 1718.55,2739.36 1745.06,2741.03L1783.68,2130.75C1782.59,2130.69 1781.5,2130.55 1780.43,2130.34L1666.06,2731.05ZM1824.69,2741.03C1851.2,2739.36 1877.59,2736.03 1903.68,2731.05L1789.32,2130.34C1788.25,2130.55 1787.16,2130.69 1786.06,2130.75L1824.69,2741.03ZM1980.81,2711.25C2006.08,2703.04 2030.8,2693.25 2054.84,2681.94L1794.68,2128.53C1793.69,2129.01 1792.67,2129.41 1791.63,2129.74L1980.81,2711.25ZM2124.62,2643.58C2147.05,2629.34 2168.56,2613.71 2189.03,2596.78L1799.42,2125.46C1798.58,2126.16 1797.7,2126.81 1796.76,2127.39L2124.62,2643.58ZM2247.08,2542.27C2265.27,2522.9 2282.22,2502.41 2297.83,2480.92L1803.25,2121.3C1802.61,2122.19 1801.91,2123.04 1801.15,2123.83L2247.08,2542.27ZM2340.5,2413.69C2353.3,2390.41 2364.62,2366.34 2374.4,2341.64L1805.92,2116.32C1805.53,2117.34 1805.06,2118.34 1804.52,2119.29L2340.5,2413.69ZM2399.01,2265.91C2405.62,2240.18 2410.6,2214.06 2413.93,2187.7L1807.27,2110.83C1807.15,2111.92 1806.94,2113 1806.66,2114.06L2399.01,2265.91ZM2418.93,2108.23C2418.93,2081.66 2417.26,2055.12 2413.93,2028.76L1807.22,2105.18C1807.36,2106.26 1807.43,2107.36 1807.42,2108.46L2418.93,2108.23ZM2399.01,1950.55C2392.4,1924.81 2384.18,1899.52 2374.4,1874.82L1805.76,2099.72C1806.17,2100.73 1806.51,2101.78 1806.77,2102.84L2399.01,1950.55ZM2340.5,1802.77C2327.7,1779.49 2313.45,1757.04 2297.83,1735.54L1802.98,2094.79C1803.63,2095.67 1804.22,2096.6 1804.74,2097.57L2340.5,1802.77ZM2247.08,1674.19C2228.89,1654.82 2209.51,1636.62 2189.03,1619.68L1799.07,2090.71C1799.92,2091.4 1800.72,2092.15 1801.47,2092.96L2247.08,1674.19ZM2124.62,1572.88C2102.18,1558.64 2078.88,1545.83 2054.84,1534.52L1794.27,2087.73C1795.27,2088.19 1796.23,2088.72 1797.15,2089.31L2124.62,1572.88ZM1980.81,1505.21C1955.54,1497 1929.78,1490.38 1903.68,1485.41L1788.88,2086.04C1789.95,2086.23 1791.02,2086.51 1792.06,2086.86L1980.81,1505.21Z" style="fill:url(#_Radial1);"/>
    </g>
    <defs>
        <radialGradient id="_Radial1" cx="0" cy="0" r="1" gradientUnits="userSpaceOnUse" gradientTransform="matrix(634.054,0,0,634.054,1784.87,2108.23)"><stop offset="0" style="stop-color:white;stop-opacity:0"/><stop offset="0.06" style="stop-color:rgb(241,241,241);stop-opacity:0"/><stop offset="0.14" style="stop-color:rgb(206,206,206);stop-opacity:0"/><stop offset="0.62" style="stop-color:rgb(62,82,162);stop-opacity:0.7"/><stop offset="1" style="stop-color:white;stop-opacity:1"/></radialGradient>
    </defs>
</svg>
