<?xml version="1.0" encoding="UTF-8" standalone="no"?>
<!DOCTYPE svg PUBLIC "-//W3C//DTD SVG 1.1//EN" "http://www.w3.org/Graphics/SVG/1.1/DTD/svg11.dtd">
<svg width="100%" height="100%" viewBox="0 0 2100 2100" version="1.1" xmlns="http://www.w3.org/2000/svg" xmlns:xlink="http://www.w3.org/1999/xlink" xml:space="preserve" xmlns:serif="http://www.serif.com/" style="fill-rule:evenodd;clip-rule:evenodd;stroke-linecap:round;stroke-linejoin:round;stroke-miterlimit:1.5;">
    <g transform="matrix(0.629566,0,0,0.803713,-4.87288,324.113)">
        <path d="M724.26,572.295C743.725,615.648 764.925,649.311 764.308,704.762C763.692,760.214 797.579,752.204 802.508,704.146C807.437,656.088 774.783,593.859 764.308,553.195C753.834,512.531 751.37,448.453 751.986,417.031C752.602,385.609 707.009,356.651 706.393,416.415C705.776,476.179 710.705,542.105 724.26,572.295Z" style="stroke:rgb(35,31,32);stroke-width:1.39px;"/>
    </g>
    <g transform="matrix(0.717504,0,0,1.00349,-171.089,355.303)">
        <path d="M1197.39,527.035C1197.07,564.467 1222.49,568.626 1231.78,527.035C1241.07,485.444 1245.72,436.651 1255.01,404.587C1264.31,372.523 1260.36,341.293 1250.61,290.176C1240.85,239.06 1209.71,261.83 1215.75,300.4C1221.79,338.969 1235.27,352.445 1223.19,404.026C1211.11,455.608 1197.62,500.412 1197.39,527.035Z" style="stroke:rgb(35,31,32);stroke-width:1.15px;"/>
    </g>
    <g transform="matrix(-0.616002,0,0,0.803713,1825.91,324.977)">
        <path d="M724.26,572.295C743.725,615.648 764.925,649.311 764.308,704.762C763.692,760.214 797.579,752.204 802.508,704.146C807.437,656.088 774.783,593.859 764.308,553.195C753.834,512.531 751.37,448.453 751.986,417.031C752.602,385.609 707.009,356.651 706.393,416.415C705.776,476.179 710.705,542.105 724.26,572.295Z" style="stroke:rgb(35,31,32);stroke-width:1.4px;"/>
    </g>
    <g transform="matrix(-0.702045,0,0,1.00349,1988.55,356.167)">
        <path d="M1197.39,527.035C1197.07,564.467 1222.49,568.626 1231.78,527.035C1241.07,485.444 1245.72,436.651 1255.01,404.587C1264.31,372.523 1260.36,341.293 1250.61,290.176C1240.85,239.06 1209.71,261.83 1215.75,300.4C1221.79,338.969 1235.27,352.445 1223.19,404.026C1211.11,455.608 1197.62,500.412 1197.39,527.035Z" style="stroke:rgb(35,31,32);stroke-width:1.15px;"/>
    </g>
    <g transform="matrix(0.717504,0,0,0.717504,39.8347,511.672)">
        <path d="M1197.39,527.035C1197.07,564.467 1222.49,568.626 1231.78,527.035C1241.07,485.444 1245.72,436.651 1255.01,404.587C1264.31,372.523 1260.36,341.293 1250.61,290.176C1240.85,239.06 1209.71,261.83 1215.75,300.4C1221.79,338.969 1235.27,352.445 1223.19,404.026C1211.11,455.608 1197.62,500.412 1197.39,527.035Z" style="stroke:rgb(35,31,32);stroke-width:1.39px;"/>
    </g>
    <g transform="matrix(0.677439,0.236407,-0.332673,0.953294,1134.13,117.152)">
        <path d="M1197.39,527.035C1197.07,564.467 1222.49,568.626 1231.78,527.035C1241.07,485.444 1245.72,436.651 1255.01,404.587C1264.31,372.523 1260.36,341.293 1250.61,290.176C1240.85,239.06 1209.71,261.83 1215.75,300.4C1221.79,338.969 1235.27,352.445 1223.19,404.026C1211.11,455.608 1197.62,500.412 1197.39,527.035Z" style="stroke:rgb(35,31,32);stroke-width:1.14px;"/>
    </g>
    <g transform="matrix(0.514741,0.499853,-0.610577,0.628763,-262.028,389.53)">
        <path d="M1197.39,527.035C1197.07,564.467 1222.49,568.626 1231.78,527.035C1241.07,485.444 1245.72,436.651 1255.01,404.587C1264.31,372.523 1260.36,341.293 1250.61,290.176C1240.85,239.06 1209.71,261.83 1215.75,300.4C1221.79,338.969 1235.27,352.445 1223.19,404.026C1211.11,455.608 1197.62,500.412 1197.39,527.035Z" style="stroke:rgb(35,31,32);stroke-width:1.25px;"/>
    </g>
    <g transform="matrix(0.629566,0,0,0.629566,681.38,561.842)">
        <path d="M1372.38,527.035C1374.25,564.361 1396.54,578.727 1411.41,527.035C1426.28,475.342 1439.76,414.859 1439.76,381.67C1439.76,348.481 1446.54,272.663 1449.92,234.241C1453.58,192.68 1414.51,189.183 1416.93,234.241C1419.35,279.407 1413.73,330.285 1405.37,381.67C1397.01,433.055 1371.45,508.559 1372.38,527.035Z" style="stroke:rgb(35,31,32);stroke-width:1.59px;"/>
    </g>
    <g transform="matrix(-0.629566,-0.000281878,0.000343154,-0.766426,1334.88,1805.07)">
        <path d="M569.745,740.877C560.353,697.051 554.283,654.735 524.097,606.142C493.91,557.549 502.009,536.197 491.701,486.868C481.394,437.539 530.723,410.298 537.349,472.879C543.976,535.461 546.184,547.977 567.536,596.57C588.887,645.163 605.821,699.646 609.502,738.668C613.184,777.689 580.788,792.415 569.745,740.877Z" style="stroke:rgb(35,31,32);stroke-width:1.43px;"/>
    </g>
    <g transform="matrix(-0.413708,0.474552,-0.474552,-0.413708,2475.08,1123.71)">
        <path d="M724.26,572.295C743.725,615.648 764.925,649.311 764.308,704.762C763.692,760.214 797.579,752.204 802.508,704.146C807.437,656.088 774.783,593.859 764.308,553.195C753.834,512.531 751.37,448.453 751.986,417.031C752.602,385.609 707.009,356.651 706.393,416.415C705.776,476.179 710.705,542.105 724.26,572.295Z" style="stroke:rgb(35,31,32);stroke-width:1.59px;"/>
    </g>
    <g transform="matrix(-0.621987,-0.0973973,0.0844028,-0.539003,774.908,1685.18)">
        <path d="M724.26,572.295C743.725,615.648 764.925,649.311 764.308,704.762C763.692,760.214 797.579,752.204 802.508,704.146C807.437,656.088 774.783,593.859 764.308,553.195C753.834,512.531 751.37,448.453 751.986,417.031C752.602,385.609 707.009,356.651 706.393,416.415C705.776,476.179 710.705,542.105 724.26,572.295Z" style="stroke:rgb(35,31,32);stroke-width:1.7px;"/>
    </g>
    <g transform="matrix(-0.629566,-0.000281878,0.000248026,-0.55396,1361.59,1602.52)">
        <path d="M928.647,668.939C933.036,713.706 968.695,717.613 968.695,677.565C968.695,637.517 965.615,593.156 973.008,546.946C980.402,500.737 1016.75,427.725 1017.37,381.67C1017.99,335.615 976.705,340.235 974.241,381.67C971.776,423.105 939.121,496.424 935.425,537.704C931.728,578.985 925.566,637.517 928.647,668.939Z" style="stroke:rgb(35,31,32);stroke-width:1.69px;"/>
    </g>
    <g transform="matrix(-0.629566,-0.000281878,0.000248026,-0.55396,2256.18,1602.66)">
        <path d="M928.647,668.939C933.036,713.706 968.695,717.613 968.695,677.565C968.695,637.517 965.615,593.156 973.008,546.946C980.402,500.737 1016.75,427.725 1017.37,381.67C1017.99,335.615 976.705,340.235 974.241,381.67C971.776,423.105 939.121,496.424 935.425,537.704C931.728,578.985 925.566,637.517 928.647,668.939Z" style="stroke:rgb(35,31,32);stroke-width:1.69px;"/>
    </g>
    <g transform="matrix(0.106209,0.7096,-0.803171,0.120214,2178.39,112.555)">
        <path d="M1197.39,527.035C1197.07,564.467 1222.49,568.626 1231.78,527.035C1241.07,485.444 1245.72,436.651 1255.01,404.587C1264.31,372.523 1260.36,341.293 1250.61,290.176C1240.85,239.06 1209.71,261.83 1215.75,300.4C1221.79,338.969 1235.27,352.445 1223.19,404.026C1211.11,455.608 1197.62,500.412 1197.39,527.035Z" style="stroke:rgb(35,31,32);stroke-width:1.31px;"/>
    </g>
    <g transform="matrix(-0.18396,0.692674,0.654351,0.185099,55.4408,73.969)">
        <path d="M1197.39,527.035C1197.07,564.467 1222.49,568.626 1231.78,527.035C1241.07,485.444 1245.72,436.651 1255.01,404.587C1264.31,372.523 1260.36,341.293 1250.61,290.176C1240.85,239.06 1209.71,261.83 1215.75,300.4C1221.79,338.969 1235.27,352.445 1223.19,404.026C1211.11,455.608 1197.62,500.412 1197.39,527.035Z" style="stroke:rgb(35,31,32);stroke-width:1.42px;"/>
    </g>
    <g transform="matrix(-0.629566,-0.000281878,0.000322971,-0.721347,1442.04,1616.3)">
        <path d="M1372.38,527.035C1374.25,564.361 1396.54,578.727 1411.41,527.035C1426.28,475.342 1439.76,414.859 1439.76,381.67C1439.76,348.481 1446.54,272.663 1449.92,234.241C1453.58,192.68 1414.51,189.183 1416.93,234.241C1419.35,279.407 1413.73,330.285 1405.37,381.67C1397.01,433.055 1371.45,508.559 1372.38,527.035Z" style="stroke:rgb(35,31,32);stroke-width:1.48px;"/>
    </g>
    <g transform="matrix(0.692,-0.0973973,-0.0939035,-0.539003,959.935,1698.05)">
        <path d="M724.26,572.295C743.725,615.648 764.925,649.311 764.308,704.762C763.692,760.214 797.579,752.204 802.508,704.146C807.437,656.088 774.783,593.859 764.308,553.195C753.834,512.531 751.37,448.453 751.986,417.031C752.602,385.609 707.009,356.651 706.393,416.415C705.776,476.179 710.705,542.105 724.26,572.295Z" style="stroke:rgb(35,31,32);stroke-width:1.62px;"/>
    </g>
    <g transform="matrix(0.700433,-0.000281878,-0.000359326,-0.721347,217.705,1629.16)">
        <path d="M1372.38,527.035C1374.25,564.361 1396.54,578.727 1411.41,527.035C1426.28,475.342 1439.76,414.859 1439.76,381.67C1439.76,348.481 1446.54,272.663 1449.92,234.241C1453.58,192.68 1414.51,189.183 1416.93,234.241C1419.35,279.407 1413.73,330.285 1405.37,381.67C1397.01,433.055 1371.45,508.559 1372.38,527.035Z" style="stroke:rgb(35,31,32);stroke-width:1.41px;"/>
    </g>
    <g transform="matrix(0.529796,-0.340103,0.401669,0.625701,-686.002,1042.28)">
        <path d="M1372.38,527.035C1374.25,564.361 1396.54,578.727 1411.41,527.035C1426.28,475.342 1439.76,414.859 1439.76,381.67C1439.76,348.481 1446.54,272.663 1449.92,234.241C1453.58,192.68 1414.51,189.183 1416.93,234.241C1419.35,279.407 1413.73,330.285 1405.37,381.67C1397.01,433.055 1371.45,508.559 1372.38,527.035Z" style="stroke:rgb(35,31,32);stroke-width:1.45px;"/>
    </g>
</svg>
