<?xml version="1.0" encoding="UTF-8" standalone="no"?>
<!DOCTYPE svg PUBLIC "-//W3C//DTD SVG 1.1//EN" "http://www.w3.org/Graphics/SVG/1.1/DTD/svg11.dtd">
<svg fill="hsl(216, 38%, 75%)" stroke="hsl(216, 38%, 75%)" width="100%" height="100%" viewBox="0 0 2100 2100" version="1.1" xmlns="http://www.w3.org/2000/svg" xmlns:xlink="http://www.w3.org/1999/xlink" xml:space="preserve" xmlns:serif="http://www.serif.com/" style="fill-rule:evenodd;clip-rule:evenodd;stroke-linecap:round;stroke-linejoin:round;stroke-miterlimit:1.5;">
    <g transform="matrix(1,0,0,1,-33.7292,103.844)">
        <path d="M872.629,1187.92C840.08,1101.27 813.485,997.357 751.627,898.881C709.883,832.426 680.279,791.484 653.586,760.931C565.371,753.128 427.82,742.749 427.078,791.654C427.078,791.654 406.008,829.58 406.008,876.777C406.008,923.973 427.921,1021.79 424.55,1050C421.179,1078.21 413.594,1140.57 421.179,1170.07C428.764,1199.57 543.385,1192.83 727.958,1190.3C802.138,1189.28 844.871,1188.54 872.629,1187.92Z" style="stroke:black;stroke-width:1px;"/>
    </g>
    <g>
        <g transform="matrix(1,0,0,1,-11.6866,103.844)">
            <path d="M899.077,771.953L900.038,771.582L893.99,772.269C886.582,773.244 879.565,774.059 872.892,774.688C878.055,781.506 882.899,788.308 887.397,795.1C892.767,803.211 897.91,811.833 902.816,820.897L899.077,771.953Z" style="stroke:black;stroke-width:1px;"/>
        </g>
        <g transform="matrix(1,0,0,1,-11.6866,103.844)">
            <path d="M900.038,771.582C915.567,765.818 1113.77,689.707 1174.49,548.837C1237.69,402.19 1273.09,513.44 1273.09,547.152C1273.09,580.864 1291.34,1325.78 1287.97,1362.02C1284.6,1398.26 1281.23,1461.47 1209.59,1370.45C1181.08,1334.22 1145.25,1296.89 1106.8,1265.42C1095.52,1249.56 1083.84,1233.84 1071.77,1218.23C1027.52,1161 998.336,1071.07 968.39,983.278C964.066,941.995 960.347,902.475 963.099,868.349C967.222,817.218 989.099,762.054 900.038,771.582Z" style="stroke:black;stroke-width:1px;"/>
        </g>
        <g transform="matrix(1,0,0,1,-11.6866,103.844)">
            <path d="M900.038,771.582C989.099,762.054 967.222,817.218 963.099,868.349C960.347,902.475 964.066,941.995 968.39,983.278C948.437,924.749 928.139,867.169 902.816,820.897L899.077,771.953L900.038,771.582Z" style="stroke:black;stroke-width:1px;"/>
        </g>
    </g>
    <g transform="matrix(0.937508,0.104099,-0.104099,0.937508,280.828,275.268)">
        <path d="M259.751,301.669C259.751,301.669 348.15,494.947 415.572,544.39C482.994,593.833 509.963,607.317 595.365,725.681C680.766,844.045 698.746,977.276 767.666,1050C836.587,1122.72 920.348,1211.34 956.377,1296.63C992.407,1381.92 1101.6,1320.5 1050,1226.11C998.401,1131.71 942.09,1047.81 872.108,968.402C802.127,888.993 766.168,721.186 700.244,634.286C634.32,547.386 491.984,463.483 432.053,358.604C372.122,253.724 377.764,267.447 346.651,246.233C313.97,223.949 222.295,210.275 259.751,301.669Z"/>
    </g>

</svg>
