<?xml version="1.0" encoding="UTF-8" standalone="no"?>
<svg fill="hsl(216, 38%, 75%)" stroke="hsl(216, 38%, 75%)" width="100%" height="100%" viewBox="0 0 2100 2100" version="1.1" xmlns="http://www.w3.org/2000/svg" xmlns:xlink="http://www.w3.org/1999/xlink" xml:space="preserve" xmlns:serif="http://www.serif.com/" style="fill-rule:evenodd;clip-rule:evenodd;stroke-linecap:round;stroke-linejoin:round;stroke-miterlimit:1.5;">
    <g transform="matrix(0.759344,0,0,1,84.7988,101.973)">
        <path d="M427.078,791.654C427.078,791.654 406.008,829.58 406.008,876.777C406.008,923.973 427.921,1021.79 424.55,1050C421.179,1078.21 413.594,1140.57 421.179,1170.07C428.764,1199.57 543.385,1192.83 727.958,1190.3C912.531,1187.77 902.418,1186.93 951.3,1186.08C1000.18,1185.24 979.955,1114.5 974.898,1050C969.842,985.498 958.885,920.602 963.099,868.349C967.313,816.095 990.069,759.627 893.99,772.269C797.91,784.911 767.57,770.584 686.661,763.841C605.752,757.099 427.921,736.029 427.078,791.654Z" style="stroke:black;stroke-width:1.13px;"/>
    </g>
    <g transform="matrix(1,0,0,1,-151.849,101.973)">
        <path d="M899.077,771.953C899.077,771.953 1111.28,695.485 1174.49,548.837C1237.69,402.19 1273.09,513.44 1273.09,547.152C1273.09,580.864 1291.34,1325.78 1287.97,1362.02C1284.6,1398.26 1281.23,1461.47 1209.59,1370.45C1137.95,1279.42 1020.12,1181.44 930.75,1186.61" style="stroke:black;stroke-width:1px;"/>
    </g>
    <g transform="matrix(0.63432,0,0,0.63432,337.182,399.876)">
        <path d="M1318.9,661.58C1318.9,661.58 1304.19,861.492 1318.04,963.612C1331.88,1065.73 1334.48,1130.64 1326.69,1259.59C1318.9,1388.53 1307.65,1399.78 1318.9,1433.53C1330.15,1467.29 1713.53,1449.11 1712.67,1126.31C1711.8,803.509 1697.95,831.202 1635.64,763.7C1573.33,696.197 1316.3,559.461 1318.9,661.58Z"/>
    </g>
</svg>
