<?xml version="1.0" encoding="UTF-8" standalone="no"?>
<!DOCTYPE svg PUBLIC "-//W3C//DTD SVG 1.1//EN" "http://www.w3.org/Graphics/SVG/1.1/DTD/svg11.dtd">
<svg fill="hsl(216, 38%, 75%)" stroke="hsl(216, 38%, 75%)" width="100%" height="100%" viewBox="0 0 2100 2100" version="1.1" xmlns="http://www.w3.org/2000/svg" xmlns:xlink="http://www.w3.org/1999/xlink" xml:space="preserve" xmlns:serif="http://www.serif.com/" style="fill-rule:evenodd;clip-rule:evenodd;stroke-linecap:round;stroke-linejoin:round;stroke-miterlimit:1.5;">
    <g transform="matrix(0.759344,0,0,1,84.7988,101.973)">
        <path d="M427.078,791.654C427.078,791.654 406.008,829.58 406.008,876.777C406.008,923.973 427.921,1021.79 424.55,1050C421.179,1078.21 413.594,1140.57 421.179,1170.07C428.764,1199.57 543.385,1192.83 727.958,1190.3C912.531,1187.77 902.418,1186.93 951.3,1186.08C1000.18,1185.24 979.955,1114.5 974.898,1050C969.842,985.498 958.885,920.602 963.099,868.349C967.313,816.095 990.069,759.627 893.99,772.269C797.91,784.911 767.57,770.584 686.661,763.841C605.752,757.099 427.921,736.029 427.078,791.654Z" style="stroke:black;stroke-width:1.13px;"/>
    </g>
    <g transform="matrix(1,0,0,1,-151.849,101.973)">
        <path d="M899.077,771.953C899.077,771.953 1111.28,695.485 1174.49,548.837C1237.69,402.19 1273.09,513.44 1273.09,547.152C1273.09,580.864 1291.34,1325.78 1287.97,1362.02C1284.6,1398.26 1281.23,1461.47 1209.59,1370.45C1137.95,1279.42 1020.12,1181.44 930.75,1186.61" style="stroke:black;stroke-width:1px;"/>
    </g>
    <g transform="matrix(0.63432,0,0,0.63432,337.182,399.876)">
        <path d="M1318.9,661.58C1318.9,661.58 1304.19,861.492 1318.04,963.612C1331.88,1065.73 1334.48,1130.64 1326.69,1259.59C1318.9,1388.53 1307.65,1399.78 1318.9,1433.53C1330.15,1467.29 1713.53,1449.11 1712.67,1126.31C1711.8,803.509 1697.95,831.202 1635.64,763.7C1573.33,696.197 1316.3,559.461 1318.9,661.58Z"/>
    </g>
    <g transform="matrix(0.670445,0,0,0.670445,306.16,345.324)">
        <path d="M1330.8,595.698C1330.8,595.698 1404.87,601.473 1446.73,627.39C1488.6,653.308 1632.73,710.775 1672.49,772.579C1712.24,834.382 1746.54,919.58 1752.53,1004.64C1758.51,1089.71 1769.68,1262.66 1723.25,1325.12C1676.82,1387.59 1596.68,1464.67 1529.56,1489.92C1462.44,1515.17 1403.29,1506.53 1372.72,1513.85C1342.15,1521.15 1318.23,1510.52 1317.56,1576.98C1316.9,1643.43 1285.64,1674.14 1445.14,1661.51C1604.63,1648.88 1828.31,1511.8 1858.88,1360.28C1889.45,1208.76 1902.74,1131.99 1888.79,1083.65C1874.83,1035.32 1851.11,869.751 1840.48,816.483C1829.85,763.214 1751.82,635.389 1660.67,575.655C1572.73,518.013 1493.19,480.091 1444.68,464.806C1396.17,449.521 1284.92,413.759 1287.67,503.596C1288.73,538.371 1252.78,562.673 1330.8,595.698Z"/>
    </g>
    <g transform="matrix(0.759749,0,0,0.759749,202.497,274.873)">
        <path d="M1389.7,441.241C1443.57,447.975 1499.27,458.795 1544.8,489.048C1590.33,519.301 1661.27,569.868 1705.9,598.608C1750.52,627.349 1794.97,714.925 1815.37,782.994C1835.78,851.064 1831.24,925.94 1851.66,989.472C1872.09,1053 1860.74,1071.16 1855.45,1121.83C1850.15,1172.5 1844.13,1317.72 1815.37,1374.44C1786.62,1431.17 1769.03,1458.1 1707.01,1504.98C1644.99,1551.85 1594.78,1573.79 1521.56,1598.75C1448.35,1623.71 1378.65,1627.1 1327.22,1627.85C1275.79,1628.61 1273.3,1661.04 1272.76,1698.95C1272.26,1734.59 1301.02,1755.32 1347.91,1749.27C1394.81,1743.22 1497.34,1734.92 1560.87,1725.84C1624.4,1716.77 1747.95,1658.99 1797.06,1616.82C1830.59,1588.03 1859.98,1560.5 1888.72,1492.43C1917.47,1424.36 1938.64,1367.06 1956.79,1296.63C1974.95,1226.2 1982.51,1184.61 1979.48,1112.75C1976.46,1040.9 1966.63,953.168 1966.63,890.393C1966.63,827.618 1936.37,720.219 1915.2,681.646C1894.02,643.073 1887.21,630.272 1828.97,561.418C1770.74,492.564 1723.09,438.284 1703.53,423.149C1683.96,408.013 1587.1,379.222 1537.18,348.212C1487.26,317.203 1466.09,309.639 1430.54,303.589C1394.99,297.538 1352.64,287.706 1317.09,290.731C1281.54,293.756 1225.57,420.063 1286.08,432.921C1346.59,445.779 1353.39,436.703 1389.7,441.241Z"/>
    </g>
</svg>
