<?xml version="1.0" encoding="UTF-8" standalone="no"?>
<!DOCTYPE svg PUBLIC "-//W3C//DTD SVG 1.1//EN" "http://www.w3.org/Graphics/SVG/1.1/DTD/svg11.dtd">
<svg width="100%" height="100%" viewBox="0 0 2100 2100" version="1.1" xmlns="http://www.w3.org/2000/svg" xmlns:xlink="http://www.w3.org/1999/xlink" xml:space="preserve" xmlns:serif="http://www.serif.com/" style="fill-rule:evenodd;clip-rule:evenodd;stroke-linejoin:round;stroke-miterlimit:2;">
    <g transform="matrix(2.0159,0.833748,-0.833748,2.0159,1227.42,-1540.38)">
        <path d="M398.68,1092.56L243.273,1092.56L243.273,1630.35C243.273,1632.54 244.533,1634.53 246.51,1635.46C248.486,1636.39 250.824,1636.1 252.512,1634.71C270.198,1620.16 308.152,1588.93 320.167,1579.04C322.314,1577.27 325.426,1577.33 327.506,1579.18C338.63,1589.04 372.625,1619.2 389.282,1633.98C390.945,1635.45 393.319,1635.82 395.348,1634.9C397.376,1633.99 398.68,1631.98 398.68,1629.75L398.68,1092.56Z" style="fill:rgb(223,101,101);stroke:black;stroke-width:9.17px;"/>
    </g>
    <g transform="matrix(-2.0159,0.833748,0.833748,2.0159,872.585,-1540.38)">
        <path d="M398.68,1092.56L243.273,1092.56L243.273,1630.35C243.273,1632.54 244.533,1634.53 246.51,1635.46C248.486,1636.39 250.824,1636.1 252.512,1634.71C270.198,1620.16 308.152,1588.93 320.167,1579.04C322.314,1577.27 325.426,1577.33 327.506,1579.18C338.63,1589.04 372.625,1619.2 389.282,1633.98C390.945,1635.45 393.319,1635.82 395.348,1634.9C397.376,1633.99 398.68,1631.98 398.68,1629.75L398.68,1092.56Z" style="fill:rgb(223,101,101);stroke:black;stroke-width:9.17px;"/>
    </g>
    <g transform="matrix(2.18151,0,0,2.18151,-1194.4,-1421.2)">
        <path d="M1035.37,661.235C1033.7,659.386 1031.32,658.331 1028.82,658.331C1026.33,658.331 1023.95,659.386 1022.28,661.235C1012.41,672.128 993.963,692.485 985.386,701.952C982.676,704.943 978.284,705.718 974.714,703.834C963.417,697.871 939.123,685.05 926.123,678.189C923.916,677.025 921.321,676.847 918.977,677.701C916.633,678.554 914.758,680.358 913.817,682.668C908.268,696.28 897.899,721.718 893.077,733.547C891.554,737.285 887.691,739.515 883.693,738.965C871.037,737.227 843.823,733.487 829.261,731.487C826.789,731.147 824.289,731.868 822.379,733.471C820.468,735.075 819.324,737.411 819.229,739.904C818.67,754.593 817.627,782.043 817.142,794.808C816.988,798.841 814.122,802.258 810.176,803.109C797.689,805.804 770.838,811.598 756.469,814.699C754.03,815.225 751.928,816.757 750.681,818.918C749.433,821.078 749.158,823.665 749.921,826.04C754.42,840.034 762.828,866.185 766.738,878.346C767.974,882.189 766.448,886.38 763.032,888.529C752.219,895.332 728.969,909.961 716.527,917.789C714.416,919.117 712.964,921.276 712.531,923.733C712.098,926.189 712.723,928.715 714.253,930.685C723.267,942.296 740.112,963.995 747.946,974.086C750.421,977.274 750.421,981.734 747.946,984.922C740.112,995.013 723.267,1016.71 714.253,1028.32C712.723,1030.29 712.098,1032.82 712.531,1035.28C712.964,1037.73 714.416,1039.89 716.527,1041.22C728.969,1049.05 752.219,1063.67 763.032,1070.48C766.448,1072.63 767.974,1076.82 766.738,1080.66C762.828,1092.82 754.42,1118.97 749.921,1132.97C749.158,1135.34 749.433,1137.93 750.681,1140.09C751.928,1142.25 754.03,1143.78 756.469,1144.31C770.838,1147.41 797.689,1153.2 810.176,1155.9C814.122,1156.75 816.988,1160.17 817.142,1164.2C817.627,1176.96 818.67,1204.41 819.229,1219.1C819.324,1221.6 820.468,1223.93 822.379,1225.54C824.289,1227.14 826.789,1227.86 829.261,1227.52C843.823,1225.52 871.037,1221.78 883.693,1220.04C887.691,1219.49 891.554,1221.72 893.077,1225.46C897.899,1237.29 908.268,1262.73 913.817,1276.34C914.758,1278.65 916.633,1280.45 918.977,1281.31C921.321,1282.16 923.916,1281.98 926.123,1280.82C939.123,1273.96 963.417,1261.14 974.714,1255.17C978.284,1253.29 982.676,1254.06 985.386,1257.06C993.963,1266.52 1012.41,1286.88 1022.28,1297.77C1023.95,1299.62 1026.33,1300.68 1028.82,1300.68C1031.32,1300.68 1033.7,1299.62 1035.37,1297.77C1045.24,1286.88 1063.68,1266.52 1072.26,1257.06C1074.97,1254.06 1079.36,1253.29 1082.93,1255.17C1094.23,1261.14 1118.53,1273.96 1131.53,1280.82C1133.73,1281.98 1136.33,1282.16 1138.67,1281.31C1141.02,1280.45 1142.89,1278.65 1143.83,1276.34C1149.38,1262.73 1159.75,1237.29 1164.57,1225.46C1166.09,1221.72 1169.96,1219.49 1173.95,1220.04C1186.61,1221.78 1213.83,1225.52 1228.39,1227.52C1230.86,1227.86 1233.36,1227.14 1235.27,1225.54C1237.18,1223.93 1238.33,1221.6 1238.42,1219.1C1238.98,1204.41 1240.02,1176.96 1240.51,1164.2C1240.66,1160.17 1243.53,1156.75 1247.47,1155.9C1259.96,1153.2 1286.81,1147.41 1301.18,1144.31C1303.62,1143.78 1305.72,1142.25 1306.97,1140.09C1308.21,1137.93 1308.49,1135.34 1307.73,1132.97C1303.23,1118.97 1294.82,1092.82 1290.91,1080.66C1289.67,1076.82 1291.2,1072.63 1294.62,1070.48C1305.43,1063.67 1328.68,1049.05 1341.12,1041.22C1343.23,1039.89 1344.68,1037.73 1345.12,1035.28C1345.55,1032.82 1344.92,1030.29 1343.39,1028.32C1334.38,1016.71 1317.54,995.013 1309.7,984.922C1307.23,981.734 1307.23,977.274 1309.7,974.086C1317.54,963.995 1334.38,942.296 1343.39,930.685C1344.92,928.715 1345.55,926.189 1345.12,923.733C1344.68,921.276 1343.23,919.117 1341.12,917.789C1328.68,909.961 1305.43,895.332 1294.62,888.529C1291.2,886.38 1289.67,882.189 1290.91,878.346C1294.82,866.185 1303.23,840.034 1307.73,826.04C1308.49,823.665 1308.21,821.078 1306.97,818.918C1305.72,816.757 1303.62,815.225 1301.18,814.699C1286.81,811.598 1259.96,805.804 1247.47,803.109C1243.53,802.258 1240.66,798.841 1240.51,794.808C1240.02,782.043 1238.98,754.593 1238.42,739.904C1238.33,737.411 1237.18,735.075 1235.27,733.471C1233.36,731.868 1230.86,731.147 1228.39,731.487C1213.83,733.487 1186.61,737.227 1173.95,738.965C1169.96,739.515 1166.09,737.285 1164.57,733.547C1159.75,721.718 1149.38,696.28 1143.83,682.668C1142.89,680.358 1141.02,678.554 1138.67,677.701C1136.33,676.847 1133.73,677.025 1131.53,678.189C1118.53,685.05 1094.23,697.871 1082.93,703.834C1079.36,705.718 1074.97,704.943 1072.26,701.952C1063.68,692.485 1045.24,672.128 1035.37,661.235Z" style="fill:rgb(166,166,166);stroke:black;stroke-width:9.17px;"/>
    </g>
    <g transform="matrix(0.990431,0,0,0.990431,31.6204,56.8672)">
        <path d="M858.545,495.043C881.392,468.104 906.351,423.334 957.055,411.744C1007.76,400.155 1057.74,408.123 1095.4,447.237C1133.07,486.351 1128.24,532.708 1120.88,585.584C1113.52,638.461 1059.92,694.234 1015.01,747.835C970.102,801.436 931.712,841.274 896.22,884.734C860.727,928.194 812.197,992.66 915.052,994.109C1017.91,995.557 1154.08,994.109 1211.31,992.66C1268.53,991.211 1270.7,928.919 1204.79,930.367C1138.87,931.816 1023.63,928.919 979.122,928.919C934.609,928.919 958.956,890.529 1050,800.712C1141.04,710.894 1242.44,573.995 1185.22,467.518C1128,361.041 1038.18,305.992 938.946,351.625C839.713,397.258 823.777,446.512 807.842,466.069C791.907,485.626 810.015,552.265 858.545,495.043Z" style="stroke:black;stroke-width:1px;stroke-linecap:round;stroke-miterlimit:1.5;"/>
    </g>
    <g>
        <g transform="matrix(-0.848452,0,0,0.838835,2164.01,269.4)">
            <path d="M1749.1,210.19C1716.09,210.836 1716.46,233.556 1749.1,236.042C1781.74,238.527 1814.55,267.361 1815.04,305.641C1815.54,343.921 1839.9,324.035 1838.91,305.641C1837.91,287.247 1860.28,228.087 1889.12,226.596C1917.95,225.105 1916.96,201.242 1889.12,204.722C1861.28,208.202 1829.96,153.019 1828.47,119.711C1826.98,86.403 1801.12,93.363 1806.1,120.208C1811.07,147.054 1799.98,209.196 1749.1,210.19Z" style="fill:white;stroke:black;stroke-width:11.26px;"/>
        </g>
        <g transform="matrix(-0.486212,-0.0234025,0.0240383,-0.499422,1608.29,527.982)">
            <path d="M1749.1,210.19C1716.09,210.836 1716.46,233.556 1749.1,236.042C1781.74,238.527 1814.55,267.361 1815.04,305.641C1815.54,343.921 1839.9,324.035 1838.91,305.641C1837.91,287.247 1860.28,228.087 1889.12,226.596C1917.95,225.105 1916.96,201.242 1889.12,204.722C1861.28,208.202 1829.96,153.019 1828.47,119.711C1826.98,86.403 1801.12,93.363 1806.1,120.208C1811.07,147.054 1799.98,209.196 1749.1,210.19Z" style="fill:white;stroke:black;stroke-width:19.25px;"/>
        </g>
    </g>
</svg>
