<?xml version="1.0" encoding="UTF-8" standalone="no"?>
<!DOCTYPE svg PUBLIC "-//W3C//DTD SVG 1.1//EN" "http://www.w3.org/Graphics/SVG/1.1/DTD/svg11.dtd">
<svg width="100%" height="100%" viewBox="0 0 2100 2100" version="1.1" xmlns="http://www.w3.org/2000/svg" xmlns:xlink="http://www.w3.org/1999/xlink" xml:space="preserve" xmlns:serif="http://www.serif.com/" style="fill-rule:evenodd;clip-rule:evenodd;stroke-linejoin:round;stroke-miterlimit:2;">
    <g transform="matrix(3.37675,0,0,3.37675,-2399.99,-709.527)">
        <g>
            <g transform="matrix(-1,0.00065123,-0.00065123,-1,2043.66,865.145)">
                <path d="M912.544,397.349L828.477,397.349C789.326,397.349 757.587,429.087 757.587,468.239L757.587,468.239L912.544,468.239L912.544,397.349Z" style="fill:rgb(221,66,58);"/>
            </g>
            <g transform="matrix(-1,0.00065123,-0.00065123,-1,2043.7,865.145)">
                <path d="M912.544,397.349L990.969,468.239L912.544,468.239L912.544,397.349Z" style="fill:rgb(221,66,58);"/>
            </g>
        </g>
        <g>
            <g transform="matrix(-0.951241,0.000619477,-0.00065123,-1,1937.56,864.971)">
                <path d="M1240.16,468.239C1240.16,429.087 1206.79,397.349 1165.63,397.349L1077.26,397.349L1077.26,468.239L1240.16,468.239L1240.16,468.239Z" style="fill:rgb(221,66,58);"/>
            </g>
            <g transform="matrix(-1,0.00065123,-0.00065123,-1,1981.21,864.943)">
                <path d="M1068.39,397.349L1068.39,468.239L990.93,468.239L1068.39,397.349Z" style="fill:rgb(221,66,58);"/>
            </g>
        </g>
        <g>
            <path d="M1021.15,397.349L1086.55,521.071L956.943,521.071L1021.15,397.349Z"/>
            <path d="M912.521,644.793L757.564,644.793L1021.15,397.349L1285.81,644.793L1130.86,644.793L1285.81,644.793L1130.86,644.793L1021.15,397.349"/>
        </g>
    </g>
</svg>
