<?xml version="1.0" encoding="UTF-8" standalone="no"?>
<!DOCTYPE svg PUBLIC "-//W3C//DTD SVG 1.1//EN" "http://www.w3.org/Graphics/SVG/1.1/DTD/svg11.dtd">
<svg width="100%" height="100%" viewBox="0 0 2100 2100" version="1.1" xmlns="http://www.w3.org/2000/svg" xmlns:xlink="http://www.w3.org/1999/xlink" xml:space="preserve" xmlns:serif="http://www.serif.com/" style="fill-rule:evenodd;clip-rule:evenodd;stroke-linejoin:round;stroke-miterlimit:2;">
    <g>
        <g transform="matrix(1,0,0,1,12.4914,116.41)">
            <path d="M253.065,1050C330.433,1219.81 700.051,1507.02 1050,1383.6C1399.95,1260.18 1792.34,1121.78 1813.81,962.382C1835.28,802.98 1706.97,368.291 1416.45,324.433C1125.94,280.576 546.39,189.348 409.448,393.465C272.505,597.582 143.179,808.817 253.065,1050Z"/>
        </g>
        <g transform="matrix(1,0,0,1,12.4914,116.41)">
            <path d="M1369.13,1225.68C1499.12,1319.8 1750.69,1292.39 1795.89,1529.41C1841.1,1766.43 2019.81,1362.5 1511.18,1122.32C1002.55,882.128 1239.13,1131.55 1369.13,1225.68Z"/>
        </g>
        <g transform="matrix(1,0,0,1,12.4914,116.41)">
            <path d="M1354.23,1272.85C1354.23,1272.85 1393.22,1250.12 1456.13,1268.89C1519.03,1287.66 1444.17,1240.62 1444.17,1240.62L1382.14,1246.78L1354.23,1272.85Z"/>
        </g>
        <g transform="matrix(1,0,0,1,340.198,766.155)">
            <path d="M205.206,156.036C169.661,213.494 171.95,282.517 224.281,283.751C276.612,284.985 363.414,274.275 371.706,240.81C385.036,187.018 390.464,124.989 340.581,108.035C290.697,91.081 247.64,87.444 205.206,156.036Z" style="fill:white;"/>
        </g>
        <g transform="matrix(0.441018,0.897498,-0.897498,0.441018,1023.96,609.356)">
            <path d="M205.206,156.036C179.158,218.377 194.577,264.616 224.281,283.751C268.287,312.098 314.754,300.014 350.08,257.313C391.259,207.538 414.378,128.06 340.581,108.035C337.77,107.272 334.987,106.531 332.228,105.823C285.08,93.716 234.499,85.93 205.206,156.036Z" style="fill:white;"/>
        </g>
        <g transform="matrix(-0.579798,0.81476,-0.81476,-0.579798,1634.3,825.747)">
            <path d="M205.206,156.036C169.661,213.494 205.775,239.78 234.525,271.6C269.617,310.44 374.073,296.179 371.706,240.81C369.34,185.442 390.464,124.989 340.581,108.035C290.697,91.081 247.64,87.444 205.206,156.036Z" style="fill:white;"/>
        </g>
    </g>
</svg>