<?xml version="1.0" encoding="UTF-8" standalone="no"?>
<!DOCTYPE svg PUBLIC "-//W3C//DTD SVG 1.1//EN" "http://www.w3.org/Graphics/SVG/1.1/DTD/svg11.dtd">
<svg width="100%" height="100%" viewBox="0 0 2100 2100" version="1.1" xmlns="http://www.w3.org/2000/svg" xmlns:xlink="http://www.w3.org/1999/xlink" xml:space="preserve" xmlns:serif="http://www.serif.com/" style="fill-rule:evenodd;clip-rule:evenodd;stroke-linecap:round;stroke-linejoin:round;stroke-miterlimit:1.5;">
    <g transform="matrix(1.02541,0,0,1.21914,-143.583,-224.581)">
        <path d="M508.738,1063.85C508.738,1063.85 833.472,1365.12 898.968,1404.48C965.659,1444.55 1031.84,1473.28 1124.23,1388.38C1126.52,1386.28 1128.82,1384.1 1131.15,1381.86C1237.1,1279.91 1765.15,668.462 1820.12,606.495C1875.09,544.527 1961.36,560.057 1896.39,637.016C1831.42,713.976 1257.65,1386.06 1218.67,1425.04C1179.69,1464.02 990.29,1608.76 808.385,1449.84C626.48,1290.92 484.084,1164.58 429.113,1108.61C374.141,1052.64 438.257,1000.74 508.738,1063.85Z" style="fill:#57cb57;"/>
    </g>
</svg>