<?xml version="1.0" encoding="UTF-8" standalone="no"?>
<!DOCTYPE svg PUBLIC "-//W3C//DTD SVG 1.1//EN" "http://www.w3.org/Graphics/SVG/1.1/DTD/svg11.dtd">
<svg width="100%" height="100%" viewBox="0 0 2100 2100" version="1.1" xmlns="http://www.w3.org/2000/svg" xmlns:xlink="http://www.w3.org/1999/xlink" xml:space="preserve" xmlns:serif="http://www.serif.com/" style="fill-rule:evenodd;clip-rule:evenodd;stroke-linecap:round;stroke-linejoin:round;stroke-miterlimit:1.5;">
    <path d="M1072.06,1511.91C1072.06,1511.91 1729.27,1511.18 1745.06,1511.18C1760.85,1511.18 1778.94,1466.75 1745.29,1455.74C1735.52,1452.54 1729.79,1445.63 1729.23,1436.68C1728.09,1418.79 1732.94,1397.53 1734.75,1382.72C1735.31,1378.06 1739.94,1375.61 1742.76,1373.86C1752.98,1367.51 1755.88,1354.4 1756.96,1342.08C1757.7,1333.75 1758.33,1321.12 1742.46,1315.5C1734.15,1312.56 1733.98,1302.52 1733.75,1295.99C1732.88,1271.62 1764.23,1247.75 1781.18,1222.33C1802.68,1190.07 1904.16,1012.91 1915.77,994.852C1927.38,976.792 1937.95,999.913 1974.5,980.562C2011.05,961.212 2041.58,905.741 2019.65,867.041C1997.72,828.34 1977.94,821.89 1956.44,820.6C1949.41,820.178 1931.74,818.018 1924.49,826.601C1917.32,835.09 1892.75,859.898 1865.78,866.026C1861.26,867.054 1859.94,867.32 1857.54,872.201C1828.73,930.682 1880.33,929.822 1846.36,962.932C1812.39,996.043 1806.8,1011.52 1798.2,1021.84C1789.6,1032.16 1775.06,1054.16 1794.62,967.698C1814.17,881.232 1809.17,893.398 1806.13,873.411C1803.09,853.424 1814.06,862.224 1832.31,860.703C1850.56,859.182 1870.98,855.923 1881.63,848.971C1892.28,842.019 1938.98,810.3 1937.25,768.805C1935.51,727.31 1922.43,661.996 1854.43,657.434C1786.43,652.872 1757.75,675.9 1741.46,708.054C1725.16,740.207 1717.41,778.591 1731.1,805.965C1744.78,833.339 1709.4,853.043 1681.16,883.893C1652.91,914.743 1597.46,985.512 1532.85,1030.37C1468.23,1075.24 1416.52,1119.17 1323.91,1074.57C1231.3,1029.96 1199.42,956.602 1156.81,889.168C1114.21,821.734 1119.85,812.423 1114.49,797.751C1109.13,783.079 1141.29,767.843 1155.12,748.092C1168.94,728.342 1209.41,621.982 1116.02,576.838C1022.62,531.694 932.619,614.647 960.27,693.367C987.92,772.087 1011.34,775.473 1017.26,780.551C1023.19,785.63 1040.2,782.433 941.733,944.388C843.262,1106.34 718.269,1092.8 662.404,1067.41C606.538,1042.01 568.156,1019.78 533.451,987.337C498.747,954.89 406.483,853.033 393.222,836.669C379.961,820.304 425.053,814.149 403.609,740.507C382.166,666.866 330.532,659.248 300.906,664.327C271.28,669.405 194.817,685.206 201.589,757.154C208.361,829.103 240.244,846.314 276.077,855.343C311.91,864.372 315.578,851.957 317.553,877.633C319.528,903.309 341.455,982.66 342.584,1009.75C343.712,1036.83 343.488,1042.14 343.117,1050C342.746,1057.86 339.59,1067.52 286.317,983.801C233.044,900.086 284.089,955.03 271.653,893.033C269.319,881.397 267.201,865.345 259.222,862.086C233.881,851.737 218.627,839.312 211.216,826.329C207.572,819.946 200.734,820.004 192.578,820.084C154.526,820.455 108.121,832.52 100.51,875.027C92.9,917.535 104.408,955.03 128.168,964.497C151.927,973.963 189.794,978.604 199.261,976.933C208.727,975.263 206.423,968.778 236.865,1035.79C267.307,1102.8 289.815,1136.69 309.49,1164.16C329.166,1191.63 358.122,1237.21 363.635,1251C369.149,1264.78 373.729,1278.92 376.961,1296.88C380.193,1314.85 355.008,1314.55 357.859,1341.45C360.711,1368.35 372.619,1362.9 376.516,1374.79C380.414,1386.67 378.418,1409.67 377.562,1422.22C376.707,1434.77 377.751,1435.89 377.561,1445.5C377.371,1455.1 353.169,1458.94 354.5,1482.89C355.831,1506.85 366.71,1511.58 392.091,1511.95C417.471,1512.34 715.871,1510.97 749.382,1511.31C782.893,1511.65 1072.06,1511.91 1072.06,1511.91Z" style="fill:rgb(219,175,74);stroke:rgb(35,31,32);stroke-width:22.92px;"/>
    <g transform="matrix(0.942337,0,0,0.942337,52.1524,62.5685)">
        <g transform="matrix(1,0,0,1,3.70947,17.1393)">
            <path d="M404.357,1313.5C383.022,1314.05 340.278,1360.39 402.094,1361.3C463.91,1362.21 1694.77,1367.41 1713.26,1367.71C1731.75,1368.02 1762.88,1324.26 1714.95,1322.56C1667.03,1320.87 425.691,1312.96 404.357,1313.5Z" style="fill:rgb(185,149,81);"/>
        </g>
        <path d="M391.519,1462.38C370.871,1462.16 352.47,1501.66 388.96,1501C425.449,1500.35 1713.91,1502.8 1730.95,1502.92C1748,1503.05 1761.26,1464.68 1734.29,1464.07C1707.32,1463.46 412.167,1462.6 391.519,1462.38Z" style="fill:rgb(185,149,81);"/>
    </g>
</svg>