<?xml version="1.0" encoding="UTF-8" standalone="no"?>
<!DOCTYPE svg PUBLIC "-//W3C//DTD SVG 1.1//EN" "http://www.w3.org/Graphics/SVG/1.1/DTD/svg11.dtd">
<svg width="100%" height="100%" viewBox="0 0 2100 2100" version="1.1" xmlns="http://www.w3.org/2000/svg" xmlns:xlink="http://www.w3.org/1999/xlink" xml:space="preserve" xmlns:serif="http://www.serif.com/" style="fill-rule:evenodd;clip-rule:evenodd;stroke-linecap:round;stroke-linejoin:round;stroke-miterlimit:1.5;">
    <g transform="matrix(1,0,0,0.827691,193.661,262.647)">
        <path d="M856.339,541.283C1056.97,541.283 1221.33,588.477 1387.61,629.799C1593.12,680.867 1712.68,821.044 1712.68,951.265C1712.68,1071.4 1583.39,1176.89 1411.2,1251.9C1259.05,1318.18 1078.05,1361.25 856.339,1361.25C670.581,1361.25 510.005,1319.66 329.99,1280.28C106.064,1231.29 0,1088.61 0,951.265C0,807.02 212.287,636.046 375.573,600.825C512.645,571.259 685,541.283 856.339,541.283Z" style="fill:white;fill-opacity:0;"/>
    </g>
    <g transform="matrix(1,0,0,0.827691,193.661,262.647)">
        <path d="M1302.42,549.369C1334.15,557.2 1365.68,565.244 1397.27,573.095C1532.82,606.779 1633.67,677.345 1693.21,758.037C1738.14,818.935 1760.6,886.441 1760.6,951.265C1760.6,1013.46 1736.05,1073.95 1689.65,1128.77C1631.99,1196.91 1538.26,1258.09 1427.45,1306.36C1270.84,1374.59 1084.55,1419.14 856.339,1419.14C764.622,1419.14 678.937,1409.25 594.114,1394.45L659.585,1316.34C717.651,1356.07 788.855,1377.93 856.339,1377.93C928.436,1377.93 997.064,1338.87 1052.93,1290.94C1182.16,1274.11 1294.98,1240.99 1394.94,1197.44C1490.77,1155.7 1572.78,1104.91 1622.64,1045.99C1647.95,1016.09 1664.76,985.194 1664.76,951.265C1664.76,911.906 1648.96,872.061 1621.67,835.086C1572.89,768.974 1489.02,714.102 1377.96,686.504C1325.63,673.5 1273.5,659.861 1220.31,647.343L1302.42,549.369Z"/>
    </g>
    <g transform="matrix(1,0,0,0.827691,193.661,262.647)">
        <path d="M376.643,1349.47L321.452,1337.24C65.855,1281.33 -47.917,1108.03 -47.917,951.265C-47.917,880.3 -9.918,801.463 53.067,732.768C136.125,642.179 261.217,566.684 367.152,543.834C506.621,513.751 682.003,483.391 856.339,483.391C938.022,483.391 1013.81,491.008 1086.17,502.925L1022.3,579.132C973.786,544.477 923.165,524.594 856.339,524.594C773.873,524.594 707.48,559.757 647.059,612.564C552.307,623.855 462.294,640.927 383.994,657.816C293.987,677.231 187.854,741.743 117.284,818.712C77.813,861.761 47.917,906.794 47.917,951.265C47.917,1069.28 146.114,1181.22 338.527,1223.31C379.811,1232.34 420.054,1241.51 459.807,1250.24L376.643,1349.47Z"/>
    </g>
    <g transform="matrix(1,0,0,1,1.18734,-34.1037)">
        <path d="M1048.81,778.869C1139.87,778.869 1196.07,815.19 1264.81,870.74C1319.8,915.176 1351.05,1007.6 1351.05,1084.1C1351.05,1146.53 1339.7,1210.25 1300.55,1252.98C1249.14,1309.09 1153.81,1389.34 1048.81,1389.34C966.43,1389.34 877.287,1359.31 822.747,1305.24C766.853,1249.84 746.577,1169.37 746.577,1084.1C746.577,1014.1 763.924,931.471 812.041,888.067C880.074,826.697 951.322,778.869 1048.81,778.869Z" style="fill:white;fill-opacity:0;"/>
    </g>
    <g transform="matrix(1,0,0,1,1.18734,-34.1037)">
        <path d="M873.13,1365.46L923.659,1315.57C962.378,1332.61 1006.71,1341.42 1048.81,1341.42C1139.71,1341.42 1220.72,1269.19 1265.22,1220.61C1296.69,1186.27 1303.13,1134.28 1303.13,1084.1C1303.13,1045.87 1294.5,1002.44 1277.54,966.101L1347.82,896.7C1380.45,951.687 1398.96,1022.1 1398.96,1084.1C1398.96,1158.8 1382.72,1234.23 1335.88,1285.35C1312.87,1310.47 1281.85,1339.43 1245.41,1365.25C1183.75,1371.93 1118.34,1375.53 1048.81,1375.53C988.045,1375.53 930.021,1371.75 873.13,1365.46Z"/>
    </g>
    <g transform="matrix(1,0,0,1,1.18734,-34.1037)">
        <path d="M839.532,803.764C907.704,796.974 978.345,792.682 1048.81,792.682C1098.34,792.682 1145.61,795.128 1191.24,799.329L1143.28,846.694C1115.65,834.048 1085.61,826.786 1048.81,826.786C964.147,826.786 903.219,870.35 844.136,923.647C805.033,958.92 794.494,1027.21 794.494,1084.1C794.494,1117.37 797.683,1149.92 805.85,1179.91L730.918,1253.91C708.371,1203.11 698.661,1144.8 698.661,1084.1C698.661,1000.96 722.799,904.037 779.946,852.487C799.385,834.952 819.116,818.523 839.532,803.764Z"/>
    </g>
    <g transform="matrix(1,0,0,1,1.18734,-34.1037)">
        <path d="M1245.41,1365.25C1189.54,1404.92 1120.91,1437.26 1048.81,1437.26C981.328,1437.26 910.125,1419.15 852.058,1386.27L873.13,1365.46C930.021,1371.75 988.045,1375.53 1048.81,1375.53C1118.34,1375.53 1183.75,1371.93 1245.41,1365.25Z"/>
    </g>
    <g transform="matrix(1,0,0,1,1.18734,-34.1037)">
        <path d="M839.532,803.764C899.954,760.056 966.346,730.953 1048.81,730.953C1115.64,730.953 1166.26,747.409 1214.77,776.093L1191.24,799.329C1145.61,795.128 1098.34,792.682 1048.81,792.682C978.345,792.682 907.704,796.974 839.532,803.764Z"/>
    </g>
    <g transform="matrix(0.711532,-0.702653,0.702653,0.711532,40.2815,1646.07)">
        <rect x="160.225" y="272.396" width="1866.14" height="0.133" style="fill:white;fill-opacity:0;stroke:black;stroke-width:95.83px;"/>
    </g>
</svg>
