<?xml version="1.0" encoding="UTF-8" standalone="no"?>
<!DOCTYPE svg PUBLIC "-//W3C//DTD SVG 1.1//EN" "http://www.w3.org/Graphics/SVG/1.1/DTD/svg11.dtd">
<svg width="100%" height="100%" viewBox="0 0 2100 2100" version="1.1" xmlns="http://www.w3.org/2000/svg" xmlns:xlink="http://www.w3.org/1999/xlink" xml:space="preserve" xmlns:serif="http://www.serif.com/" style="fill-rule:evenodd;clip-rule:evenodd;stroke-linecap:round;stroke-linejoin:round;stroke-miterlimit:1.5;">
    <g fill="white" transform="matrix(1.21894,0,0,1.24546,-229.891,-257.729)">
        <g transform="matrix(1,0,0,1,-13.7584,84.8439)">
            <path d="M1019.99,974.008C937.935,1079.12 848.46,1186.86 815.26,1206.89C756.375,1242.42 738.101,1253.59 692.921,1260.19C647.742,1266.79 313.683,1281.82 268.941,1282.61C222.587,1283.43 179.605,1379.53 255.457,1382.06C331.309,1384.59 667.195,1374.09 735.462,1370.72C803.728,1367.35 871.995,1317.63 932.677,1251.89C960.135,1222.14 1022.28,1140.62 1085.45,1055.58C1075.01,1045.6 1060.88,1027.02 1042.4,998.317L1019.99,974.008Z"/>
        </g>
        <g transform="matrix(1,0,0,1,-12.1441,73.0056)">
            <path d="M1098.48,870.412C1102.6,879.163 1108.98,888.457 1116.81,898.448C1129.26,914.324 1146.53,926.776 1161.78,951.966C1208.28,888.411 1288.99,772.166 1302.07,753.916C1338.31,703.348 1445.35,659.523 1535.53,662.051C1625.7,664.579 1620.99,657.685 1680.83,657.685C1740.67,657.685 1735.62,676.227 1736.46,723.424C1737.3,770.62 1744.84,816.136 1781.39,789.739C1817.93,763.342 1880.37,690.244 1899.66,668.923C1918.95,647.603 1916.42,622.221 1883.93,592.271C1851.44,562.32 1794.08,521.71 1762.6,498.867C1731.13,476.023 1722.5,522.218 1723.52,547.092C1724.53,571.965 1708.29,587.194 1670.72,585.164C1633.16,583.133 1572.66,574.94 1529,578.493C1485.35,582.047 1294.15,606.859 1216.99,707.37C1198.55,731.392 1129.38,829.918 1098.48,870.412Z"/>
        </g>
        <g transform="matrix(1,0,0,-1,-13.7584,2023.2)">
            <path d="M268.941,1282.61C222.587,1283.43 179.605,1379.53 255.457,1382.06C331.309,1384.59 652.654,1369.12 719.78,1356.25C792.659,1342.27 858.62,1299 931.754,1241.1C1001.9,1185.57 1243.25,857.727 1279.49,807.159C1315.73,756.591 1454.39,691.68 1544.57,694.209C1634.75,696.737 1596.19,684.578 1656.03,684.578C1715.87,684.578 1718.36,693.741 1717.89,720.066C1717.05,767.263 1721.83,819.437 1758.38,793.04C1794.93,766.643 1854.04,694.099 1873.33,672.779C1892.62,651.458 1904.5,624.412 1872.02,594.462C1839.53,564.512 1792.98,508.807 1757.35,493.229C1720.33,477.044 1718.36,508.872 1717.15,546.508C1716.36,571.39 1717.33,613.533 1679.77,611.502C1642.2,609.472 1581.7,607.097 1538.05,610.651C1494.39,614.204 1303.2,639.017 1226.04,739.528C1148.88,840.039 874.146,1177.17 815.26,1212.71C756.375,1248.24 738.101,1259.41 692.921,1266.01C647.742,1272.61 313.683,1281.82 268.941,1282.61Z"/>
        </g>
    </g>
</svg>
