<?xml version="1.0" encoding="UTF-8" standalone="no"?>
<!DOCTYPE svg PUBLIC "-//W3C//DTD SVG 1.1//EN" "http://www.w3.org/Graphics/SVG/1.1/DTD/svg11.dtd">
<svg width="100%" height="100%" viewBox="0 0 2100 2100" version="1.1" xmlns="http://www.w3.org/2000/svg" xmlns:xlink="http://www.w3.org/1999/xlink" xml:space="preserve" xmlns:serif="http://www.serif.com/" style="fill-rule:evenodd;clip-rule:evenodd;stroke-linejoin:round;stroke-miterlimit:2;">
    <g fill='hsl(360,85%,40%)'>
        <g transform="matrix(0.707111,-0.707102,0.707102,0.707111,-510.473,946.086)">
            <path d="M1132.35,180.096C1132.35,123.543 1086.51,77.698 1029.95,77.698L1029.95,77.698C973.397,77.698 927.552,123.543 927.552,180.096L927.552,2173.69C927.552,2230.24 973.397,2276.09 1029.95,2276.09L1029.95,2276.09C1086.51,2276.09 1132.35,2230.24 1132.35,2173.69L1132.35,180.096Z"/>
        </g>
        <g transform="matrix(0.707508,0.706706,-0.706706,0.707508,1153.02,-510.533)">
            <path d="M1132.35,180.096C1132.35,123.543 1086.51,77.698 1029.95,77.698L1029.95,77.698C973.397,77.698 927.552,123.543 927.552,180.096L927.552,2173.69C927.552,2230.24 973.397,2276.09 1029.95,2276.09L1029.95,2276.09C1086.51,2276.09 1132.35,2230.24 1132.35,2173.69L1132.35,180.096Z"/>
        </g>
        <path d="M991.395,1253.57C991.395,1253.57 1049.4,1195.33 1107.56,1252.38C1165.72,1309.42 1238.04,1201.19 1238.04,1201.19L1273.05,1164.79L1264.59,1122.46C1264.59,1122.46 1196.12,1049.58 1267.9,976.336C1339.67,903.09 1234.52,898.132 1234.52,898.132L1135.51,865.741L1120.79,834.455C1120.79,834.455 1047.91,905.125 982.758,838.136C917.609,771.146 886.495,928.279 886.495,928.279L834.597,976.497C834.597,976.497 902.371,1050.76 848.265,1108.18C794.158,1165.6 982.485,1225.12 982.485,1225.12L991.395,1253.57Z"/>
    </g>
</svg>