<svg viewBox="0 0 200 200" xmlns="http://www.w3.org/2000/svg">
    <path fill="#292F36" d="M43.5,-76.5C56.4,-67.8,66.9,-56.3,75.1,-43.1C83.3,-29.8,89.1,-14.9,89,-0.1C88.9,14.8,82.8,29.5,75.2,43.7C67.6,58,58.4,71.7,45.7,79.4C32.9,87.1,16.4,88.7,0.8,87.4C-14.9,86,-29.7,81.6,-44.1,74.9C-58.5,68.1,-72.5,59,-81.1,46.1C-89.7,33.2,-93,16.6,-93,0C-93,-16.6,-89.5,-33.1,-81.3,-46.7C-73.1,-60.3,-60.1,-70.9,-45.7,-78.8C-31.4,-86.6,-15.7,-91.7,-0.2,-91.4C15.3,-91,30.5,-85.2,43.5,-76.5Z" transform="translate(100 100)"/>
</svg>