<svg viewBox="0 0 200 200" xmlns="http://www.w3.org/2000/svg">
    <path fill="#4ECDC4" d="M44.1,-77C57.9,-68.5,70.3,-58.1,78.7,-45C87,-31.9,91.2,-15.9,91.1,-0.1C91,15.8,86.6,31.6,78.7,45.4C70.7,59.3,59.3,71.1,45.6,78.1C31.9,85.1,16,87.2,0.4,86.5C-15.2,85.9,-30.4,82.4,-43.1,74.8C-55.8,67.3,-66.1,55.7,-74.9,42.5C-83.7,29.4,-91.1,14.7,-91.6,-0.3C-92.1,-15.3,-85.8,-30.6,-77.2,-44.1C-68.6,-57.6,-57.7,-69.4,-44.5,-78.3C-31.3,-87.2,-15.6,-93.1,-0.2,-92.7C15.2,-92.3,30.3,-85.5,44.1,-77Z" transform="translate(100 100)" />
</svg>