<svg viewBox="0 0 200 200" xmlns="http://www.w3.org/2000/svg">
  <path fill="#FF6B6B" d="M44.5,-77.5C57.3,-69.6,67.1,-57,74.9,-43.3C82.7,-29.6,88.5,-14.8,89.8,0.7C91.1,16.3,87.8,32.6,79.8,45.9C71.8,59.1,58.9,69.4,44.8,76.5C30.7,83.5,15.3,87.4,-0.2,87.7C-15.8,88.1,-31.6,85,-45.6,78C-59.7,70.9,-72.2,59.9,-79.2,46.2C-86.2,32.6,-87.8,16.3,-87.3,0.3C-86.8,-15.7,-84.1,-31.3,-77,-44.8C-69.8,-58.3,-58.3,-69.6,-44.7,-77C-31.1,-84.4,-15.6,-88,0.1,-88.2C15.8,-88.4,31.6,-85.3,44.5,-77.5Z" transform="translate(100 100)" />
</svg>