<?xml version="1.0" encoding="UTF-8" standalone="no"?>
<!DOCTYPE svg PUBLIC "-//W3C//DTD SVG 1.1//EN" "http://www.w3.org/Graphics/SVG/1.1/DTD/svg11.dtd">
<svg width="100%" height="100%" viewBox="0 0 2100 2100" version="1.1" xmlns="http://www.w3.org/2000/svg" xmlns:xlink="http://www.w3.org/1999/xlink" xml:space="preserve" xmlns:serif="http://www.serif.com/" style="fill-rule:evenodd;clip-rule:evenodd;stroke-linecap:round;stroke-linejoin:round;stroke-miterlimit:1.5;">
    <g style="fill: white;" transform="matrix(-0.000523902,-1,1,-0.000523902,6.64337,2122.08)">
        <path d="M273,150C198.316,171.867 117.01,205.366 163,489C208.99,772.634 239.378,919.052 193,1164C146.622,1408.95 173.478,1545.17 163,1724C152.522,1902.83 198.065,2014.24 394,2015C589.935,2015.76 967.643,1953.74 1262,1956C1556.36,1958.26 1613.88,1994.24 1760,1991C1906.12,1987.76 1988.7,1900.21 1963,1708C1937.3,1515.79 1933.07,1310.4 1963,1167C1992.93,1023.6 1974.2,496.647 1941,356C1907.8,215.353 1903.17,143.757 1699,145C1494.83,146.243 1363.45,150.719 1190,126C1016.55,101.281 530.618,74.571 273,150ZM623,195C501.39,206.52 174.333,195.365 239,380C303.667,564.635 317.672,828.993 313,993C308.328,1157.01 227.484,1382.9 254,1519C280.516,1655.1 224.702,1815.63 280,1866C335.298,1916.37 371.941,1940.15 924,1868C1476.06,1795.85 1790.63,1991.39 1855,1846C1919.37,1700.61 1789.47,1513 1854,1268C1918.53,1023 1857.92,519.251 1821,367C1784.08,214.749 1691.64,237.097 1389,255C1086.36,272.903 964.931,162.609 623,195Z"/>
    </g>
    <g style="fill: white;" transform="matrix(0.745238,0,0,0.745238,1063.81,1057.72)">
        <g transform="matrix(1,0,0,1,-1050,-1050)">
            <g transform="matrix(0.964188,-0.265218,0.265218,0.964188,-61.2795,195.803)">
                <path d="M428.582,671.9C428.582,671.9 394.271,754.908 486.134,781.47C577.996,808.033 639.975,765.976 645.509,720.598C651.043,675.22 676.499,622.095 618.947,594.425C561.395,566.756 533.725,553.475 501.629,571.183C469.532,588.892 436.329,628.735 428.582,671.9Z"/>
            </g>
            <g transform="matrix(0.964188,-0.265218,0.265218,0.964188,756.205,195.803)">
                <path d="M428.582,671.9C428.582,671.9 394.271,754.908 486.134,781.47C577.996,808.033 639.975,765.976 645.509,720.598C651.043,675.22 676.499,622.095 618.947,594.425C561.395,566.756 533.725,553.475 501.629,571.183C469.532,588.892 436.329,628.735 428.582,671.9Z"/>
            </g>
            <g transform="matrix(1,0,0,1,20.0751,-71.2701)">
                <path d="M364.671,1208.67C364.671,1208.67 654.26,1398.55 846.933,1445.43C1051.42,1495.18 1217.23,1492.8 1355.7,1451.89C1494.18,1410.97 1593.48,1327.19 1673.21,1202.36C1752.93,1077.52 1892.46,1137.32 1805.39,1263.2C1718.32,1389.09 1448.72,1524.11 1326.16,1557.68C1203.61,1591.25 1053.6,1574.46 875.257,1541.94C696.92,1509.42 559.122,1440.49 339.872,1312.51C120.622,1184.52 271.693,1131.25 364.671,1208.67Z"/>
            </g>
        </g>
    </g>
</svg>
