<?xml version="1.0" encoding="UTF-8" standalone="no"?>
<!DOCTYPE svg PUBLIC "-//W3C//DTD SVG 1.1//EN" "http://www.w3.org/Graphics/SVG/1.1/DTD/svg11.dtd">
<svg width="100%" height="100%" viewBox="0 0 2100 2100" version="1.1" xmlns="http://www.w3.org/2000/svg" xmlns:xlink="http://www.w3.org/1999/xlink" xml:space="preserve" xmlns:serif="http://www.serif.com/" style="fill-rule:evenodd;clip-rule:evenodd;stroke-linecap:round;stroke-linejoin:round;stroke-miterlimit:1.5;">
    <g style="fill: white;"><path d="M273,150C198.316,171.867 117.01,205.366 163,489C208.99,772.634 239.378,919.052 193,1164C146.622,1408.95 173.478,1545.17 163,1724C152.522,1902.83 198.065,2014.24 394,2015C589.935,2015.76 967.643,1953.74 1262,1956C1556.36,1958.26 1613.88,1994.24 1760,1991C1906.12,1987.76 1988.7,1900.21 1963,1708C1937.3,1515.79 1933.07,1310.4 1963,1167C1992.93,1023.6 1974.2,496.647 1941,356C1907.8,215.353 1903.17,143.757 1699,145C1494.83,146.243 1363.45,150.719 1190,126C1016.55,101.281 530.618,74.571 273,150ZM623,195C501.39,206.52 174.333,195.365 239,380C303.667,564.635 317.672,828.993 313,993C308.328,1157.01 227.484,1382.9 254,1519C280.516,1655.1 224.702,1815.63 280,1866C335.298,1916.37 371.941,1940.15 924,1868C1476.06,1795.85 1790.63,1991.39 1855,1846C1919.37,1700.61 1789.47,1513 1854,1268C1918.53,1023 1857.92,519.251 1821,367C1784.08,214.749 1691.64,237.097 1389,255C1086.36,272.903 964.931,162.609 623,195Z"/></g>
    <g style="fill: white;" transform="matrix(1,0,0,1,101.884,164.948)">
        <path d="M805,821C696.671,825.036 491.821,822.73 413,827C334.179,831.27 287.432,939.014 406,942C524.568,944.986 753.397,944.291 830,949C906.603,953.709 888.626,987.746 889,1053C889.374,1118.25 881.181,1352.27 888,1431C894.819,1509.74 1002.3,1519.55 1008,1444C1013.71,1368.45 1006.82,1100.6 1014,1053C1021.18,1005.4 1032.76,944.351 1089,943C1145.24,941.649 1419.59,945.905 1496,942C1572.41,938.095 1597.7,829.653 1489,824C1380.3,818.347 1155.31,816.852 1103,814C1050.69,811.148 1027.96,781.059 1032,719C1036.04,656.941 1037.91,409.388 1032,357C1026.09,304.612 910.242,238.566 907,353C903.758,467.434 905.856,676.051 896,738C886.144,799.949 864.279,818.791 805,821Z"/>
    </g>
</svg>
