<?xml version="1.0" encoding="UTF-8" standalone="no"?>
<!DOCTYPE svg PUBLIC "-//W3C//DTD SVG 1.1//EN" "http://www.w3.org/Graphics/SVG/1.1/DTD/svg11.dtd">
<svg width="100%" height="100%" viewBox="0 0 2100 2100" version="1.1" xmlns="http://www.w3.org/2000/svg" xmlns:xlink="http://www.w3.org/1999/xlink" xml:space="preserve" xmlns:serif="http://www.serif.com/" style="fill-rule:evenodd;clip-rule:evenodd;stroke-linecap:round;stroke-linejoin:round;stroke-miterlimit:1.5;">
    <g style="fill: white;" transform="matrix(0.819133,0,0,0.819133,246.437,455.441)">
        <path d="M793,208C701.786,203.295 518.327,202.554 415,215C311.673,227.446 289.47,215 207,216C124.53,217 181.673,327.016 190,427C198.327,526.984 184.382,568.839 206,622C227.618,675.161 216.519,680.255 350,679C483.481,677.745 723.189,664.255 820,671C916.811,677.745 1188.02,651.947 1350,667C1511.98,682.053 1668.43,688.87 1747,679C1825.57,669.13 1845.97,638.182 1825,552C1804.03,465.818 1817.6,450.882 1819,389C1820.4,327.118 1809.45,279.521 1802,240C1794.55,200.479 1792.66,185.953 1645,207C1497.34,228.047 1364.77,218.352 1251,212C1137.23,205.648 1033.92,203.676 938,207C842.083,210.324 848.157,210.845 793,208Z"/>
    </g>
    <g style="fill: white;" transform="matrix(-0.797424,0,0,0.819133,1134.19,926.568)">
        <path d="M793,208C701.786,203.295 518.327,202.554 415,215C311.673,227.446 289.47,215 207,216C124.53,217 181.673,327.016 190,427C198.327,526.984 184.382,568.839 206,622C227.618,675.161 216.519,680.255 350,679C483.481,677.745 723.087,665.94 820,671C869.585,673.589 937.694,663.805 935.638,607.215C932.396,518.003 963.961,335.342 929.892,250.9C904.707,188.479 816.443,209.209 793,208Z"/>
    </g>
    <g style="fill: white;" transform="matrix(0.797424,0,0,-0.819133,973.27,1650.69)">
        <path d="M793,208C701.786,203.295 518.327,202.554 415,215C311.673,227.446 289.47,215 207,216C124.53,217 181.673,327.016 190,427C198.327,526.984 184.382,568.839 206,622C227.618,675.161 216.519,680.255 350,679C483.481,677.745 723.087,665.94 820,671C869.585,673.589 937.694,663.805 935.638,607.215C932.396,518.003 963.961,335.342 929.892,250.9C904.707,188.479 816.443,209.209 793,208Z"/>
    </g>
    <g style="fill: white;" transform="matrix(0.000552534,1,-1,0.000552534,2120.94,-6.67016)">
        <path d="M273,150C198.316,171.867 117.01,205.366 163,489C208.99,772.634 239.378,919.052 193,1164C146.622,1408.95 173.478,1545.17 163,1724C152.522,1902.83 198.065,2014.24 394,2015C589.935,2015.76 967.643,1953.74 1262,1956C1556.36,1958.26 1613.88,1994.24 1760,1991C1906.12,1987.76 1988.7,1900.21 1963,1708C1937.3,1515.79 1933.07,1310.4 1963,1167C1992.93,1023.6 1974.2,496.647 1941,356C1907.8,215.353 1903.17,143.757 1699,145C1494.83,146.243 1363.45,150.719 1190,126C1016.55,101.281 530.618,74.571 273,150ZM623,195C501.39,206.52 174.333,195.365 239,380C303.667,564.635 317.672,828.993 313,993C308.328,1157.01 227.484,1382.9 254,1519C280.516,1655.1 224.702,1815.63 280,1866C335.298,1916.37 371.941,1940.15 924,1868C1476.06,1795.85 1790.63,1991.39 1855,1846C1919.37,1700.61 1789.47,1513 1854,1268C1918.53,1023 1857.92,519.251 1821,367C1784.08,214.749 1691.64,237.097 1389,255C1086.36,272.903 964.931,162.609 623,195Z"/>
    </g>
</svg>
