<?xml version="1.0" encoding="UTF-8" standalone="no"?>
<!DOCTYPE svg PUBLIC "-//W3C//DTD SVG 1.1//EN" "http://www.w3.org/Graphics/SVG/1.1/DTD/svg11.dtd">
<svg width="100%" height="100%" viewBox="0 0 2100 2100" version="1.1" xmlns="http://www.w3.org/2000/svg" xmlns:xlink="http://www.w3.org/1999/xlink" xml:space="preserve" xmlns:serif="http://www.serif.com/" style="fill-rule:evenodd;clip-rule:evenodd;stroke-linecap:round;stroke-linejoin:round;stroke-miterlimit:1.5;">
    <g style="fill: white;" transform="matrix(-1,-0.000701306,0.000701306,-1,2126.87,2116.19)">
        <path d="M273,150C198.316,171.867 117.01,205.366 163,489C208.99,772.634 239.378,919.052 193,1164C146.622,1408.95 173.478,1545.17 163,1724C152.522,1902.83 198.065,2014.24 394,2015C589.935,2015.76 967.643,1953.74 1262,1956C1556.36,1958.26 1613.88,1994.24 1760,1991C1906.12,1987.76 1988.7,1900.21 1963,1708C1937.3,1515.79 1933.07,1310.4 1963,1167C1992.93,1023.6 1974.2,496.647 1941,356C1907.8,215.353 1903.17,143.757 1699,145C1494.83,146.243 1363.45,150.719 1190,126C1016.55,101.281 530.618,74.571 273,150ZM623,195C501.39,206.52 174.333,195.365 239,380C303.667,564.635 317.672,828.993 313,993C308.328,1157.01 227.484,1382.9 254,1519C280.516,1655.1 224.702,1815.63 280,1866C335.298,1916.37 371.941,1940.15 924,1868C1476.06,1795.85 1790.63,1991.39 1855,1846C1919.37,1700.61 1789.47,1513 1854,1268C1918.53,1023 1857.92,519.251 1821,367C1784.08,214.749 1691.64,237.097 1389,255C1086.36,272.903 964.931,162.609 623,195Z"/>
    </g>
    <g style="fill: white;" transform="matrix(1.23857,0,0,1.23857,-247.325,176.069)">
        <path d="M717,483C682.444,549.488 625.255,639.229 640,716C654.745,792.771 673.834,802.257 722,859C770.166,915.743 709.325,981.067 661,936C612.675,890.933 523.89,798.049 537,687C550.11,575.951 598.13,496.327 641,452C683.87,407.673 749.052,421.332 717,483Z"/>
    </g>
    <g style="fill: white;" transform="matrix(-1.23857,0,0,-1.23857,1680.26,1881.62)">
        <path d="M717,483C682.444,549.488 625.255,639.229 640,716C654.745,792.771 673.834,802.257 722,859C770.166,915.743 709.325,981.067 661,936C612.675,890.933 523.89,798.049 537,687C550.11,575.951 598.13,496.327 641,452C683.87,407.673 749.052,421.332 717,483Z"/>
    </g>
    <g style="fill: white;" transform="matrix(1.23857,0,0,1.23857,-247.325,176.069)">
        <path d="M1173,861C1131.51,860.715 1109.48,890.561 1111,920C1112.52,949.439 1128.98,982.155 1167,985C1205.02,987.845 1233.18,958.051 1235,930C1236.82,901.949 1223.57,861.347 1173,861Z"/>
    </g>
    <g style="fill: white;" transform="matrix(0.187968,1.22423,-1.22423,0.187968,2355.44,-293.912)">
        <path d="M1173,861C1131.51,860.715 1109.48,890.561 1111,920C1112.52,949.439 1128.98,982.155 1167,985C1205.02,987.845 1233.18,958.051 1235,930C1236.82,901.949 1223.57,861.347 1173,861Z"/>
    </g>
    <g style="fill: white;" transform="matrix(1.23857,0,0,1.23857,-249.802,195.183)">
        <path d="M1132,712C1127.34,764.458 1229.99,791.465 1235.16,727C1240.33,662.535 1251.46,552.082 1261,487C1270.54,421.918 1163.32,367.698 1154,459C1144.68,550.302 1137.79,646.873 1132,712Z"/>
    </g>
    <g style="fill: white;" transform="matrix(1.22359,-0.192107,0.192107,1.22359,-376.278,501.878)">
        <path d="M1350,722C1341.01,758.355 1421.19,794.801 1429.33,745C1437.47,695.199 1427.22,702.332 1432.05,667.935C1436.88,633.537 1461.79,636.591 1485.05,640.935C1508.31,645.279 1621.3,636.43 1638,555C1654.7,473.57 1607.82,439.094 1552,425.999C1496.18,412.904 1473.25,412.606 1446,407C1403.05,398.163 1376.56,458.366 1428.24,469.915C1479.93,481.464 1489.71,480.773 1522.45,486.021C1555.19,491.269 1571.81,494.678 1570.47,531.008C1569.07,568.818 1536.79,587.103 1504.63,580.42C1472.48,573.737 1385.32,549.923 1360.08,651.935C1348.01,700.739 1354.51,703.79 1350,722Z"/>
    </g>
</svg>
