<?xml version="1.0" encoding="UTF-8" standalone="no"?>
<!DOCTYPE svg PUBLIC "-//W3C//DTD SVG 1.1//EN" "http://www.w3.org/Graphics/SVG/1.1/DTD/svg11.dtd">
<svg width="100%" height="100%" viewBox="0 0 2100 2100" version="1.1" xmlns="http://www.w3.org/2000/svg" xmlns:xlink="http://www.w3.org/1999/xlink" xml:space="preserve" xmlns:serif="http://www.serif.com/" style="fill-rule:evenodd;clip-rule:evenodd;stroke-linecap:round;stroke-linejoin:round;stroke-miterlimit:1.5;">
    <g transform="matrix(-0.9566,0,0,1,1983.58,56.4125)">
        <path d="M895.202,279.307C895.202,279.307 896.774,1639.58 894.709,1726.29C892.645,1812.99 1016.4,1874.92 1050,1727.32C1083.6,1579.72 1020.89,416.703 1021.46,279.42C1022.03,142.137 893.631,127.725 895.202,279.307Z" style="stroke:rgb(35,31,32);stroke-width:1.02px;"/>
    </g>
    <g transform="matrix(-0.9566,0,0,1,2225.6,56.4125)">
        <path d="M888.248,390.74C888.248,390.74 882.865,1606.32 880.8,1693.02C878.736,1779.73 993.796,1821.7 1027.4,1674.1C1061,1526.49 1010.46,601.316 1016.24,349.274C1019.39,212.023 886.676,239.158 888.248,390.74Z" style="stroke:rgb(35,31,32);stroke-width:1.02px;"/>
    </g>
    <g transform="matrix(0.98778,0,0,1.05902,-153.059,-25.8638)">
        <path d="M888.248,390.74C888.248,390.74 882.865,1606.32 880.8,1693.02C878.736,1779.73 993.796,1821.7 1027.4,1674.1C1061,1526.49 1010.46,601.316 1016.24,349.274C1019.39,212.023 886.676,239.158 888.248,390.74Z" style="stroke:rgb(35,31,32);stroke-width:0.98px;"/>
    </g>
</svg>
