<?xml version="1.0" encoding="UTF-8" standalone="no"?>
<!DOCTYPE svg PUBLIC "-//W3C//DTD SVG 1.1//EN" "http://www.w3.org/Graphics/SVG/1.1/DTD/svg11.dtd">
<svg width="100%" height="100%" viewBox="0 0 2100 2100" version="1.1" xmlns="http://www.w3.org/2000/svg" xmlns:xlink="http://www.w3.org/1999/xlink" xml:space="preserve" xmlns:serif="http://www.serif.com/" style="fill-rule:evenodd;clip-rule:evenodd;stroke-linecap:round;stroke-linejoin:round;stroke-miterlimit:1.5;">
    <g transform="matrix(-0.722812,0,0,0.71609,1303.67,359.511)">
        <path d="M895.202,279.307C895.202,279.307 896.774,1639.58 894.709,1726.29C892.645,1812.99 1016.4,1874.92 1050,1727.32C1083.6,1579.72 1020.89,416.703 1021.46,279.42C1022.03,142.137 893.631,127.725 895.202,279.307Z" style="stroke:rgb(35,31,32);stroke-width:1.39px;"/>
    </g>
    <g transform="matrix(-0.722812,0,0,0.71609,2257.29,389.883)">
        <path d="M895.202,279.307C895.202,279.307 896.774,1639.58 894.709,1726.29C892.645,1812.99 1016.4,1874.92 1050,1727.32C1083.6,1579.72 1020.89,416.703 1021.46,279.42C1022.03,142.137 893.631,127.725 895.202,279.307Z" style="stroke:rgb(35,31,32);stroke-width:1.39px;"/>
    </g>
    <g transform="matrix(0.757874,0,0,0.71609,256.662,359.511)">
        <path d="M895.202,279.307C895.202,279.307 896.774,1639.58 894.709,1726.29C892.645,1812.99 1016.4,1874.92 1050,1727.32C1083.6,1579.72 1020.89,416.703 1021.46,279.42C1022.03,142.137 893.631,127.725 895.202,279.307Z" style="stroke:rgb(35,31,32);stroke-width:1.36px;"/>
    </g>
    <g transform="matrix(-0.722812,0,0,0.71609,1486.54,359.511)">
        <path d="M888.248,390.74C888.248,390.74 882.865,1606.32 880.8,1693.02C878.736,1779.73 993.796,1821.7 1027.4,1674.1C1061,1526.49 1010.46,601.316 1016.24,349.274C1019.39,212.023 886.676,239.158 888.248,390.74Z" style="stroke:rgb(35,31,32);stroke-width:1.39px;"/>
    </g>
    <g transform="matrix(-0.722812,0,0,0.71609,2451.03,391.425)">
        <path d="M888.248,390.74C888.248,390.74 882.865,1606.32 880.8,1693.02C878.736,1779.73 993.796,1821.7 1027.4,1674.1C1061,1526.49 1010.46,601.316 1016.24,349.274C1019.39,212.023 886.676,239.158 888.248,390.74Z" style="stroke:rgb(35,31,32);stroke-width:1.39px;"/>
    </g>
    <g transform="matrix(0.746372,0,0,0.758353,-310.79,300.594)">
        <path d="M888.248,390.74C888.248,390.74 882.865,1606.32 880.8,1693.02C878.736,1779.73 993.796,1821.7 1027.4,1674.1C1061,1526.49 1010.46,601.316 1016.24,349.274C1019.39,212.023 886.676,239.158 888.248,390.74Z" style="stroke:rgb(35,31,32);stroke-width:1.33px;"/>
    </g>
    <g transform="matrix(0.536135,-0.492104,0.706109,0.690931,-520.438,813.483)">
        <path d="M888.248,390.74C888.248,390.74 882.865,1606.32 880.8,1693.02C878.736,1779.73 993.796,1821.7 1027.4,1674.1C1061,1526.49 1010.46,601.316 1016.24,349.274C1019.39,212.023 886.676,239.158 888.248,390.74Z" style="stroke:rgb(35,31,32);stroke-width:1.12px;"/>
    </g>
</svg>
