<?xml version="1.0" encoding="UTF-8" standalone="no"?>
<!DOCTYPE svg PUBLIC "-//W3C//DTD SVG 1.1//EN" "http://www.w3.org/Graphics/SVG/1.1/DTD/svg11.dtd">
<svg width="100%" height="100%" viewBox="0 0 2100 2100" version="1.1" xmlns="http://www.w3.org/2000/svg" xmlns:xlink="http://www.w3.org/1999/xlink" xml:space="preserve" xmlns:serif="http://www.serif.com/" style="fill-rule:evenodd;clip-rule:evenodd;stroke-linecap:round;stroke-linejoin:round;stroke-miterlimit:1.5;">
    <g transform="matrix(-0.608375,0,0,0.650898,1124.42,480.678)">
        <path d="M895.202,279.307C895.202,279.307 896.774,1639.58 894.709,1726.29C892.645,1812.99 1016.4,1874.92 1050,1727.32C1083.6,1579.72 1020.89,416.703 1021.46,279.42C1022.03,142.137 893.631,127.725 895.202,279.307Z" style="stroke:rgb(35,31,32);stroke-width:1.59px;"/>
    </g>
    <g transform="matrix(0.688961,0,0,0.650898,998.681,495.205)">
        <path d="M895.202,279.307C895.202,279.307 896.774,1639.58 894.709,1726.29C892.645,1812.99 1016.4,1874.92 1050,1727.32C1083.6,1579.72 1020.89,416.703 1021.46,279.42C1022.03,142.137 893.631,127.725 895.202,279.307Z" style="stroke:rgb(35,31,32);stroke-width:1.49px;"/>
    </g>
    <g transform="matrix(-0.608375,0,0,0.650898,1927.06,508.285)">
        <path d="M895.202,279.307C895.202,279.307 896.774,1639.58 894.709,1726.29C892.645,1812.99 1016.4,1874.92 1050,1727.32C1083.6,1579.72 1020.89,416.703 1021.46,279.42C1022.03,142.137 893.631,127.725 895.202,279.307Z" style="stroke:rgb(35,31,32);stroke-width:1.59px;"/>
    </g>
    <g transform="matrix(0.637886,0,0,0.650898,243.178,480.678)">
        <path d="M895.202,279.307C895.202,279.307 896.774,1639.58 894.709,1726.29C892.645,1812.99 1016.4,1874.92 1050,1727.32C1083.6,1579.72 1020.89,416.703 1021.46,279.42C1022.03,142.137 893.631,127.725 895.202,279.307Z" style="stroke:rgb(35,31,32);stroke-width:1.55px;"/>
    </g>
    <g transform="matrix(-0.608375,0,0,0.650898,1278.34,480.678)">
        <path d="M888.248,390.74C888.248,390.74 882.865,1606.32 880.8,1693.02C878.736,1779.73 993.796,1821.7 1027.4,1674.1C1061,1526.49 1010.46,601.316 1016.24,349.274C1019.39,212.023 886.676,239.158 888.248,390.74Z" style="stroke:rgb(35,31,32);stroke-width:1.59px;"/>
    </g>
    <g transform="matrix(-0.608375,0,0,0.650898,2090.13,509.686)">
        <path d="M888.248,390.74C888.248,390.74 882.865,1606.32 880.8,1693.02C878.736,1779.73 993.796,1821.7 1027.4,1674.1C1061,1526.49 1010.46,601.316 1016.24,349.274C1019.39,212.023 886.676,239.158 888.248,390.74Z" style="stroke:rgb(35,31,32);stroke-width:1.59px;"/>
    </g>
    <g transform="matrix(0.628204,0,0,0.689313,-234.433,427.124)">
        <path d="M888.248,390.74C888.248,390.74 882.865,1606.32 880.8,1693.02C878.736,1779.73 993.796,1821.7 1027.4,1674.1C1061,1526.49 1010.46,601.316 1016.24,349.274C1019.39,212.023 886.676,239.158 888.248,390.74Z" style="stroke:rgb(35,31,32);stroke-width:1.52px;"/>
    </g>
    <g transform="matrix(0.628204,0,0,0.689313,1249.77,454.731)">
        <path d="M888.248,390.74C888.248,390.74 882.865,1606.32 880.8,1693.02C878.736,1779.73 993.796,1821.7 1027.4,1674.1C1061,1526.49 1010.46,601.316 1016.24,349.274C1019.39,212.023 886.676,239.158 888.248,390.74Z" style="stroke:rgb(35,31,32);stroke-width:1.52px;"/>
    </g>
    <g transform="matrix(0.451253,-0.447303,0.594316,0.62803,-410.889,893.321)">
        <path d="M888.248,390.74C888.248,390.74 882.865,1606.32 880.8,1693.02C878.736,1779.73 993.796,1821.7 1027.4,1674.1C1061,1526.49 1010.46,601.316 1016.24,349.274C1019.39,212.023 886.676,239.158 888.248,390.74Z" style="stroke:rgb(35,31,32);stroke-width:1.33px;"/>
    </g>
</svg>
