<?xml version="1.0" encoding="UTF-8" standalone="no"?>
<svg width="100%" height="100%" viewBox="0 0 1800 1200" version="1.1" xmlns="http://www.w3.org/2000/svg" xmlns:xlink="http://www.w3.org/1999/xlink" xml:space="preserve" xmlns:serif="http://www.serif.com/" style="fill-rule:evenodd;clip-rule:evenodd;stroke-linecap:round;stroke-linejoin:round;stroke-miterlimit:1.5;">
    <g fill="hsl(218, 47%, 11%)">
        <path d="M-49.787,813.231C-49.787,813.231 43.651,957.349 304.083,900.562C564.515,843.774 728.41,843.774 801.731,958.377C875.052,1072.98 1023.7,1273.94 1297.27,1236.97C1570.84,1200 1499.16,1323.99 1290.69,1332.61C1082.21,1341.24 1260.92,1342.47 951.584,1332.61C642.252,1322.75 731.481,1335.08 449.399,1327.07C167.317,1319.06 200.588,1327.07 61.956,1316.59C-76.677,1306.12 -49.787,813.231 -49.787,813.231Z"/>
        <g transform="matrix(0.989405,0.145182,-0.145182,0.989405,-7.38886,44.6391)">
            <path d="M157.506,447.958C157.506,447.958 198.306,681.906 641.481,574.809C1084.66,467.712 1093.28,813.986 1344.67,782.563C1596.06,751.139 1699.18,156.626 1134.35,219.15C569.526,281.674 624.362,230.534 446.297,123.324C268.231,16.115 95.268,216.26 157.506,447.958Z" />
        </g>
        <path d="M510.025,0C510.025,0 486.583,286.777 1148.85,261.386C1811.12,235.994 1838.4,512.61 1916.04,672.808C1993.67,833.005 1916.07,-116.952 1916.07,-116.952L531.883,-110.957L510.025,0Z" />
        <path d="M1454.66,436.173C1454.66,436.173 1448.28,502.118 1516.75,502.478C1585.21,502.839 1660.17,464.281 1637.1,418.156C1614.04,372.031 1566.83,350.409 1508.1,357.256C1449.36,364.103 1453.84,417.075 1454.66,436.173Z" />
        <path d="M1475.92,982.329C1475.92,982.329 1421.98,992.183 1402.28,1047.88C1382.57,1103.58 1454.12,1162.27 1530.81,1137.85C1607.5,1113.43 1725.74,1092.28 1721.89,1014.17C1718.03,936.058 1712.89,785.944 1624.63,813.231C1536.38,840.518 1597.98,957.052 1475.92,982.329Z" />
        <path d="M80.781,50.027C80.781,50.027 4.325,116.561 28.519,162.357C52.713,208.153 128.751,195.624 167.635,144.643C206.518,93.663 165.446,-23.851 80.781,50.027Z" />
    </g>
</svg>
